<svg xmlns="http://www.w3.org/2000/svg">
    <defs>
        <!-- LINKEDIN -->
        <symbol id="icon-linkedin" viewBox="0 0 24 24">
            <path d="M20.6,2H3.4C2.6,2,2,2.7,2,3.4v17.1C2,21.3,2.6,22,3.4,22h17.1
            c0.8,0,1.4-0.6,1.4-1.4V3.4C22,2.7,21.4,2,20.6,2z M8,19.1h-3V9.6h3L8,19.1L8,19.1z M6.6,8.3c-0.9,0-1.7-0.8-1.7-1.7
            s0.8-1.7,1.7-1.7s1.7,0.8,1.7,1.7l0,0C8.3,7.5,7.5,8.3,6.6,8.3z M19.2,19.1h-3v-4.6c0-1.1,0-2.5-1.5-2.5c-1.5,0-1.8,1.2-1.8,2.5
            v4.7h-3V9.6h2.8v1.3h0c0.6-1,1.7-1.6,2.8-1.5c3,0,3.6,2,3.6,4.5L19.2,19.1z"/>
        </symbol>
        <!-- INSTAGRAM -->
        <symbol id="icon-instagram" viewBox="0 0 24 24">
            <path d="M12,6.9c-2.8,0-5.1,2.3-5.1,5.1s2.3,5.1,5.1,5.1c2.8,0,5.1-2.3,5.1-5.1
            c0,0,0,0,0,0C17.1,9.2,14.8,6.9,12,6.9C12,6.9,12,6.9,12,6.9z M12,15.3c-1.8,0-3.3-1.5-3.3-3.3c0-1.8,1.5-3.3,3.3-3.3
            s3.3,1.5,3.3,3.3c0,0,0,0,0,0C15.3,13.8,13.8,15.3,12,15.3z M18.5,6.7c0,0.7-0.5,1.2-1.2,1.2c-0.7,0-1.2-0.5-1.2-1.2
            c0-0.7,0.5-1.2,1.2-1.2C18,5.5,18.5,6,18.5,6.7C18.5,6.7,18.5,6.7,18.5,6.7z M21.9,7.9c-0.1-1.6-0.4-3-1.6-4.2s-2.6-1.5-4.2-1.6
            C14.5,2,9.5,2,7.9,2.1c-1.6,0.1-3,0.4-4.2,1.6S2.2,6.3,2.1,7.9C2,9.5,2,14.5,2.1,16.1c0.1,1.6,0.4,3,1.6,4.2
            c1.2,1.2,2.6,1.5,4.2,1.6c1.7,0.1,6.6,0.1,8.2,0c1.6-0.1,3-0.4,4.2-1.6c1.2-1.2,1.5-2.6,1.6-4.2C22,14.5,22,9.5,21.9,7.9L21.9,7.9z
            M19.8,17.9c-0.3,0.9-1,1.6-1.9,1.9c-1.3,0.5-4.4,0.4-5.9,0.4s-4.6,0.1-5.9-0.4c-0.9-0.3-1.6-1-1.9-1.9c-0.5-1.3-0.4-4.4-0.4-5.9
            S3.7,7.4,4.2,6.1c0.3-0.9,1-1.6,1.9-1.9c1.3-0.5,4.4-0.4,5.9-0.4s4.6-0.1,5.9,0.4c0.9,0.3,1.6,1,1.9,1.9c0.5,1.3,0.4,4.4,0.4,5.9
            S20.3,16.6,19.8,17.9z"/>
        </symbol>
        <!-- GMAIL -->
        <symbol id="icon-gmail" viewBox="0 0 24 24">
            <path d="M22,6.5c0-1.1-0.9-2-2-2c-0.4,0-0.9,0.1-1.2,0.4L12,10L6.5,5.9v0l-1.3-1C4.4,4.2,3.1,4.4,2.4,5.3
            C2.1,5.7,2,6.1,2,6.5v1.8v4.5v5.2c0,0.8,0.6,1.4,1.4,1.4c0,0,0,0,0,0v0h3.2v-7.7l5.5,4.1l5.5-4.1l0,7.7h3.2c0.8,0,1.4-0.6,1.4-1.4
            c0,0,0,0,0,0v-4.9l0,0V6.5z"/>
        </symbol>
        <!-- FACEBOOK -->
        <symbol id="icon-facebook" viewBox="0 0 24 24">
           <path d="M19.9,2H4.1C3,2,2,3,2,4.1c0,0,0,0,0,0v15.7C2,21,3,22,4.1,22h6.1v-6.8H7.5
            V12h2.8V9.6c0-2.8,1.7-4.3,4.2-4.3c0.8,0,1.7,0.1,2.5,0.2v2.7h-1.4c-1.4,0-1.8,0.9-1.8,1.7V12h3.1l-0.5,3.2h-2.6V22h6.1
            c1.2,0,2.1-1,2.1-2.1c0,0,0,0,0,0V4.1C22,3,21,2,19.9,2z"/>
        </symbol>
        <!-- TWITTER -->
        <symbol id="icon-twitter" viewBox="0 0 24 24">
           <path d="M19.9,7.9c0,0.2,0,0.4,0,0.5c0,5.4-4.1,11.7-11.7,11.7c-2.2,0-4.4-0.6-6.3-1.8
            c0.3,0,0.7,0.1,1,0.1c1.8,0,3.6-0.6,5.1-1.8c-1.8,0-3.3-1.2-3.8-2.8c0.3,0,0.5,0.1,0.8,0.1c0.4,0,0.7,0,1.1-0.1
            c-1.9-0.4-3.3-2.1-3.3-4V9.6c0.6,0.3,1.2,0.5,1.9,0.5C2.9,8.9,2.3,6.5,3.4,4.6c2.1,2.6,5.2,4.1,8.5,4.3c-0.1-0.3-0.1-0.6-0.1-0.9
            c0-2.3,1.8-4.1,4.1-4.1c1.1,0,2.2,0.5,3,1.3c0.9-0.2,1.8-0.5,2.6-1c-0.3,0.9-0.9,1.7-1.8,2.3c0.8-0.1,1.6-0.3,2.4-0.6
            C21.4,6.6,20.7,7.3,19.9,7.9z"/>
        </symbol>
        <!-- TWITCH -->
        <symbol id="icon-twitch" viewBox="0 0 24 24">
           <path d="M3.4,1.5L2,5.1v14.7h5v2.7h2.8l2.7-2.7h4.1l5.5-5.5V1.5H3.4z M20.1,13.4L17,16.5h-5
		    l-2.7,2.7v-2.7H5.1V3.4h15V13.4z M17,7v5.5h-1.9V7L17,7z M12,7v5.5h-1.9V7L12,7z"/>
        </symbol>

        <!-- BOOKMARK -->
        <symbol id="icon-bookmark" viewBox="0 0 24 24">
           <path d="M17 3H7c-1.1 0-1.99.9-1.99 2L5 21l7-3 7 3V5c0-1.1-.9-2-2-2z"/>
        </symbol>

        <!-- TRENDING UP -->
        <symbol id="icon-trending-up" viewBox="0 0 24 24">
           <path d="M16 6l2.29 2.29-4.88 4.88-4-4L2 16.59 3.41 18l6-6 4 4 6.3-6.29L22 12V6z"/>
        </symbol>

        <!-- ARROW UP -->
        <symbol id="icon-arrow-up" viewBox="0 0 24 24">
           <path d="M12.2073 5L1.00061 15.8268L3.03074 17.7881L12.2075 8.9224L21.2257 17.6351L23.2559 15.6737L12.23 5.02137L12.2297 5.02165L12.2073 5Z"/>
        </symbol>

         <!-- ARROW DOWN -->
        <symbol id="icon-arrow-down" viewBox="0 0 24 24">
           <path d="M12.0485 17.7881L23.2552 6.9613L21.2251 5L12.0483 13.8657L3.03014 5.15299L1 7.11436L12.0259 17.7667L12.0261 17.7664L12.0485 17.7881Z"/>
        </symbol>


    <defs>
</svg>  