<?xml version="1.0" encoding="utf-8"?>
<!-- Generator: Adobe Illustrator 23.0.3, SVG Export Plug-In . SVG Version: 6.00 Build 0)  -->
<svg version="1.1" id="Capa_1" xmlns="http://www.w3.org/2000/svg" xmlns:xlink="http://www.w3.org/1999/xlink" x="0px" y="0px"
	 width="150px" height="150px" viewBox="0 0 150 150" style="enable-background:new 0 0 150 150;" xml:space="preserve">
<style type="text/css">
	.st0{fill:none;}
	.st1{fill:#101115;}
	.st2{fill:#464646;}
</style>
<g>
	<rect x="34.5" y="43.5" class="st0" width="81" height="63"/>
</g>
<g>
	<path class="st1" d="M7.5,59.3h4.6v10.4H22V59.3h4.6v25.7H22V74.1h-9.8v10.6H7.5V59.3z M41.6,76.4c0,2.1-1.7,4.1-4,4.1
		c-2.3,0-4.1-1.7-4.1-4.1v-11h-4.4v11c0,4.6,3.9,8.3,8.3,8.3c4.6,0,8.3-3.9,8.3-8.3v-11h-4.1L41.6,76.4 M58.5,65.6
		c-2.1,0-3.9,0.8-5.2,2.1v-8.6h-4.4v15.5c0,6,4.2,9.8,9.1,9.8c5.4,0,9.8-4,9.8-9.6C68,69.7,63.5,65.6,58.5,65.6L58.5,65.6z
		 M58.7,80.7c-3.1,0-5.4-2.5-5.4-5.6c0-2.9,2.3-5.6,5.4-5.6c2.5,0,4.7,2.5,4.7,5.6C63.5,78.2,61.2,80.7,58.7,80.7z M75.5,66.5
		c0-2.3,1.4-2.9,3.1-2.9c1.3,0,3.1,1.2,4,2.1l2.9-3.3c-1.4-1.9-4.4-3.3-6.8-3.3c-4.7,0-8.3,2.9-8.3,7.4c0,8.7,10.6,6,10.6,10.8
		c0,1.4-1.4,2.9-3.1,2.9c-2.7,0-3.5-1.4-4.6-2.7l-3.2,3.7c2.1,2.5,4.6,3.9,7.7,3.9c4.6,0,8.3-2.9,8.3-7.3
		C86.1,67.9,75.5,70.8,75.5,66.5 M97.9,65.5c-4.7,0-9.1,4-9.1,9.8V91h4.4v-8.5c1.3,1.4,3.1,2.1,5.2,2.1c5,0,9.4-4.1,9.4-9.6
		C107.9,69.2,103.2,65.5,97.9,65.5L97.9,65.5z M98.6,80.4c-3.1,0-5.4-2.5-5.4-5.6c0-2.9,2.3-5.6,5.4-5.6c2.5,0,4.7,2.5,4.7,5.6
		C103.4,77.9,101.1,80.4,98.6,80.4z M140.8,80.7c-2.7,0-3.5-1.2-3.5-2.9v-7.7h4V66h-4v-5.2l-4.4,1.9v15.7c0,4,2.7,6.1,6.8,6.1
		c0.6,0,1.3,0,1.7-0.2l1.2-4C141.7,80.7,141.2,80.7,140.8,80.7"/>
	<path class="st2" d="M129,74.1c-1-1.3-1.9-2.7-3.7-3.7c-1.2-0.8-2.3-1.2-3.7-1.3v-4.6c1.4-0.6,2.1-1.7,2.1-3.3
		c0-1.9-1.5-3.7-3.7-3.7c-1.9,0-3.7,1.5-3.7,3.7c0,1.4,0.8,2.7,2.1,3.3v4.6c-1.2,0.2-2.1,0.6-3.1,1c-1.9-1.5-8.7-6.8-12.5-9.5
		c0.2-0.4,0.2-0.8,0.2-1.2c0-2.1-1.7-4-4-4c-2.1,0-4,1.7-4,4c0,2.3,1.7,4.1,4,4.1c0.8,0,1.3-0.2,1.9-0.6l1,0.6l11.4,8.1
		c-0.6,0.6-1.2,1.3-1.5,1.7c-1,1.3-1.4,3.1-1.4,4.6v0.4c0,1.3,0.2,2.3,0.6,3.5c0.4,1,1,1.7,1.3,2.5l-3.9,4.2
		c-1.2-0.4-2.3-0.2-3.3,0.8c-0.6,0.6-1,1.4-1,2.1s0.4,1.5,1,2.1c0.6,0.6,1.3,1,2.1,1s1.5-0.4,2.1-1c0.7-0.7,1-1.3,1-2.1
		c0-0.4,0-0.6-0.2-1l4-4c0.6,0.4,1.2,0.8,1.7,1c1.3,0.6,2.5,1,4,1h0.4c1.5,0,3.3-0.4,4.6-1.2c1.3-1,2.7-1.9,3.7-3.5
		c1-1.4,1.3-3.1,1.3-4.7l0,0C130.2,77.1,129.8,75.7,129,74.1L129,74.1z M124.3,82.2c-1.2,1.3-2.3,1.9-3.7,1.9h-0.3
		c-0.8,0-1.5-0.2-2.3-0.6c-1-0.4-1.4-1.2-1.9-1.7c-0.6-0.8-1-1.5-1-2.5V79c0-1,0.2-1.5,0.6-2.5c0.6-1,1.2-1.3,1.7-1.9
		c0.8-0.6,1.5-0.8,2.5-0.8l0,0c1,0,1.5,0.2,2.5,0.6c0.8,0.4,1.4,1.2,1.9,1.7c0.6,0.8,0.8,1.5,1,2.5c0,0.2,0,0.4,0,0.6
		C125.6,80,125,81.2,124.3,82.2L124.3,82.2z"/>
</g>
</svg>
