<svg xmlns="http://www.w3.org/2000/svg" xmlns:xlink="http://www.w3.org/1999/xlink" width="80" height="60" viewBox="0 0 80 60">
  <defs>
    <clipPath id="clip-icon-salesforce">
      <rect width="80" height="60"/>
    </clipPath>
  </defs>
  <g id="icon-salesforce" clip-path="url(#clip-icon-salesforce)">
    <g id="Salesforce.com_logo" data-name="Salesforce.com logo" transform="translate(4.531 4.448)">
      <path id="Trazado_143" data-name="Trazado 143" d="M29.477,6a12.517,12.517,0,0,1,9.054-3.884A12.644,12.644,0,0,1,49.553,8.647a15.221,15.221,0,0,1,6.22-1.325,15.536,15.536,0,1,1-3.044,30.77,11.25,11.25,0,0,1-14.748,4.64,12.832,12.832,0,0,1-23.855-.577,11.835,11.835,0,0,1-2.451.255A11.984,11.984,0,0,1-.24,30.364,12.105,12.105,0,0,1,5.717,19.919,13.87,13.87,0,0,1,29.48,6.011" transform="translate(0 0)" fill="#111" fill-rule="evenodd"/>
      <path id="Trazado_144" data-name="Trazado 144" d="M39.354,82.9c-.045.117.016.141.03.162a4.513,4.513,0,0,0,.407.246,4.362,4.362,0,0,0,2.136.5c1.464,0,2.375-.779,2.375-2.034V81.75c0-1.16-1.029-1.582-1.989-1.884l-.126-.041c-.727-.236-1.354-.441-1.354-.918v-.024c0-.409.367-.711.934-.711a4.231,4.231,0,0,1,1.861.475s.142.092.194-.045c.028-.074.273-.73.3-.8a.136.136,0,0,0-.071-.165,4.147,4.147,0,0,0-2.1-.564H41.8a2.048,2.048,0,0,0-2.278,1.971v.025c0,1.223,1.034,1.622,2,1.9l.155.048c.7.216,1.312.4,1.312.9v.025c0,.454-.4.793-1.031.793a3.458,3.458,0,0,1-1.887-.543c-.1-.06-.162-.1-.241-.152a.117.117,0,0,0-.193.066l-.289.8m21.44,0c-.045.117.016.141.031.162a4.441,4.441,0,0,0,.407.246,4.362,4.362,0,0,0,2.136.5c1.464,0,2.375-.779,2.375-2.034v-.025c0-1.16-1.026-1.582-1.989-1.884l-.126-.041c-.727-.236-1.354-.441-1.354-.919V78.88c0-.409.367-.711.934-.711a4.241,4.241,0,0,1,1.861.475s.142.092.194-.045c.028-.074.273-.73.3-.8a.136.136,0,0,0-.071-.165,4.148,4.148,0,0,0-2.1-.564h-.146a2.048,2.048,0,0,0-2.278,1.971v.025c0,1.223,1.034,1.622,2,1.9l.155.048c.706.216,1.312.4,1.312.9v.025c0,.454-.4.793-1.031.793a3.452,3.452,0,0,1-1.887-.543c-.1-.06-.163-.1-.242-.152a.124.124,0,0,0-.192.066l-.289.8M75.434,80.44a3.039,3.039,0,0,1-.391,1.664,1.506,1.506,0,0,1-2.378,0,3.764,3.764,0,0,1,0-3.32,1.3,1.3,0,0,1,1.186-.575,1.317,1.317,0,0,1,1.191.575,2.984,2.984,0,0,1,.391,1.656m1.223-1.315a2.954,2.954,0,0,0-.556-1.063,2.664,2.664,0,0,0-.94-.714,3.412,3.412,0,0,0-2.624,0,2.7,2.7,0,0,0-.939.714,2.966,2.966,0,0,0-.556,1.063,4.891,4.891,0,0,0,0,2.63,2.946,2.946,0,0,0,.556,1.063,2.643,2.643,0,0,0,.939.709,3.476,3.476,0,0,0,2.622,0,2.635,2.635,0,0,0,.939-.709,2.962,2.962,0,0,0,.556-1.063,4.9,4.9,0,0,0,0-2.63m10.051,3.359a.116.116,0,0,0-.156-.074,2.806,2.806,0,0,1-.569.162,4.356,4.356,0,0,1-.669.048,1.861,1.861,0,0,1-1.4-.525,2.331,2.331,0,0,1-.525-1.672,2.6,2.6,0,0,1,.47-1.611,1.6,1.6,0,0,1,1.357-.6,4.1,4.1,0,0,1,1.294.185s.1.042.142-.084c.107-.3.187-.509.3-.835a.11.11,0,0,0-.076-.144,4.76,4.76,0,0,0-.816-.206,6.158,6.158,0,0,0-.918-.061,3.327,3.327,0,0,0-1.362.262,2.818,2.818,0,0,0-.984.714,3.033,3.033,0,0,0-.6,1.063,4.225,4.225,0,0,0-.2,1.317,3.524,3.524,0,0,0,.814,2.435,3.089,3.089,0,0,0,2.414.908,4.958,4.958,0,0,0,1.732-.31.111.111,0,0,0,.05-.145l-.3-.829m2.139-2.729a2.382,2.382,0,0,1,.336-.976,1.318,1.318,0,0,1,1.184-.6,1.284,1.284,0,0,1,1.16.6,2.027,2.027,0,0,1,.273.976H88.832Zm4.12-.866a2.594,2.594,0,0,0-.53-.968,2.419,2.419,0,0,0-.787-.6,3.018,3.018,0,0,0-1.186-.241,3.255,3.255,0,0,0-1.367.265,2.726,2.726,0,0,0-.953.727,2.99,2.99,0,0,0-.562,1.076,4.651,4.651,0,0,0-.182,1.32,4.465,4.465,0,0,0,.188,1.323,2.661,2.661,0,0,0,1.643,1.743,4.15,4.15,0,0,0,1.5.243,4.293,4.293,0,0,0,2.084-.415c.046-.026.089-.07.035-.2l-.27-.758a.12.12,0,0,0-.156-.072,3.964,3.964,0,0,1-1.7.307,1.694,1.694,0,0,1-1.9-1.866l4.146,0a.122.122,0,0,0,.12-.108,4.429,4.429,0,0,0-.124-1.782ZM55.7,79.758a2.386,2.386,0,0,1,.336-.976,1.318,1.318,0,0,1,1.184-.6,1.284,1.284,0,0,1,1.16.6,2.033,2.033,0,0,1,.273.976H55.687Zm4.12-.866a2.59,2.59,0,0,0-.53-.968,2.419,2.419,0,0,0-.787-.6,3.018,3.018,0,0,0-1.186-.241,3.255,3.255,0,0,0-1.367.265,2.726,2.726,0,0,0-.953.727,3,3,0,0,0-.562,1.076,4.66,4.66,0,0,0-.181,1.32,4.439,4.439,0,0,0,.188,1.323,2.649,2.649,0,0,0,1.64,1.743,4.14,4.14,0,0,0,1.5.243,4.293,4.293,0,0,0,2.084-.415c.046-.026.089-.07.035-.2l-.27-.758a.12.12,0,0,0-.156-.072,3.964,3.964,0,0,1-1.7.307,1.694,1.694,0,0,1-1.9-1.866l4.146,0a.122.122,0,0,0,.12-.108,4.426,4.426,0,0,0-.124-1.782ZM46.752,82.461a.808.808,0,0,1-.239-.246.989.989,0,0,1-.124-.538.906.906,0,0,1,.37-.8,1.863,1.863,0,0,1,1.2-.3,8.4,8.4,0,0,1,1.123.1v1.882h0a8.363,8.363,0,0,1-1.118.149,1.858,1.858,0,0,1-1.212-.242ZM48.4,79.548c-.168-.012-.386-.018-.646-.018a3.908,3.908,0,0,0-1.018.131,2.654,2.654,0,0,0-.863.4A1.931,1.931,0,0,0,45.05,81.7a2.158,2.158,0,0,0,.19.945,1.716,1.716,0,0,0,.541.648,2.265,2.265,0,0,0,.842.365,4.954,4.954,0,0,0,1.1.112,7.581,7.581,0,0,0,1.257-.1q.523-.09,1.042-.2c.138-.032.291-.073.291-.073a.131.131,0,0,0,.094-.135l0-3.779a2.313,2.313,0,0,0-.659-1.827,2.815,2.815,0,0,0-1.9-.572,6.824,6.824,0,0,0-1.11.1,3.986,3.986,0,0,0-1.275.467.129.129,0,0,0-.037.165l.294.787a.1.1,0,0,0,.136.067.532.532,0,0,0,.068-.034,4.2,4.2,0,0,1,1.8-.42,1.673,1.673,0,0,1,1.023.268c.226.173.341.436.341.987v.175c-.354-.051-.682-.081-.682-.081Zm33.328-2.134a.112.112,0,0,0-.062-.149,3.644,3.644,0,0,0-.693-.118,2.054,2.054,0,0,0-1.068.172,1.835,1.835,0,0,0-.7.517v-.5a.119.119,0,0,0-.119-.125h-1.06a.12.12,0,0,0-.119.125V83.5a.126.126,0,0,0,.126.126h1.086a.126.126,0,0,0,.125-.126V80.4a3.63,3.63,0,0,1,.137-1.086,1.558,1.558,0,0,1,.362-.609,1.257,1.257,0,0,1,.512-.307,2.016,2.016,0,0,1,.556-.078,2.326,2.326,0,0,1,.454.056c.08.009.124-.04.151-.112.071-.189.273-.756.312-.869" transform="translate(-29.192 -56.435)" fill="#fff" fill-rule="evenodd"/>
      <path id="Trazado_145" data-name="Trazado 145" d="M106.469,67.152a3.478,3.478,0,0,0-.409-.1,3.205,3.205,0,0,0-.563-.044,2.37,2.37,0,0,0-1.753.629,3.421,3.421,0,0,0-.832,1.877l-.051.281h-.94a.139.139,0,0,0-.139.12l-.154.861c-.011.082.025.134.135.133h.915l-.928,5.181a6.5,6.5,0,0,1-.248,1.021,2.093,2.093,0,0,1-.289.589.767.767,0,0,1-.379.293,1.534,1.534,0,0,1-.487.07,1.886,1.886,0,0,1-.332-.036.988.988,0,0,1-.223-.072.114.114,0,0,0-.15.067c-.034.088-.278.758-.307.841a.123.123,0,0,0,.064.165,3.1,3.1,0,0,0,.378.11,2.5,2.5,0,0,0,.606.058,3.026,3.026,0,0,0,1.016-.157,1.9,1.9,0,0,0,.765-.534,2.745,2.745,0,0,0,.538-.926,7.906,7.906,0,0,0,.364-1.391L104,70.913h1.364a.14.14,0,0,0,.139-.12l.154-.861c.011-.082-.024-.134-.135-.133H104.2a5.618,5.618,0,0,1,.219-.934,1.2,1.2,0,0,1,.29-.442.859.859,0,0,1,.347-.216,1.438,1.438,0,0,1,.444-.064,1.731,1.731,0,0,1,.34.034c.128.027.178.042.212.052.135.041.153,0,.18-.064l.316-.869a.11.11,0,0,0-.076-.144M87.974,76.105a.12.12,0,0,1-.119.126h-1.1a.12.12,0,0,1-.119-.126V67.27a.12.12,0,0,1,.119-.125h1.1a.119.119,0,0,1,.119.125v8.835" transform="translate(-64.079 -49.018)" fill="#fff" fill-rule="evenodd"/>
    </g>
  </g>
</svg>
