<svg xmlns="http://www.w3.org/2000/svg" xmlns:xlink="http://www.w3.org/1999/xlink" width="70" height="60" viewBox="0 0 70 60">
  <defs>
    <clipPath id="clip-icon-salesforcePardot">
      <rect width="70" height="60"/>
    </clipPath>
  </defs>
  <g id="icon-salesforcePardot" clip-path="url(#clip-icon-salesforcePardot)">
    <g id="Grupo_2" data-name="Grupo 2" transform="translate(-991.65 -935.536)">
      <g id="Grupo_1" data-name="Grupo 1" transform="translate(1009.773 980.582)">
        <path id="Trazado_183" data-name="Trazado 183" d="M847.963,183.636a2.672,2.672,0,0,1-.205.183v-.97h-.865V190.4h.868v-2.77a2.688,2.688,0,0,0,3.62.711,3.212,3.212,0,0,0,1.222-3.635A2.683,2.683,0,0,0,847.963,183.636Zm1.586,4.285a1.973,1.973,0,0,1-1.85-2.2,2.179,2.179,0,0,1,2.075-2.242,2.1,2.1,0,0,1,2.036,2.237,2.22,2.22,0,0,1-2.239,2.2h-.025Z" transform="translate(-846.892 -180.448)" fill="#111"/>
        <path id="Trazado_184" data-name="Trazado 184" d="M1413.891,152.984V154.7h1.821v.782h-1.775c-.012.188-.032.325-.032.489,0,.9.034,1.8,0,2.689-.054,1.058.489,1.283,1.466,1.088a2.493,2.493,0,0,0,.244-.081c.2.662.076.863-.584.946-1.376.164-2.036-.418-2.038-1.809v-3.285l-.782-.037v-.733l.777-.049v-1.711Z" transform="translate(-1381.958 -152.343)" fill="#111"/>
        <path id="Trazado_185" data-name="Trazado 185" d="M1092.723,189.469h-.875V183.71h.858v1.33a2.589,2.589,0,0,1,2.344-1.449v.9c-1.736.325-2.329,1.061-2.329,2.86C1092.723,188.035,1092.723,188.734,1092.723,189.469Z" transform="translate(-1078.739 -181.31)" fill="#111"/>
        <path id="Trazado_186" data-name="Trazado 186" d="M1163.087,141.019v3.349c-1.525-1.366-2.9-1.467-4.072-.384a3.266,3.266,0,0,0-.283,4.3,2.628,2.628,0,0,0,1.6.978,2.668,2.668,0,0,0,2.75-1.171v1.068h.839v-8.142h-.834Zm-2.1,7.507a2.144,2.144,0,0,1-2-2.29,2.071,2.071,0,0,1,2.036-2.185,2.243,2.243,0,0,1-.032,4.476Z" transform="translate(-1141.406 -141.016)" fill="#111"/>
        <path id="Trazado_187" data-name="Trazado 187" d="M973.683,185.506a1.793,1.793,0,0,0-1.44-1.694,4.373,4.373,0,0,0-3.094.359l.244.716a4.282,4.282,0,0,1,2.237-.374,1.328,1.328,0,0,1,1.164,1.667l-.264-.056a4.6,4.6,0,0,0-2.875.139,1.728,1.728,0,0,0-.289,3.026,2.531,2.531,0,0,0,1.653.413,2.791,2.791,0,0,0,1.836-.887l.042.733h.814c0-.13.032-.244.029-.337C973.732,187.973,973.756,186.729,973.683,185.506Zm-1.669,3.236a1.936,1.936,0,0,1-2.119-.1,1.036,1.036,0,0,1,.083-1.667,3.611,3.611,0,0,1,2.606-.164.511.511,0,0,1,.286.354,1.416,1.416,0,0,1-.853,1.572Z" transform="translate(-962.087 -181.395)" fill="#111"/>
        <path id="Trazado_188" data-name="Trazado 188" d="M1291.963,182.573a3.055,3.055,0,1,0,3,3.109v-.02a3.026,3.026,0,0,0-2.969-3.082h0Zm0,5.3a2.186,2.186,0,0,1-2.129-2.281,2.113,2.113,0,0,1,2.119-2.217,2.253,2.253,0,0,1,.007,4.5Z" transform="translate(-1265.205 -180.349)" fill="#111"/>
      </g>
      <g id="Salesforce.com_logo" data-name="Salesforce.com logo" transform="translate(999.204 940.536)">
        <path id="Trazado_143" data-name="Trazado 143" d="M22.6,4.737a9.621,9.621,0,0,1,6.959-2.985A9.718,9.718,0,0,1,38.03,6.774a11.7,11.7,0,0,1,4.78-1.019A11.941,11.941,0,1,1,40.471,29.4a8.646,8.646,0,0,1-11.336,3.566A9.863,9.863,0,0,1,10.8,32.527a9.1,9.1,0,0,1-1.884.2A9.211,9.211,0,0,1-.24,23.465a9.3,9.3,0,0,1,4.579-8.028A10.661,10.661,0,0,1,22.6,4.747" transform="translate(0.24 -0.552)" fill="#111" fill-rule="evenodd"/>
        <path id="Trazado_144" data-name="Trazado 144" d="M39.351,81.551c-.034.09.012.109.023.125a3.465,3.465,0,0,0,.313.189,3.353,3.353,0,0,0,1.642.383c1.125,0,1.825-.6,1.825-1.563v-.019c0-.892-.791-1.216-1.529-1.448l-.1-.031c-.559-.181-1.041-.339-1.041-.706v-.019c0-.315.282-.547.718-.547a3.252,3.252,0,0,1,1.43.365s.109.071.149-.035c.022-.057.21-.561.23-.617a.1.1,0,0,0-.055-.127,3.187,3.187,0,0,0-1.614-.434h-.112a1.574,1.574,0,0,0-1.751,1.515V78.6c0,.94.795,1.247,1.537,1.458l.119.037c.541.166,1.009.311,1.009.69v.019c0,.349-.3.609-.793.609A2.658,2.658,0,0,1,39.905,81c-.079-.046-.124-.079-.186-.117a.09.09,0,0,0-.148.051l-.222.617m16.479,0c-.034.09.012.109.024.125a3.412,3.412,0,0,0,.313.189,3.353,3.353,0,0,0,1.642.383c1.125,0,1.825-.6,1.825-1.563v-.019c0-.892-.789-1.216-1.529-1.448l-.1-.031c-.559-.181-1.041-.339-1.041-.706V78.46c0-.315.282-.547.718-.547a3.259,3.259,0,0,1,1.43.365s.109.071.149-.035c.021-.057.21-.561.228-.617a.1.1,0,0,0-.054-.127,3.188,3.188,0,0,0-1.614-.434h-.113a1.574,1.574,0,0,0-1.751,1.515V78.6c0,.94.795,1.247,1.537,1.458l.119.037c.543.166,1.009.311,1.009.69V80.8c0,.349-.3.609-.793.609A2.654,2.654,0,0,1,56.382,81c-.079-.046-.126-.078-.186-.117a.1.1,0,0,0-.148.051l-.222.617m11.255-1.888a2.335,2.335,0,0,1-.3,1.279,1.158,1.158,0,0,1-1.827,0,2.893,2.893,0,0,1,0-2.551,1,1,0,0,1,.912-.442,1.013,1.013,0,0,1,.916.442,2.293,2.293,0,0,1,.3,1.273m.94-1.011a2.27,2.27,0,0,0-.428-.817,2.048,2.048,0,0,0-.722-.549,2.622,2.622,0,0,0-2.017,0,2.073,2.073,0,0,0-.722.549,2.28,2.28,0,0,0-.428.817,3.759,3.759,0,0,0,0,2.021,2.264,2.264,0,0,0,.428.817,2.032,2.032,0,0,0,.722.545,2.671,2.671,0,0,0,2.015,0,2.026,2.026,0,0,0,.722-.545,2.276,2.276,0,0,0,.428-.817,3.765,3.765,0,0,0,0-2.021m7.725,2.582a.089.089,0,0,0-.12-.057,2.156,2.156,0,0,1-.438.125,3.347,3.347,0,0,1-.514.037,1.43,1.43,0,0,1-1.075-.4,1.792,1.792,0,0,1-.4-1.285,2,2,0,0,1,.361-1.238,1.23,1.23,0,0,1,1.043-.46,3.154,3.154,0,0,1,.994.142s.074.032.109-.065c.082-.228.143-.391.232-.641a.085.085,0,0,0-.059-.111,3.659,3.659,0,0,0-.627-.159,4.734,4.734,0,0,0-.706-.047,2.557,2.557,0,0,0-1.047.2,2.166,2.166,0,0,0-.756.549,2.331,2.331,0,0,0-.458.817,3.248,3.248,0,0,0-.153,1.013,2.708,2.708,0,0,0,.625,1.872,2.374,2.374,0,0,0,1.856.7,3.811,3.811,0,0,0,1.331-.238.086.086,0,0,0,.038-.112l-.232-.637m1.644-2.1a1.831,1.831,0,0,1,.258-.75,1.013,1.013,0,0,1,.91-.462.987.987,0,0,1,.892.462,1.558,1.558,0,0,1,.21.75H77.379Zm3.167-.666a1.993,1.993,0,0,0-.407-.744,1.859,1.859,0,0,0-.605-.46,2.32,2.32,0,0,0-.912-.185,2.5,2.5,0,0,0-1.051.2,2.1,2.1,0,0,0-.732.559,2.3,2.3,0,0,0-.432.827,3.575,3.575,0,0,0-.14,1.015,3.432,3.432,0,0,0,.144,1.017,2.045,2.045,0,0,0,1.263,1.339,3.19,3.19,0,0,0,1.156.187,3.3,3.3,0,0,0,1.6-.319c.035-.02.069-.054.027-.152l-.208-.583a.092.092,0,0,0-.12-.055,3.047,3.047,0,0,1-1.307.236,1.3,1.3,0,0,1-1.458-1.434l3.187,0a.093.093,0,0,0,.093-.083,3.4,3.4,0,0,0-.1-1.37Zm-28.641.666a1.834,1.834,0,0,1,.258-.75,1.013,1.013,0,0,1,.91-.462.986.986,0,0,1,.892.462,1.563,1.563,0,0,1,.21.75H51.9Zm3.167-.666a1.991,1.991,0,0,0-.407-.744,1.859,1.859,0,0,0-.605-.46,2.319,2.319,0,0,0-.912-.185,2.5,2.5,0,0,0-1.051.2,2.1,2.1,0,0,0-.732.559,2.3,2.3,0,0,0-.432.827,3.582,3.582,0,0,0-.139,1.015,3.412,3.412,0,0,0,.144,1.017,2.036,2.036,0,0,0,1.261,1.339,3.182,3.182,0,0,0,1.156.187,3.3,3.3,0,0,0,1.6-.319c.035-.02.069-.054.027-.152l-.208-.583a.092.092,0,0,0-.12-.055,3.047,3.047,0,0,1-1.307.236A1.3,1.3,0,0,1,51.9,79.92l3.187,0a.093.093,0,0,0,.093-.083,3.4,3.4,0,0,0-.1-1.37ZM45.036,81.213a.621.621,0,0,1-.184-.189.76.76,0,0,1-.1-.413A.7.7,0,0,1,45.042,80a1.432,1.432,0,0,1,.924-.23,6.455,6.455,0,0,1,.863.074v1.446h0a6.428,6.428,0,0,1-.859.114,1.428,1.428,0,0,1-.932-.186ZM46.3,78.974c-.129-.009-.3-.014-.5-.014a3,3,0,0,0-.783.1,2.04,2.04,0,0,0-.664.309,1.485,1.485,0,0,0-.632,1.259,1.659,1.659,0,0,0,.146.726,1.319,1.319,0,0,0,.415.5,1.741,1.741,0,0,0,.647.28,3.807,3.807,0,0,0,.843.086,5.828,5.828,0,0,0,.966-.08q.4-.069.8-.156c.106-.024.224-.056.224-.056a.1.1,0,0,0,.073-.1l0-2.9a1.778,1.778,0,0,0-.506-1.4,2.163,2.163,0,0,0-1.46-.44,5.244,5.244,0,0,0-.853.078,3.064,3.064,0,0,0-.98.359.1.1,0,0,0-.029.126l.226.605a.081.081,0,0,0,.1.052.409.409,0,0,0,.052-.026,3.227,3.227,0,0,1,1.386-.323,1.286,1.286,0,0,1,.787.206c.174.133.262.335.262.758v.135c-.272-.04-.524-.062-.524-.062Zm25.616-1.64a.086.086,0,0,0-.048-.115,2.8,2.8,0,0,0-.532-.091,1.578,1.578,0,0,0-.821.132,1.411,1.411,0,0,0-.537.4v-.387a.092.092,0,0,0-.091-.1h-.815a.092.092,0,0,0-.091.1v4.74a.1.1,0,0,0,.1.1h.835a.1.1,0,0,0,.1-.1v-2.38a2.79,2.79,0,0,1,.105-.835,1.2,1.2,0,0,1,.278-.468.966.966,0,0,1,.393-.236,1.549,1.549,0,0,1,.428-.06,1.788,1.788,0,0,1,.349.043c.061.007.1-.031.116-.086.055-.145.21-.581.24-.668" transform="translate(-31.355 -61.633)" fill="#fff" fill-rule="evenodd"/>
        <path id="Trazado_145" data-name="Trazado 145" d="M101.88,67.12a2.672,2.672,0,0,0-.314-.075,2.464,2.464,0,0,0-.432-.033,1.821,1.821,0,0,0-1.348.484,2.629,2.629,0,0,0-.639,1.443l-.039.216h-.722a.107.107,0,0,0-.107.093l-.119.662c-.008.063.019.1.1.1h.7l-.713,3.982a5,5,0,0,1-.191.784,1.609,1.609,0,0,1-.222.452.59.59,0,0,1-.291.225,1.179,1.179,0,0,1-.374.054,1.45,1.45,0,0,1-.255-.028.759.759,0,0,1-.172-.056.088.088,0,0,0-.115.051c-.026.068-.214.583-.236.647a.1.1,0,0,0,.049.127,2.384,2.384,0,0,0,.291.085,1.921,1.921,0,0,0,.466.044,2.326,2.326,0,0,0,.781-.121,1.462,1.462,0,0,0,.588-.41,2.11,2.11,0,0,0,.413-.712,6.077,6.077,0,0,0,.28-1.069l.717-4.056h1.048a.107.107,0,0,0,.107-.093l.119-.662c.008-.063-.019-.1-.1-.1h-1.017a4.319,4.319,0,0,1,.168-.718.924.924,0,0,1,.223-.339.66.66,0,0,1,.266-.166,1.105,1.105,0,0,1,.341-.049,1.33,1.33,0,0,1,.261.026c.1.021.137.032.163.04.1.032.118,0,.138-.049l.243-.668a.085.085,0,0,0-.058-.111M87.665,74a.092.092,0,0,1-.091.1H86.73a.092.092,0,0,1-.091-.1V67.21a.092.092,0,0,1,.091-.1h.844a.092.092,0,0,1,.091.1V74" transform="translate(-69.116 -53.606)" fill="#fff" fill-rule="evenodd"/>
      </g>
    </g>
  </g>
</svg>
