<svg xmlns="http://www.w3.org/2000/svg" xmlns:xlink="http://www.w3.org/1999/xlink" width="80" height="60" viewBox="0 0 80 60">
  <defs>
    <clipPath id="clip-icon-hubspot">
      <rect width="80" height="60"/>
    </clipPath>
  </defs>
  <g id="icon-hubspot" clip-path="url(#clip-icon-hubspot)">
    <g id="hubspot" transform="translate(6.287 19.95)">
      <path id="Trazado_213" data-name="Trazado 213" d="M.06,27.679H2.477v5.369h5.1V27.679h2.42V40.858H7.573V35.376h-5.1v5.482H.06Zm17.589,8.887a2,2,0,0,1-4,0V30.891H11.354v5.674a4.293,4.293,0,0,0,8.586,0V30.891H17.649v5.674m8.689-5.608a3.522,3.522,0,0,0-2.7,1.082V27.679h-2.3v8.082a4.824,4.824,0,0,0,4.645,5.1,5.033,5.033,0,0,0,5.125-4.95,4.864,4.864,0,0,0-4.774-4.95Zm.057,7.773a2.824,2.824,0,0,1,0-5.647,2.843,2.843,0,0,1,0,5.647Zm8.579-7.194a1.419,1.419,0,0,1,1.613-1.522,3.444,3.444,0,0,1,2.163,1.137l1.5-1.76a4.748,4.748,0,0,0-3.519-1.705c-2.494,0-4.29,1.448-4.29,3.85,0,4.455,5.482,3.043,5.482,5.537a1.578,1.578,0,0,1-1.613,1.448,2.821,2.821,0,0,1-2.421-1.357l-1.669,1.723a4.93,4.93,0,0,0,3.96,1.962c2.365,0,4.272-1.467,4.272-3.759,0-4.95-5.482-3.41-5.482-5.555m11.535-.708a4.823,4.823,0,0,0-4.645,5.1v8.1h2.3V39.647a3.524,3.524,0,0,0,2.7,1.082,4.864,4.864,0,0,0,4.774-4.95,5.033,5.033,0,0,0-5.126-4.95Zm.409,7.774a2.825,2.825,0,0,1,0-5.647,2.843,2.843,0,0,1,0,5.647Zm21.641.129c-1.356,0-1.741-.586-1.741-1.485V33.268h2.108V31.251H66.817V28.593l-2.328,1.045v8.1c0,2.072,1.429,3.117,3.39,3.117a4.708,4.708,0,0,0,.917-.073l.568-2.09c-.257.018-.55.036-.807.036" transform="translate(0 -23.93)" fill="#111"/>
      <path id="Trazado_214" data-name="Trazado 214" d="M351.039,9.455A5.057,5.057,0,0,0,349.2,7.631a4.93,4.93,0,0,0-1.857-.643V4.578a1.779,1.779,0,0,0,1.1-1.666,1.829,1.829,0,1,0-3.659,0,1.758,1.758,0,0,0,1.073,1.666V6.989a5.3,5.3,0,0,0-1.616.506c-1.047-.8-4.482-3.4-6.491-4.929a1.993,1.993,0,0,0,.084-.536,2.028,2.028,0,1,0-2.027,2.029,2.009,2.009,0,0,0,1.041-.3l.424.322,5.826,4.2a4.884,4.884,0,0,0-.824.965,4.5,4.5,0,0,0-.749,2.428v.184a5.09,5.09,0,0,0,.318,1.755,4.607,4.607,0,0,0,.755,1.311l-1.933,1.938a1.562,1.562,0,1,0,.958,1l2-2a5.135,5.135,0,0,0,.888.486,5.193,5.193,0,0,0,2.078.437h.139a4.976,4.976,0,0,0,4.23-2.349,4.591,4.591,0,0,0,.722-2.473V11.92a4.849,4.849,0,0,0-.639-2.465ZM348.6,13.647a2.541,2.541,0,0,1-1.871.974h-.116a2.529,2.529,0,0,1-1.182-.314,2.731,2.731,0,0,1-1.035-.943,2.2,2.2,0,0,1-.431-1.284v-.139a2.63,2.63,0,0,1,.3-1.278,2.768,2.768,0,0,1,.964-1.054,2.359,2.359,0,0,1,1.335-.4h.045a2.706,2.706,0,0,1,1.256.289,2.66,2.66,0,0,1,.986.9,2.854,2.854,0,0,1,.442,1.261c.007.095.011.192.011.284a2.494,2.494,0,0,1-.708,1.709Z" transform="translate(-288.545)" fill="#111"/>
    </g>
  </g>
</svg>
