<svg xmlns="http://www.w3.org/2000/svg" xmlns:xlink="http://www.w3.org/1999/xlink" width="80" height="60" viewBox="0 0 80 60">
  <defs>
    <clipPath id="clip-icon-campaignMonitor">
      <rect width="80" height="60"/>
    </clipPath>
  </defs>
  <g id="icon-campaignMonitor" clip-path="url(#clip-icon-campaignMonitor)">
    <g id="Logo_Dark_Stack_1" transform="translate(6.192 5.008)">
      <path id="Trazado_146" data-name="Trazado 146" d="M882.358,403.75c-.581,0-1.028.124-1.028.662v.525c0,.537.447.676,1.028.676s1.029-.139,1.029-.676v-.525C883.387,403.874,882.941,403.75,882.358,403.75Z" transform="translate(-832.393 -381.34)" fill="#111"/>
      <path id="Trazado_147" data-name="Trazado 147" d="M884.972,454.39h-.82a.493.493,0,0,0-.492.493v7.043a.493.493,0,0,0,.492.493h.821a.493.493,0,0,0,.492-.493v-7.04a.493.493,0,0,0-.492-.5Z" transform="translate(-834.587 -429.297)" fill="#111"/>
      <path id="Trazado_148" data-name="Trazado 148" d="M339.453,453a3.141,3.141,0,0,0-2.654,1.357A2.468,2.468,0,0,0,334.444,453a2.818,2.818,0,0,0-2.4,1.357v-.785a.492.492,0,0,0-.493-.492h-.819a.492.492,0,0,0-.493.492v7.044a.493.493,0,0,0,.493.493h.817a.492.492,0,0,0,.493-.493v-4.024a1.722,1.722,0,0,1,1.684-1.956c1,0,1.6.686,1.6,1.909v4.069a.493.493,0,0,0,.493.493h.819a.492.492,0,0,0,.492-.493v-4.022c0-1.266.7-1.956,1.685-1.956,1.014,0,1.6.672,1.6,1.924v4.055a.492.492,0,0,0,.491.493h.82a.492.492,0,0,0,.492-.493v-4.6C342.211,454.086,341.168,453,339.453,453Z" transform="translate(-312.022 -427.986)" fill="#111"/>
      <path id="Trazado_149" data-name="Trazado 149" d="M5.378,410.129a3.518,3.518,0,0,1,2.147.722.474.474,0,0,0,.621-.042l.633-.633a.474.474,0,0,0-.039-.7A5.321,5.321,0,0,0,5.378,408.3a5.388,5.388,0,1,0,0,10.776A5.322,5.322,0,0,0,8.737,417.9a.473.473,0,0,0,.039-.7l-.633-.633a.476.476,0,0,0-.335-.138.466.466,0,0,0-.288.1,3.518,3.518,0,0,1-2.146.721,3.558,3.558,0,1,1,0-7.115Z" transform="translate(0 -385.815)" fill="#111"/>
      <path id="Trazado_150" data-name="Trazado 150" d="M937.977,453.165h-.819a.493.493,0,0,0-.493.493v.789a3.061,3.061,0,0,0-2.684-1.357,3.765,3.765,0,0,0-3.652,4.085v.03a3.766,3.766,0,0,0,3.652,4.085,3.185,3.185,0,0,0,2.684-1.333l.014-.018v.729a2.555,2.555,0,0,1-2.509,2.6,2.44,2.44,0,0,1-2.132-1.115.491.491,0,0,0-.674-.165l-.345.23a.493.493,0,0,0-.167.677,3.875,3.875,0,0,0,3.4,1.841,4.009,4.009,0,0,0,4.219-4.1V453.66a.492.492,0,0,0-.494-.5ZM936.5,457.2a2.34,2.34,0,0,1-2.212,2.52,2.245,2.245,0,0,1-2.129-2.52v-.03a2.269,2.269,0,0,1,2.129-2.518,2.338,2.338,0,0,1,2.212,2.518Z" transform="translate(-879.173 -428.163)" fill="#111"/>
      <path id="Trazado_151" data-name="Trazado 151" d="M1098.043,453.09a2.84,2.84,0,0,0-2.46,1.35v-.783a.492.492,0,0,0-.492-.492h-.82a.492.492,0,0,0-.491.492V460.7a.492.492,0,0,0,.491.493h.82a.513.513,0,0,0,.492-.567v-4.241a1.73,1.73,0,1,1,3.46,0V460.7a.492.492,0,0,0,.491.493h.819a.492.492,0,0,0,.492-.493v-4.6A2.7,2.7,0,0,0,1098.043,453.09Z" transform="translate(-1033.218 -428.071)" fill="#111"/>
      <path id="Trazado_152" data-name="Trazado 152" d="M564.777,453.09a3.056,3.056,0,0,0-2.683,1.35v-.78a.493.493,0,0,0-.493-.493h-.819a.492.492,0,0,0-.492.493V464a.492.492,0,0,0,.492.493h.819a.493.493,0,0,0,.493-.493v-4.058a3.192,3.192,0,0,0,2.683,1.352,3.766,3.766,0,0,0,3.653-4.085v-.03A3.765,3.765,0,0,0,564.777,453.09ZM566.6,457.2a2.34,2.34,0,0,1-2.212,2.521,2.245,2.245,0,0,1-2.129-2.521v-.03a2.269,2.269,0,0,1,2.129-2.518,2.338,2.338,0,0,1,2.212,2.518Z" transform="translate(-529.293 -428.156)" fill="#111"/>
      <path id="Trazado_153" data-name="Trazado 153" d="M170.548,459.966h0a.345.345,0,0,1-.345-.345v-5.913a.493.493,0,0,0-.493-.493h-.822a.492.492,0,0,0-.492.493v.783a3.057,3.057,0,0,0-2.684-1.35,3.766,3.766,0,0,0-3.653,4.085v.03a3.766,3.766,0,0,0,3.653,4.085,2.985,2.985,0,0,0,2.713-1.352,1.73,1.73,0,0,0,1.664,1.256h.46a.345.345,0,0,0,.345-.345v-.586a.345.345,0,0,0-.348-.348Zm-2.312-2.715a2.34,2.34,0,0,1-2.212,2.521,2.245,2.245,0,0,1-2.129-2.521v-.03a2.269,2.269,0,0,1,2.129-2.518,2.338,2.338,0,0,1,2.212,2.518Z" transform="translate(-152.745 -428.12)" fill="#111"/>
      <path id="Trazado_154" data-name="Trazado 154" d="M723.618,459.966h0a.345.345,0,0,1-.345-.345v-5.913a.492.492,0,0,0-.492-.493h-.822a.492.492,0,0,0-.492.493v.783a3.057,3.057,0,0,0-2.684-1.35,3.766,3.766,0,0,0-3.652,4.085v.03a3.766,3.766,0,0,0,3.652,4.085,2.986,2.986,0,0,0,2.714-1.352,1.73,1.73,0,0,0,1.664,1.256h.46a.345.345,0,0,0,.345-.345v-.586a.345.345,0,0,0-.348-.348Zm-2.313-2.715a2.34,2.34,0,0,1-2.212,2.521,2.245,2.245,0,0,1-2.129-2.521v-.03a2.269,2.269,0,0,1,2.129-2.518,2.338,2.338,0,0,1,2.212,2.518Z" transform="translate(-675.582 -428.12)" fill="#111"/>
      <path id="Trazado_155" data-name="Trazado 155" d="M668.461,699.54c-.6,0-1.071.13-1.071.69v.544c0,.558.466.7,1.071.7s1.071-.145,1.071-.7v-.547C669.529,699.67,669.064,699.54,668.461,699.54Z" transform="translate(-630.336 -660.709)" fill="#111"/>
      <path id="Trazado_156" data-name="Trazado 156" d="M671.145,752.25h-.853a.512.512,0,0,0-.512.512v7.331a.513.513,0,0,0,.512.513h.853a.512.512,0,0,0,.511-.513v-7.331a.511.511,0,0,0-.511-.512Z" transform="translate(-632.588 -710.721)" fill="#111"/>
      <path id="Trazado_157" data-name="Trazado 157" d="M523.555,750.89a2.955,2.955,0,0,0-2.56,1.405v-.815a.512.512,0,0,0-.512-.511h-.852a.512.512,0,0,0-.511.511v7.331a.512.512,0,0,0,.511.513h.852a.535.535,0,0,0,.512-.59V754.32a1.8,1.8,0,1,1,3.6,0v4.488a.512.512,0,0,0,.511.513h.854a.513.513,0,0,0,.512-.513v-4.784A2.81,2.81,0,0,0,523.555,750.89Z" transform="translate(-490.387 -709.439)" fill="#111"/>
      <path id="Trazado_158" data-name="Trazado 158" d="M991.7,750.985c-.023-.01-.042-.017-.054-.021l-.066-.016a2.466,2.466,0,0,0-2.762,1.338v-.806a.512.512,0,0,0-.512-.512h-.854a.513.513,0,0,0-.512.512v7.329a.513.513,0,0,0,.512.512h.853a.513.513,0,0,0,.512-.512v-3.1c0-2.506,1.308-2.956,2.063-2.9.148.012.278.032.388.047l.063.006h.032a.363.363,0,0,0,.355-.288l.189-1.208a.349.349,0,0,0,0-.058A.362.362,0,0,0,991.7,750.985Z" transform="translate(-932.526 -709.438)" fill="#111"/>
      <path id="Trazado_159" data-name="Trazado 159" d="M355.609,750.89a4.243,4.243,0,0,0-4.359,4.251v.04a4.36,4.36,0,0,0,8.718,0v-.04A4.244,4.244,0,0,0,355.609,750.89Zm2.454,4.271v.026a2.458,2.458,0,1,1-4.908,0v-.052a2.458,2.458,0,1,1,4.908,0Z" transform="translate(-331.829 -709.439)" fill="#111"/>
      <path id="Trazado_160" data-name="Trazado 160" d="M822.869,750.89a4.243,4.243,0,0,0-4.359,4.251v.04a4.36,4.36,0,0,0,8.717,0v-.04A4.24,4.24,0,0,0,822.869,750.89Zm2.454,4.271v.026a2.458,2.458,0,1,1-4.908,0v-.052a2.458,2.458,0,1,1,4.908,0Z" transform="translate(-773.24 -709.439)" fill="#111"/>
      <path id="Trazado_161" data-name="Trazado 161" d="M160.029,706.28h-.856a.514.514,0,0,0-.41.206l-3.528,4.819-3.528-4.819a.514.514,0,0,0-.41-.206h-.856a.513.513,0,0,0-.512.513v9.975a.513.513,0,0,0,.512.513h.853a.513.513,0,0,0,.512-.513v-6.919l3.116,4,.007.009.025.032h0a.369.369,0,0,0,.557,0h0l.025-.032.007-.009,3.116-4v6.919a.513.513,0,0,0,.512.513h.854a.513.513,0,0,0,.512-.513v-9.975A.513.513,0,0,0,160.029,706.28Z" transform="translate(-141.313 -667.396)" fill="#111"/>
      <path id="Trazado_162" data-name="Trazado 162" d="M242.131,840.67h0Z" transform="translate(-228.207 -794.053)" fill="#111"/>
      <path id="Trazado_163" data-name="Trazado 163" d="M724.1,708.916h-1.784V706.63h0a.362.362,0,0,0-.57-.293h0l-.89.625a.952.952,0,0,0-.416.788v1.166h-.606a.513.513,0,0,0-.513.512v.528a.513.513,0,0,0,.513.512h.6v4.508a2.1,2.1,0,0,0,2.359,2.4,4.88,4.88,0,0,0,1.485-.283.3.3,0,0,0,.19-.373c-.022-.1-.149-.806-.149-.806-.032-.173-.1-.308-.345-.271a3.969,3.969,0,0,1-.652.058.893.893,0,0,1-1.008-1.024v-4.212H724.1a.511.511,0,0,0,.512-.512v-.528a.512.512,0,0,0-.516-.512Z" transform="translate(-679.453 -667.388)" fill="#111"/>
      <path id="Trazado_164" data-name="Trazado 164" d="M425,.408a.921.921,0,0,0-1.284-.226L401.1,16.015a.921.921,0,0,0,.754.392h22.389a.921.921,0,0,0,.921-.921V.921A.921.921,0,0,0,425,.408" transform="translate(-379.218 -0.021)" fill="#111"/>
      <path id="Trazado_165" data-name="Trazado 165" d="M399.681.16A.921.921,0,0,0,398.23.9V15.492L409,6.674Z" transform="translate(-376.24 0)" fill="#111"/>
    </g>
  </g>
</svg>
