<svg xmlns="http://www.w3.org/2000/svg" xmlns:xlink="http://www.w3.org/1999/xlink" width="80" height="60" viewBox="0 0 80 60">
  <defs>
    <clipPath id="clip-icon-woocommerce">
      <rect width="80" height="60"/>
    </clipPath>
  </defs>
  <g id="icon-woocommerce" clip-path="url(#clip-icon-woocommerce)">
    <g id="Grupo_11" data-name="Grupo 11" transform="translate(-40.172 9.204)">
      <g id="Grupo_12" data-name="Grupo 12" transform="translate(44.781 1.773)">
        <path id="Trazado_215" data-name="Trazado 215" d="M17.65,19.773H48.14a3.49,3.49,0,0,1,3.491,3.491V34.9a3.49,3.49,0,0,1-3.491,3.491H37.2l1.5,3.676-6.6-3.676H17.664A3.49,3.49,0,0,1,14.173,34.9V23.264A3.478,3.478,0,0,1,17.65,19.773Z" transform="translate(-14.173 -19.773)" fill="#111" fill-rule="evenodd"/>
        <path id="Trazado_216" data-name="Trazado 216" d="M15.67,22.471A1.229,1.229,0,0,1,16.634,22a1.118,1.118,0,0,1,1.333,1.1q.712,4.8,1.546,8.132l3.354-6.386a1.455,1.455,0,0,1,1.148-.919c.675-.046,1.087.384,1.256,1.287a28.5,28.5,0,0,0,1.455,5.237q.6-5.834,2.021-8.422a1.175,1.175,0,0,1,1.012-.674,1.327,1.327,0,0,1,.964.306,1.2,1.2,0,0,1,.476.874,1.34,1.34,0,0,1-.153.735,18.549,18.549,0,0,0-1.485,5.528,28.445,28.445,0,0,0-.429,5.835,1.817,1.817,0,0,1-.185,1.01.986.986,0,0,1-.811.553,1.541,1.541,0,0,1-1.209-.567A15.166,15.166,0,0,1,23.541,29.1q-1.492,2.939-2.205,4.41c-.9,1.731-1.668,2.619-2.312,2.666-.414.03-.766-.322-1.071-1.057q-1.172-3.01-2.527-11.623A1.362,1.362,0,0,1,15.67,22.471Z" transform="translate(-13.801 -19.3)" fill="#fff"/>
        <path id="Trazado_217" data-name="Trazado 217" d="M42.794,24.492a3.529,3.529,0,0,0-2.45-1.778,4.031,4.031,0,0,0-.827-.091,4.132,4.132,0,0,0-3.6,2.3,8.118,8.118,0,0,0-1.194,4.318,5.929,5.929,0,0,0,.735,3.032,3.527,3.527,0,0,0,2.45,1.776,4.036,4.036,0,0,0,.827.092,4.1,4.1,0,0,0,3.6-2.3,8.2,8.2,0,0,0,1.194-4.333,5.788,5.788,0,0,0-.735-3.017Zm-1.93,4.242A4.053,4.053,0,0,1,39.7,31a1.472,1.472,0,0,1-1.241.489c-.368-.077-.674-.4-.9-.995a3.9,3.9,0,0,1-.276-1.394,5.3,5.3,0,0,1,.108-1.117A4.957,4.957,0,0,1,38.2,26.16c.5-.75,1.042-1.056,1.593-.949.367.077.674.4.9,1a3.868,3.868,0,0,1,.277,1.393,6.645,6.645,0,0,1-.108,1.134Z" transform="translate(-8 -18.917)" fill="#fff"/>
        <path id="Trazado_218" data-name="Trazado 218" d="M35.41,24.492a3.561,3.561,0,0,0-2.45-1.778,4.031,4.031,0,0,0-.827-.091,4.132,4.132,0,0,0-3.6,2.3,8.118,8.118,0,0,0-1.194,4.318,5.929,5.929,0,0,0,.735,3.032,3.527,3.527,0,0,0,2.45,1.776,4.036,4.036,0,0,0,.827.092,4.1,4.1,0,0,0,3.6-2.3,8.2,8.2,0,0,0,1.194-4.333,5.788,5.788,0,0,0-.735-3.017Zm-1.93,4.242A4.053,4.053,0,0,1,32.316,31a1.473,1.473,0,0,1-1.241.489c-.367-.077-.674-.4-.9-.995A3.9,3.9,0,0,1,29.9,29.1,5.3,5.3,0,0,1,30,27.983a4.957,4.957,0,0,1,.811-1.823c.5-.75,1.042-1.056,1.593-.949.367.077.674.4.9,1a3.868,3.868,0,0,1,.277,1.393,5.372,5.372,0,0,1-.108,1.134Z" transform="translate(-10.218 -18.917)" fill="#fff"/>
      </g>
      <g id="Grupo_10" data-name="Grupo 10" transform="translate(44.781 28.839)">
        <g id="Grupo_9" data-name="Grupo 9">
          <path id="Trazado_219" data-name="Trazado 219" d="M46.313,24.3a5.174,5.174,0,0,0-1.532,3.858A5.545,5.545,0,0,0,46.3,32.221a5.317,5.317,0,0,0,3.966,1.546,5.751,5.751,0,0,0,1.593-.244V31.041a5.147,5.147,0,0,1-1.394.23,2.51,2.51,0,0,1-1.945-.811,3.216,3.216,0,0,1-.735-2.221,3.185,3.185,0,0,1,.72-2.144,2.293,2.293,0,0,1,1.822-.841,5.76,5.76,0,0,1,1.532.229V23a6.348,6.348,0,0,0-1.67-.2A5.215,5.215,0,0,0,46.313,24.3Zm10.627-1.516A4.118,4.118,0,0,0,53.633,24.2a5.887,5.887,0,0,0-1.179,3.936,6.5,6.5,0,0,0,1.179,4.181,4.164,4.164,0,0,0,3.43,1.454,4.07,4.07,0,0,0,3.354-1.454A6.332,6.332,0,0,0,61.6,28.239,6.125,6.125,0,0,0,60.4,24.2,4.336,4.336,0,0,0,56.939,22.788Zm1.211,7.963a1.362,1.362,0,0,1-1.211.642,1.232,1.232,0,0,1-1.117-.642,5.678,5.678,0,0,1-.384-2.589c0-2.005.506-3,1.532-3,1.071,0,1.623,1.01,1.623,3.048A5.364,5.364,0,0,1,58.15,30.751Zm11.01-7.673-.551,2.343c-.138.6-.276,1.211-.4,1.837l-.306,1.624c-.291-1.624-.689-3.553-1.2-5.8H63.158L61.825,33.507h2.664l.72-7.182,1.822,7.182h1.9l1.745-7.166.75,7.166h2.788l-1.41-10.429Zm12.757,0-.551,2.343c-.138.6-.276,1.211-.4,1.837l-.306,1.624c-.291-1.624-.689-3.553-1.2-5.8H75.914L74.581,33.507h2.664l.72-7.182,1.822,7.182h1.9l1.729-7.166.75,7.166h2.788l-1.41-10.429Zm8.668,6.309h2.5V27.229h-2.5V25.315h2.879V23.094h-5.7V33.522h5.712V31.3H90.585Zm10.827-1.653a2.789,2.789,0,0,0,.445-1.471,2.745,2.745,0,0,0-1.15-2.328,5.191,5.191,0,0,0-3.139-.858H94.291V33.507h2.818V28.761h.046l2.282,4.746h2.97l-2.251-4.7A2.792,2.792,0,0,0,101.412,27.735Zm-4.318-.169V25.084a2.578,2.578,0,0,1,1.439.337,1.191,1.191,0,0,1,.429,1.042C98.962,27.183,98.334,27.55,97.093,27.566Zm6.416-3.261a5.178,5.178,0,0,0-1.531,3.858,5.545,5.545,0,0,0,1.516,4.058,5.317,5.317,0,0,0,3.966,1.546,5.751,5.751,0,0,0,1.593-.244V31.041a5.155,5.155,0,0,1-1.394.23,2.51,2.51,0,0,1-1.945-.811,3.21,3.21,0,0,1-.735-2.221,3.184,3.184,0,0,1,.719-2.144,2.3,2.3,0,0,1,1.823-.841,5.76,5.76,0,0,1,1.532.229V23a6.348,6.348,0,0,0-1.67-.2A5.241,5.241,0,0,0,103.509,24.3Zm9.143,6.967v-1.9h2.5v-2.16h-2.5V25.3h2.895V23.078h-5.7V33.507h5.712v-2.22h-2.91Z" transform="translate(-44.781 -22.788)" fill="#111"/>
        </g>
      </g>
    </g>
  </g>
</svg>
