<svg xmlns="http://www.w3.org/2000/svg" xmlns:xlink="http://www.w3.org/1999/xlink" width="80" height="60" viewBox="0 0 80 60">
  <defs>
    <clipPath id="clip-icon-sass">
      <rect width="80" height="60"/>
    </clipPath>
  </defs>
  <g id="icon-sass" clip-path="url(#clip-icon-sass)">
    <path id="Sass_Logo_Color" d="M57.384,28.717a13.8,13.8,0,0,0-6.04,1.4,12.729,12.729,0,0,1-1.352-3.13,8.4,8.4,0,0,1-.122-2.63,23.362,23.362,0,0,1,.792-2.837c-.012-.122-.146-.694-1.486-.706s-2.5.256-2.63.609a14.7,14.7,0,0,0-.56,1.985c-.231,1.218-2.679,5.565-4.08,7.843a8.46,8.46,0,0,1-.926-2.289,8.4,8.4,0,0,1-.122-2.63,23.363,23.363,0,0,1,.792-2.837c-.012-.122-.146-.694-1.486-.706s-2.5.256-2.63.609-.28,1.181-.56,1.985-3.532,8.062-4.384,9.937c-.438.962-.816,1.729-1.084,2.253h0a.555.555,0,0,1-.049.1c-.231.451-.365.694-.365.694v.012c-.183.329-.378.633-.475.633a4.075,4.075,0,0,1,.024-2.07c.487-2.521,1.644-6.442,1.632-6.576,0-.073.219-.755-.755-1.108a1.209,1.209,0,0,0-1.376.231c-.085,0-.146.207-.146.207s1.059-4.408-2.022-4.408c-1.924,0-4.579,2.107-5.894,4.007-.828.451-2.594,1.413-4.481,2.448-.718.4-1.461.8-2.155,1.181-.049-.049-.1-.11-.146-.158C11.57,28.778,4.678,25.964,4.97,20.618c.11-1.948.779-7.063,13.237-13.274C28.461,2.291,36.62,3.691,38.033,6.8c2.022,4.433-4.372,12.665-14.967,13.858-4.043.451-6.162-1.108-6.7-1.693-.56-.609-.645-.645-.852-.524-.341.183-.122.731,0,1.047a6.254,6.254,0,0,0,3.824,3.008c1.948.633,6.686.986,12.421-1.23C38.179,18.78,43.2,11.875,41.723,6.09,40.249.22,30.507-1.716,21.288,1.56c-5.48,1.948-11.423,5.017-15.7,9.012C.513,15.321-.291,19.449.038,21.179c1.181,6.138,9.645,10.132,13.03,13.091-.17.1-.329.183-.463.256-1.693.84-8.147,4.214-9.754,7.782-1.827,4.043.292,6.941,1.693,7.331A10.415,10.415,0,0,0,15.76,45.1a11.25,11.25,0,0,0,1-10.363.255.255,0,0,0-.049-.073c.438-.256.889-.524,1.327-.779.865-.511,1.717-.986,2.448-1.376a16.05,16.05,0,0,0-.865,4.433c-.183,2.289.755,5.261,1.985,6.43a2.193,2.193,0,0,0,1.607.524c1.437,0,2.082-1.193,2.8-2.606.877-1.729,1.668-3.739,1.668-3.739s-.986,5.431,1.693,5.431c.974,0,1.961-1.266,2.4-1.912v.012s.024-.037.073-.122L32,40.7v-.024c.39-.682,1.267-2.229,2.57-4.8,1.681-3.312,3.3-7.453,3.3-7.453a21.165,21.165,0,0,0,.645,2.691,25.342,25.342,0,0,0,1.388,3.118c-.39.548-.633.852-.633.852l.012.012c-.317.414-.658.865-1.035,1.3a38.817,38.817,0,0,0-3.13,3.921,1.064,1.064,0,0,0,.292,1.437,2.657,2.657,0,0,0,1.632.268,7.494,7.494,0,0,0,2.448-.56A8.215,8.215,0,0,0,41.6,40.359a4.715,4.715,0,0,0,2.022-4.153,8.384,8.384,0,0,0-.767-2.935c.122-.17.231-.341.353-.511a55.784,55.784,0,0,0,3.653-6.308,21.165,21.165,0,0,0,.645,2.691,18.026,18.026,0,0,0,1.181,2.679,11.575,11.575,0,0,0-3.556,4.591c-.767,2.216-.17,3.215.962,3.446a3.394,3.394,0,0,0,1.778-.365,8.1,8.1,0,0,0,2.253-1.157c1.3-.962,2.557-2.3,2.484-4.116a7.781,7.781,0,0,0-.56-2.436,12.754,12.754,0,0,1,6.466-.743c5.8.682,6.941,4.3,6.722,5.821A3.852,3.852,0,0,1,63.4,39.47c-.4.256-.536.341-.5.524.049.268.244.256.585.207a4.527,4.527,0,0,0,3.154-4.031C66.821,32.589,63.412,28.68,57.384,28.717ZM12.666,43.793c-1.924,2.095-4.6,2.886-5.76,2.216-1.242-.718-.755-3.812,1.607-6.028a30.679,30.679,0,0,1,4.518-3.373c.28-.17.694-.414,1.193-.718.085-.049.134-.073.134-.073h0l.292-.183A8.318,8.318,0,0,1,12.666,43.793Zm14-9.523C26,35.9,24.6,40.079,23.748,39.847c-.731-.195-1.181-3.361-.146-6.491a14.746,14.746,0,0,1,2.277-4.177c1.047-1.169,2.2-1.559,2.484-1.084C28.717,28.717,27.085,33.247,26.671,34.27ZM38.228,39.8c-.28.146-.548.244-.67.17-.085-.049.122-.244.122-.244s1.449-1.559,2.022-2.265c.329-.414.718-.9,1.133-1.449v.158C40.834,38.033,39.031,39.287,38.228,39.8Zm8.914-2.034c-.207-.146-.17-.633.524-2.155a8.114,8.114,0,0,1,1.985-2.557,3.448,3.448,0,0,1,.195,1.12A3.684,3.684,0,0,1,47.142,37.765Z" transform="translate(6.69 5.026)" fill="#111"/>
  </g>
</svg>
