<svg xmlns="http://www.w3.org/2000/svg" xmlns:xlink="http://www.w3.org/1999/xlink" width="60" height="60" viewBox="0 0 60 60">
  <defs>
    <clipPath id="clip-icon-wordpress">
      <rect width="60" height="60"/>
    </clipPath>
  </defs>
  <g id="icon-wordpress" clip-path="url(#clip-icon-wordpress)">
    <path id="Icon_awesome-wordpress" data-name="Icon awesome-wordpress" d="M5.976,16.833,16.208,44.857A21.45,21.45,0,0,1,5.976,16.833Zm34.063,7.651a11.309,11.309,0,0,0-1.764-5.917c-1.089-1.764-2.107-3.266-2.107-5.03a3.712,3.712,0,0,1,3.6-3.81c.091,0,.181.01.282.02A21.444,21.444,0,0,0,7.639,13.778c.5.02.978.03,1.381.03,2.238,0,5.716-.272,5.716-.272a.885.885,0,0,1,.141,1.764s-1.159.131-2.45.2L20.24,38.728l4.7-14.073L21.6,15.5c-1.159-.071-2.248-.2-2.248-.2a.885.885,0,0,1,.131-1.764s3.538.272,5.645.272c2.238,0,5.716-.272,5.716-.272a.885.885,0,0,1,.141,1.764s-1.159.131-2.45.2l7.752,23.054,2.137-7.147C39.333,28.446,40.038,26.319,40.038,24.484Zm-14.1,2.954L19.5,46.137a21.369,21.369,0,0,0,13.175-.343,1.607,1.607,0,0,1-.151-.292L25.935,27.437ZM44.383,15.27a16.708,16.708,0,0,1,.141,2.208,20.147,20.147,0,0,1-1.633,7.681L36.339,44.1A21.467,21.467,0,0,0,44.383,15.27Zm6.179,10.292a25,25,0,1,1-25-25A25.028,25.028,0,0,1,50.563,25.563Zm-1.149,0A23.851,23.851,0,1,0,25.563,49.413,23.879,23.879,0,0,0,49.413,25.563Z" transform="translate(4.438 4.438)" fill="#111"/>
  </g>
</svg>
