<svg xmlns="http://www.w3.org/2000/svg" xmlns:xlink="http://www.w3.org/1999/xlink" width="60" height="60" viewBox="0 0 60 60">
  <defs>
    <clipPath id="clip-icon-mailchimp">
      <rect width="60" height="60"/>
    </clipPath>
  </defs>
  <g id="icon-mailchimp" clip-path="url(#clip-icon-mailchimp)">
    <g id="mailchimp-seeklogo.com" transform="translate(-449.806 -2.591)">
      <g id="Grupo_3" data-name="Grupo 3" transform="translate(457.375 49.512)">
        <path id="Trazado_189" data-name="Trazado 189" d="M255.927,193.436c-.444.1-.673-.034-.673-.328,0-.4.416-.564,1.011-.564.262,0,.508.023.508.023A1.319,1.319,0,0,1,255.927,193.436Zm.451-4.03a5.842,5.842,0,0,0-2.439.522v1.535a5.068,5.068,0,0,1,2.038-.647c.728,0,.818.393.785.719a3.984,3.984,0,0,0-.851-.056c-1.511,0-2.274.687-2.274,1.788a1.476,1.476,0,0,0,1.579,1.481,1.737,1.737,0,0,0,1.659-1.044c.1-.233.117-.39.206-.39s.067.113.062.345a3.751,3.751,0,0,0,.075.972h1.4v-2.514c0-1.569-.555-2.711-2.238-2.711" transform="translate(-245.539 -187.926)" fill="#111" fill-rule="evenodd"/>
        <path id="Trazado_190" data-name="Trazado 190" d="M231.006,185.763c0-.459.427-.877,1.21-.877a3.4,3.4,0,0,1,1.694.5v-1.777a2.777,2.777,0,0,0-1.876-.522,2.4,2.4,0,0,0-2.576,2.592,2.475,2.475,0,0,0,2.572,2.751,2.936,2.936,0,0,0,1.882-.648V186.1a3.247,3.247,0,0,1-1.689.555c-.9,0-1.219-.412-1.219-.891Zm-18.677-2.555a2.121,2.121,0,0,1-.028.882c-.06.254-.17.47-.037.47.091,0,.092-.076.211-.348a1.573,1.573,0,0,1,1.4-1.122,1.277,1.277,0,0,1,1.326.959c.1.352.012.511.13.511.084,0,.113-.183.216-.414a1.569,1.569,0,0,1,1.4-1.056c1.231,0,1.7.889,1.7,2.222v3h-1.828v-2.77c0-.462-.075-.91-.5-.91-.39,0-.572.691-.572,1.137v2.543h-1.862v-2.77c0-.591-.083-.91-.5-.91-.359,0-.569.636-.569,1.137v2.542H210.97v-5.109h1.359Zm12.327.007a1.99,1.99,0,0,0,.929.182,1.961,1.961,0,0,0,.925-.182v5.1h-1.854Zm15.31,0a1.99,1.99,0,0,0,.929.182,1.962,1.962,0,0,0,.925-.182v5.1h-1.855Zm-11-1.554v6.656H227.11v-6.656Zm7.15,0a2.374,2.374,0,0,1,.077.761,6.011,6.011,0,0,1-.269,1.785c-.046.138-.127.351-.01.355.068,0,.108-.1.191-.276a1.78,1.78,0,0,1,1.564-1.194c1.479,0,1.7,1.211,1.7,2.522v2.7h-1.855V185.5c0-.577-.121-.864-.508-.864-.467,0-.632.723-.632,1.138v2.542h-1.855V181.66h1.6Zm7.691,1.547a2.121,2.121,0,0,1-.028.882c-.06.254-.17.47-.037.47.091,0,.092-.076.211-.348a1.573,1.573,0,0,1,1.4-1.122,1.256,1.256,0,0,1,1.326.959c.091.309.012.511.13.511.084,0,.113-.183.216-.414a1.568,1.568,0,0,1,1.4-1.056c1.231,0,1.7.889,1.7,2.222v3H248.3v-2.77c0-.462-.075-.91-.5-.91-.39,0-.572.691-.572,1.137v2.543h-1.862v-2.77c0-.591-.083-.91-.5-.91-.359,0-.569.636-.569,1.137v2.542h-1.855v-5.109H243.8Zm-18.228-1.6c-.627,0-1.135.332-1.135.741s.508.741,1.135.741,1.135-.332,1.135-.741S226.2,181.609,225.577,181.609Zm15.31,0c-.627,0-1.135.332-1.135.741s.508.741,1.135.741,1.135-.332,1.135-.741S241.514,181.609,240.887,181.609Z" transform="translate(-210.97 -181.609)" fill="#111" fill-rule="evenodd"/>
        <path id="Trazado_191" data-name="Trazado 191" d="M422.944,193.529c-.425,0-.738-.539-.738-1.291,0-.73.321-1.29.723-1.29.516,0,.736.473.736,1.29C423.665,193.089,423.463,193.529,422.944,193.529Zm.509-4.128a1.732,1.732,0,0,0-1.58,1.122c-.125.269-.119.348-.211.348-.132,0-.022-.216.037-.47a2.116,2.116,0,0,0,.028-.882H420.37v6.518h1.854V193.97a1.45,1.45,0,0,0,1.252.77c1.341,0,2.016-1.134,2.016-2.667,0-1.737-.808-2.672-2.038-2.672" transform="translate(-380.629 -187.922)" fill="#111" fill-rule="evenodd"/>
      </g>
      <g id="Grupo_5" data-name="Grupo 5" transform="translate(462.185 7.555)">
        <g id="Grupo_4" data-name="Grupo 4">
          <path id="Trazado_192" data-name="Trazado 192" d="M175.581,193.562a3.022,3.022,0,0,1,.775,0,2.649,2.649,0,0,0,.038-1.468c-.186-.89-.438-1.429-.958-1.345s-.539.729-.353,1.619a3.012,3.012,0,0,0,.5,1.194" transform="translate(-149.071 -175.887)" fill="#111" fill-rule="evenodd"/>
          <path id="Trazado_193" data-name="Trazado 193" d="M161.009,197.655c.372.163.6.272.69.177.058-.059.04-.172-.049-.317a2.189,2.189,0,0,0-.963-.775,2.624,2.624,0,0,0-2.552.306c-.249.182-.485.435-.451.589.011.049.048.087.135.1a15.87,15.87,0,0,1,1.749-.39,3.046,3.046,0,0,1,1.439.31" transform="translate(-138.965 -179.277)" fill="#111" fill-rule="evenodd"/>
          <path id="Trazado_194" data-name="Trazado 194" d="M162.256,200.234a1.756,1.756,0,0,0-.924.385.593.593,0,0,0-.236.369.113.113,0,0,0,.037.089.116.116,0,0,0,.08.03,1.482,1.482,0,0,0,.355-.1,3.092,3.092,0,0,1,1.561-.162c.244.027.359.042.412-.041a.138.138,0,0,0-.014-.155,1.41,1.41,0,0,0-1.27-.416" transform="translate(-140.96 -181.428)" fill="#111" fill-rule="evenodd"/>
          <path id="Trazado_195" data-name="Trazado 195" d="M172.215,202.677a.6.6,0,0,0,.81-.142c.118-.24-.053-.566-.382-.727a.6.6,0,0,0-.81.142c-.118.24.053.566.382.727" transform="translate(-147.213 -182.303)" fill="#111" fill-rule="evenodd"/>
          <path id="Trazado_196" data-name="Trazado 196" d="M177.2,199.576c-.267,0-.489.289-.5.656s.206.667.473.672.489-.289.5-.656-.206-.667-.473-.672" transform="translate(-150.081 -181.051)" fill="#111" fill-rule="evenodd"/>
          <path id="Trazado_197" data-name="Trazado 197" d="M128.673,209.526c-.066-.084-.176-.058-.282-.033a1.007,1.007,0,0,1-.249.035.541.541,0,0,1-.457-.232.848.848,0,0,1,.02-.785l.063-.143a2.321,2.321,0,0,0,.17-2.053,1.819,1.819,0,0,0-1.393-1.013,1.79,1.79,0,0,0-1.534.553,2.206,2.206,0,0,0-.57,1.854c.042.115.108.147.155.153.1.013.249-.06.342-.31l.027-.081a2.462,2.462,0,0,1,.246-.577,1.052,1.052,0,0,1,.67-.463,1.073,1.073,0,0,1,.819.153,1.048,1.048,0,0,1,.4,1.263,2.947,2.947,0,0,0-.207,1.123,1.115,1.115,0,0,0,1,1.151.852.852,0,0,0,.8-.4.171.171,0,0,0-.017-.194" transform="translate(-119.515 -184.389)" fill="#111" fill-rule="evenodd"/>
          <path id="Trazado_198" data-name="Trazado 198" d="M125.873,165.5a16.589,16.589,0,0,1,4.655-3.8.061.061,0,0,1,.081.083,4.484,4.484,0,0,0-.432,1.055.063.063,0,0,0,.1.066,9.066,9.066,0,0,1,4.086-1.443.064.064,0,0,1,.043.115,3.474,3.474,0,0,0-.643.645.062.062,0,0,0,.049.1,8.006,8.006,0,0,1,3.416.9c.064.036.018.159-.053.143a13.9,13.9,0,0,0-6.188.017,14.219,14.219,0,0,0-5.025,2.221.063.063,0,0,1-.085-.093Zm6.954,15.631h0v0Zm5.758.679a.112.112,0,0,0,.065-.111.1.1,0,0,0-.115-.094,13.322,13.322,0,0,1-5.794-.589c.307-1,1.122-.637,2.354-.537a17.208,17.208,0,0,0,5.683-.614,13.019,13.019,0,0,0,4.249-2.114,8.569,8.569,0,0,1,.593,2.024.989.989,0,0,1,.623.114c.268.165.465.508.33,1.395a7.723,7.723,0,0,1-2.161,4.239,8.912,8.912,0,0,1-2.6,1.94,10.913,10.913,0,0,1-1.7.716c-4.462,1.457-9.029-.145-10.5-3.585a5.484,5.484,0,0,1-.3-.812,7.135,7.135,0,0,1,1.57-6.7h0a.606.606,0,0,0,.207-.4.707.707,0,0,0-.16-.379c-.583-.845-2.6-2.285-2.2-5.071a3.8,3.8,0,0,1,3.673-3.328l.414.024c.707.042,1.324.133,1.906.157a3.811,3.811,0,0,0,2.889-.964,2.235,2.235,0,0,1,1.106-.625,1.341,1.341,0,0,1,.422-.042,1.4,1.4,0,0,1,.711.227c.832.554.95,1.895.993,2.876.025.56.092,1.915.116,2.3.053.889.287,1.014.76,1.17.266.088.513.153.877.255a4.947,4.947,0,0,1,2.166,1.026,1.362,1.362,0,0,1,.4.775c.13.948-.736,2.118-3.027,3.181a15.378,15.378,0,0,1-7.642,1.223l-.736-.083c-1.679-.226-2.637,1.944-1.629,3.431.65.958,2.419,1.582,4.189,1.582,4.058,0,7.178-1.733,8.338-3.229l.093-.132c.057-.086.01-.133-.061-.085-.948.649-5.159,3.224-9.663,2.449a6.024,6.024,0,0,1-1.047-.284,1.88,1.88,0,0,1-1.329-1.389,8.783,8.783,0,0,0,5.923.062Zm-19.965-8.638a4.84,4.84,0,0,0-3.06,1.952,8.314,8.314,0,0,1-1.3-1.253c-1.088-2.065,1.187-6.081,2.776-8.349,3.927-5.6,10.078-9.846,12.925-9.077a11.177,11.177,0,0,1,2,1.908,40.1,40.1,0,0,0-5.486,3.781,24.9,24.9,0,0,0-7.853,11.038Zm2.124,9.478a3,3,0,0,1-.583.041A4.542,4.542,0,0,1,116,178.9a3.752,3.752,0,0,1,2.952-4.382,3.444,3.444,0,0,1,.852-.061c1.138.062,2.814.936,3.2,3.415.339,2.2-.2,4.43-2.258,4.781Zm25.765-3.975c-.016-.058-.123-.445-.268-.913a7.362,7.362,0,0,0-.3-.8,2.884,2.884,0,0,0,.517-2.1,2.663,2.663,0,0,0-.773-1.5,6.29,6.29,0,0,0-2.731-1.353l-.7-.193c0-.029-.037-1.64-.066-2.332a7.986,7.986,0,0,0-.307-2.05,5.49,5.49,0,0,0-1.42-2.535c1.733-1.8,2.815-3.775,2.812-5.473,0-3.264-4.014-4.252-8.955-2.206l-1.047.444s-1.893-1.857-1.921-1.882c-5.633-4.914-23.246,14.664-17.615,19.419l1.231,1.043a6.047,6.047,0,0,0-.342,2.793,5.5,5.5,0,0,0,1.9,3.532,5.781,5.781,0,0,0,3.729,1.5c2.191,5.05,7.2,8.148,13.069,8.322,6.3.187,11.584-2.768,13.8-8.076a11.128,11.128,0,0,0,.76-3.533c0-1.489-.842-2.106-1.378-2.106" transform="translate(-112.645 -155.001)" fill="#111" fill-rule="evenodd"/>
        </g>
      </g>
    </g>
  </g>
</svg>
