<?xml version="1.0" encoding="utf-8"?>
<!-- Generator: Adobe Illustrator 25.4.1, SVG Export Plug-In . SVG Version: 6.00 Build 0)  -->
<svg version="1.1" id="Capa_1" xmlns="http://www.w3.org/2000/svg" xmlns:xlink="http://www.w3.org/1999/xlink" x="0px" y="0px"
	 width="60px" height="60px" viewBox="0 0 60 60" style="enable-background:new 0 0 60 60;" xml:space="preserve">
<style type="text/css">
	.st0{clip-path:url(#SVGID_00000116918796146203485240000009407569490107176096_);fill-rule:evenodd;clip-rule:evenodd;}
</style>
<g>
	<defs>
		<rect id="SVGID_1_" y="0" width="60" height="60"/>
	</defs>
	<clipPath id="SVGID_00000122691180701608094600000016593629693743157435_">
		<use xlink:href="#SVGID_1_"  style="overflow:visible;"/>
	</clipPath>
	
		<path style="clip-path:url(#SVGID_00000122691180701608094600000016593629693743157435_);fill-rule:evenodd;clip-rule:evenodd;" d="
		M47.6,12.3C42.9,7.6,36.6,5.1,30,5.1C16.3,5.1,5.1,16.2,5.1,29.9c0,4.4,1.1,8.7,3.3,12.4L4.9,55.2l13.2-3.5c3.6,2,7.7,3,11.9,3h0
		c13.7,0,24.9-11.2,24.9-24.9C54.8,23.3,52.2,17,47.6,12.3z M30,50.6L30,50.6c-3.7,0-7.4-1-10.5-2.9l-0.8-0.4l-7.8,2.1l2.1-7.6
		l-0.5-0.8c-2.1-3.3-3.2-7.1-3.2-11C9.3,18.5,18.6,9.3,30,9.3c5.5,0,10.7,2.2,14.6,6.1s6,9.1,6,14.6C50.6,41.3,41.4,50.6,30,50.6z
		 M41.3,35.1c-0.6-0.3-3.7-1.8-4.2-2c-0.6-0.2-1-0.3-1.4,0.3c-0.4,0.6-1.6,2-2,2.4c-0.4,0.4-0.7,0.5-1.3,0.2c-0.6-0.3-2.6-1-5-3.1
		c-1.8-1.6-3.1-3.7-3.5-4.3c-0.4-0.6,0-0.9,0.3-1.3c0.7-0.8,1.3-1.7,1.6-2.1c0.2-0.4,0.1-0.8-0.1-1.1c-0.2-0.3-1.4-3.4-1.9-4.6
		c-0.5-1.2-1-1-1.4-1.1c-0.4,0-0.8,0-1.2,0c-0.4,0-1.1,0.2-1.7,0.8c-0.6,0.6-2.2,2.1-2.2,5.2s2.2,6,2.5,6.4s4.4,6.7,10.6,9.4
		c1.5,0.6,2.6,1,3.5,1.3c1.5,0.5,2.8,0.4,3.9,0.2c1.2-0.2,3.7-1.5,4.2-3c0.5-1.5,0.5-2.7,0.4-3C42.3,35.6,41.9,35.4,41.3,35.1z"/>
</g>
</svg>
