<svg xmlns="http://www.w3.org/2000/svg" xmlns:xlink="http://www.w3.org/1999/xlink" width="60" height="60" viewBox="0 0 60 60">
  <defs>
    <clipPath id="clip-icon-instagram">
      <rect width="60" height="60"/>
    </clipPath>
  </defs>
  <g id="icon-instagram" clip-path="url(#clip-icon-instagram)">
    <path id="Icon_awesome-instagram" data-name="Icon awesome-instagram" d="M25,14.418A12.819,12.819,0,1,0,37.817,27.238,12.8,12.8,0,0,0,25,14.418Zm0,21.154a8.334,8.334,0,1,1,8.332-8.334A8.348,8.348,0,0,1,25,35.572ZM41.33,13.894a2.989,2.989,0,1,1-2.989-2.99A2.983,2.983,0,0,1,41.33,13.894Zm8.489,3.035c-.19-4.005-1.1-7.553-4.038-10.476s-6.47-3.838-10.474-4.039c-4.127-.234-16.5-.234-20.625,0-3.993.19-7.54,1.1-10.474,4.028S.371,12.912.17,16.917c-.234,4.128-.234,16.5,0,20.629.19,4.005,1.1,7.553,4.038,10.476s6.47,3.838,10.474,4.039c4.127.234,16.5.234,20.625,0,4-.19,7.552-1.1,10.474-4.039s3.837-6.471,4.038-10.476c.234-4.128.234-16.49,0-20.618ZM44.487,41.976a8.437,8.437,0,0,1-4.752,4.753c-3.291,1.305-11.1,1-14.735,1s-11.456.29-14.735-1a8.437,8.437,0,0,1-4.752-4.753c-1.305-3.291-1-11.1-1-14.738s-.29-11.458,1-14.738a8.437,8.437,0,0,1,4.752-4.753c3.291-1.305,11.1-1,14.735-1s11.456-.29,14.735,1A8.437,8.437,0,0,1,44.487,12.5c1.305,3.291,1,11.1,1,14.738S45.792,38.7,44.487,41.976Z" transform="translate(5.005 2.763)" fill="#111"/>
  </g>
</svg>
