<svg xmlns="http://www.w3.org/2000/svg" xmlns:xlink="http://www.w3.org/1999/xlink" width="60" height="60" viewBox="0 0 60 60">
  <defs>
    <clipPath id="clip-icon-teamleader">
      <rect width="60" height="60"/>
    </clipPath>
  </defs>
  <g id="icon-teamleader" clip-path="url(#clip-icon-teamleader)">
    <g id="TL-logo-BW" transform="translate(-25.428 49.642)">
      <g id="Grupo_7" data-name="Grupo 7" transform="translate(30.945 -5.453)">
        <path id="Trazado_199" data-name="Trazado 199" d="M110.538,43.106a2.661,2.661,0,0,1,.423,1.663s-.013.228-.013.317h-3.28a1.2,1.2,0,0,0,.359.939,1.069,1.069,0,0,0,.73.292.939.939,0,0,0,.718-.228.88.88,0,0,0,.179-.279l.9.52.025.025a1.61,1.61,0,0,1-.154.216,2.151,2.151,0,0,1-1.666.673,2.2,2.2,0,0,1-1.563-.584,2.588,2.588,0,0,1-.756-1.916,2.654,2.654,0,0,1,.717-1.916,2.172,2.172,0,0,1,1.576-.609A2.124,2.124,0,0,1,110.538,43.106Zm-2.909,1.155h2.14a1.273,1.273,0,0,0-.295-.838,1.143,1.143,0,0,0-1.589.089A1.2,1.2,0,0,0,107.629,44.261Z" transform="translate(-81.097 -39.654)" fill-rule="evenodd"/>
        <path id="Trazado_200" data-name="Trazado 200" d="M37.016,43.106a2.66,2.66,0,0,1,.423,1.663,1.462,1.462,0,0,0,.013.317H34.146a1.2,1.2,0,0,0,.359.939,1.069,1.069,0,0,0,.73.292.939.939,0,0,0,.717-.228.878.878,0,0,0,.179-.279l.9.52.026.025a1.585,1.585,0,0,1-.154.216,2.151,2.151,0,0,1-1.666.673,2.2,2.2,0,0,1-1.563-.584,2.588,2.588,0,0,1-.756-1.916,2.654,2.654,0,0,1,.717-1.916,2.171,2.171,0,0,1,1.576-.609A2.123,2.123,0,0,1,37.016,43.106Zm-2.9,1.155h2.127a1.267,1.267,0,0,0-.282-.838,1.143,1.143,0,0,0-1.589.089A1.2,1.2,0,0,0,34.121,44.261Z" transform="translate(-28.406 -39.654)" fill-rule="evenodd"/>
        <path id="Trazado_201" data-name="Trazado 201" d="M164.934,43.106a2.66,2.66,0,0,1,.423,1.663,1.469,1.469,0,0,0,.013.317h-3.305a1.2,1.2,0,0,0,.359.939,1.068,1.068,0,0,0,.73.292.939.939,0,0,0,.717-.228.88.88,0,0,0,.179-.279l.9.52.026.025a1.587,1.587,0,0,1-.154.216,2.151,2.151,0,0,1-1.665.673,2.2,2.2,0,0,1-1.563-.584,2.588,2.588,0,0,1-.756-1.916,2.654,2.654,0,0,1,.717-1.916,2.171,2.171,0,0,1,1.576-.609A2.123,2.123,0,0,1,164.934,43.106Zm-2.908,1.155h2.14a1.208,1.208,0,0,0-.295-.838,1.143,1.143,0,0,0-1.589.089A1.2,1.2,0,0,0,162.025,44.261Z" transform="translate(-120.08 -39.654)" fill-rule="evenodd"/>
        <path id="Trazado_202" data-name="Trazado 202" d="M55.627,46.183v.85a1.273,1.273,0,0,1-.6.14.768.768,0,0,1-.833-.673,1.758,1.758,0,0,1-1.5.711,1.567,1.567,0,0,1-1.781-1.5c0-.914.743-1.434,1.678-1.536l1.448-.1v-.292c0-.444-.154-.749-.833-.749-.551,0-.871.241-.9.685H51.156c.064-1.066.948-1.548,2.05-1.548a1.792,1.792,0,0,1,1.858.977,2.487,2.487,0,0,1,.141.965v1.777c0,.216.064.3.269.3A1.081,1.081,0,0,0,55.627,46.183Zm-2.857.1c.743,0,1.268-.381,1.268-1.091v-.216l-1.256.089a.682.682,0,0,0-.717.622A.642.642,0,0,0,52.77,46.285Z" transform="translate(-41.304 -39.622)" fill-rule="evenodd"/>
        <path id="Trazado_203" data-name="Trazado 203" d="M77.17,43.893v3.236H75.991v-2.97c0-.584-.154-.926-.756-.926-.679,0-.974.685-.974,1.282v2.614H73.083v-2.97c0-.584-.154-.926-.756-.926-.666,0-.974.685-.974,1.282v2.614H70.175v-4.8h.987l.09.635a1.628,1.628,0,0,1,1.409-.749A1.478,1.478,0,0,1,74.082,43a1.629,1.629,0,0,1,1.486-.787A1.511,1.511,0,0,1,77.17,43.893Z" transform="translate(-55.108 -39.654)"/>
        <path id="Trazado_204" data-name="Trazado 204" d="M128.665,46.183v.85a1.016,1.016,0,0,1-.615.1.768.768,0,0,1-.833-.673,1.757,1.757,0,0,1-1.5.711,1.567,1.567,0,0,1-1.781-1.5c0-.914.743-1.434,1.678-1.5l1.448-.1v-.292c0-.444-.154-.749-.833-.749-.551,0-.871.241-.9.685H124.18c.064-1.066.948-1.548,2.05-1.548a1.792,1.792,0,0,1,1.858.977,2.488,2.488,0,0,1,.141.965v1.777c0,.216.077.3.282.3A1.081,1.081,0,0,0,128.665,46.183Zm-2.857.1c.743,0,1.268-.381,1.268-1.091v-.216l-1.256.089a.682.682,0,0,0-.717.622A.642.642,0,0,0,125.808,46.285Z" transform="translate(-93.637 -39.622)" fill-rule="evenodd"/>
        <path id="Trazado_205" data-name="Trazado 205" d="M182.526,42.467v1.1a1.589,1.589,0,0,0-.423-.038,1.215,1.215,0,0,0-1.268,1.345V47.29h-1.191V42.505h1.012l.1.723a1.427,1.427,0,0,1,1.4-.787,3.329,3.329,0,0,1,.34.022Z" transform="translate(-133.56 -39.815)"/>
        <path id="Trazado_206" data-name="Trazado 206" d="M98.435,33.855l1.14-.66.051-.025v6.041c0,.279.064.457.474.457a1.049,1.049,0,0,0,.134-.008.572.572,0,0,1,.071,0v.965l-.056.012a1.7,1.7,0,0,1-.469.052A1.173,1.173,0,0,1,98.435,39.4Z" transform="translate(-75.361 -33.17)"/>
        <path id="Trazado_207" data-name="Trazado 207" d="M145.347,36.175a1.705,1.705,0,0,0-1.281-.429,1.972,1.972,0,0,0-1.2.381,2.578,2.578,0,0,0-.884,2.132,2.5,2.5,0,0,0,.871,2.081,1.932,1.932,0,0,0,1.2.406,1.623,1.623,0,0,0,1.384-.635l.077.52h1.025V33.17l-1.191.685Zm-1.063,3.607c.935,0,1.127-.863,1.127-1.548s-.179-1.523-1.127-1.536a.962.962,0,0,0-.794.381,1.847,1.847,0,0,0-.307,1.155,1.908,1.908,0,0,0,.307,1.168A.961.961,0,0,0,144.284,39.782Z" transform="translate(-106.567 -33.17)" fill-rule="evenodd"/>
        <path id="Trazado_208" data-name="Trazado 208" d="M22.214,36.529v1.1h-2v5.419H19V37.633H17v-1.1Z" transform="translate(-17 -35.577)"/>
      </g>
      <g id="Grupo_6" data-name="Grupo 6" transform="translate(32.372 -41.42)">
        <path id="Trazado_209" data-name="Trazado 209" d="M203.571,49.791,194,35h9.571Z" transform="translate(-180.949 -19.339)"/>
        <path id="Trazado_210" data-name="Trazado 210" d="M201.621,31.791H179L201.621,17Z" transform="translate(-179 -17)"/>
        <path id="Trazado_211" data-name="Trazado 211" d="M206,17l13.846,21.4L206,47.452Z" transform="translate(-182.509 -17)"/>
        <path id="Trazado_212" data-name="Trazado 212" d="M222.242,40.261,230.29,35H218.838Z" transform="translate(-184.177 -19.339)"/>
      </g>
    </g>
  </g>
</svg>
