<svg xmlns="http://www.w3.org/2000/svg" xmlns:xlink="http://www.w3.org/1999/xlink" width="60" height="60" viewBox="0 0 60 60">
  <defs>
    <clipPath id="clip-icon-google">
      <rect width="60" height="60"/>
    </clipPath>
  </defs>
  <g id="icon-google" clip-path="url(#clip-icon-google)">
    <path id="Icon_ionic-logo-google" data-name="Icon ionic-logo-google" d="M53.362,24.529l-.257-1.07H29.392v9.846H43.558c-1.471,6.853-8.3,10.459-13.873,10.459A16.764,16.764,0,0,1,18.521,39.4a15.492,15.492,0,0,1-4.755-11.036A15.974,15.974,0,0,1,18.436,17.34a16.051,16.051,0,0,1,11.091-4.256,14.61,14.61,0,0,1,9.436,3.607L46.095,9.73a25.486,25.486,0,0,0-16.8-6.348h0a26.237,26.237,0,0,0-18.382,7.333,25.124,25.124,0,0,0-7.255,17.66,24.863,24.863,0,0,0,6.973,17.372,26.871,26.871,0,0,0,19.179,7.634,23.885,23.885,0,0,0,17.23-7.105,24.688,24.688,0,0,0,6.618-17.288A28.251,28.251,0,0,0,53.362,24.529Z" transform="translate(1.344 1.618)" fill="#111"/>
  </g>
</svg>
