<svg width="110" height="40" viewBox="0 0 110 40" fill="none" xmlns="http://www.w3.org/2000/svg">
<path opacity="0.6" d="M44.2 19.4998C46.4 19.3998 48.7 19.2998 51 19.2998C54.5 19.2998 51.1 19.2998 51.1 19.3998V28.2998H44.1V19.4998C44.1 19.4998 44.2 19.4998 44.2 19.4998ZM20.1 22.8998C22.2 22.2998 24.4 21.7998 26.8 21.3998C26.9 21.3998 26.9 21.3998 26.9 21.4998V24.5998H28.8C31.8 24.5998 33.7 23.2998 33.9 20.4998C33.9 20.3998 34 20.3998 34 20.3998C36.1 20.0998 38.4 19.8998 40.7 19.7998C40.7 19.7998 40.8 19.7998 40.8 19.8998C40.8 19.9998 40.8 20.0998 40.8 20.2998C40.8 22.7998 40 25.0998 38.5 26.2998C36.5 27.8998 34.7 28.4998 29.5 28.4998H20V22.9998C20 22.9998 20 22.8998 20.1 22.8998ZM70.7 20.3998C73.3 20.6998 75.8 21.1998 78.2 21.5998C78.3 21.5998 78.3 21.6998 78.4 21.7998L78.7 22.4998L78.9 21.8998C78.9 21.7998 79 21.7998 79 21.7998C81 22.1998 83 22.6998 84.8 23.2998C84.9 23.2998 84.9 23.3998 84.9 23.4998L82.7 28.3998H74L70.6 20.5998C70.6 20.4998 70.7 20.3998 70.7 20.3998ZM51.7 19.2998C54.4 19.2998 57.1 19.3998 59.7 19.4998C63.6 19.6998 59.7 19.5998 59.7 19.5998L66.9 28.3998H58.1L51.5 19.4998C51.6 19.2998 51.7 19.2998 51.7 19.2998Z" fill="white"/>
<path d="M20 22.9996V11.5996H28.5C33.4 11.5996 36.6 11.9996 38.9 14.3996C40.2 15.8996 40.9 17.7996 40.9 19.7996C38.5 19.9996 36.2 20.1996 34 20.3996C34 20.2996 34 20.0996 34 19.9996C34 16.8996 32.1 15.3996 28.9 15.3996H26.9V21.3996C24.4 21.8996 22.1 22.4996 20 22.9996ZM51.5 19.3996L57.5 11.5996H66.2L59.7 19.4996C57.1 19.4996 54.4 19.3996 51.5 19.3996ZM44.1 19.5996V11.6996H51.1V19.4996C48.7 19.3996 46.3 19.4996 44.1 19.5996ZM78.8 21.8996L82.8 11.5996H90L84.8 23.3996C82.9 22.8996 80.9 22.3996 78.8 21.8996ZM70.6 20.5996L66.7 11.6996H74.4L78.3 21.8996C75.9 21.2996 73.3 20.8996 70.6 20.5996Z" fill="white"/>
</svg>
