<svg width="110" height="40" viewBox="0 0 110 40" fill="none" xmlns="http://www.w3.org/2000/svg">
<path d="M66.1002 19.1998C65.6002 18.3998 65.2002 17.6998 64.8002 17.0998C65.1002 16.8998 65.4002 16.6998 65.6002 16.4998C65.8002 16.2998 66.0002 15.9998 66.1002 15.6998C66.2002 15.3998 66.3002 15.0998 66.4002 14.7998C66.5002 14.4998 66.5002 14.1998 66.5002 13.8998C66.5002 13.2998 66.4002 12.7998 66.2002 12.3998C66.0002 11.9998 65.7002 11.5998 65.4002 11.2998C65.0002 10.9998 64.6002 10.7998 64.1002 10.5998C63.6002 10.3998 63.1002 10.3998 62.5002 10.3998H58.5002V21.5998H60.2002V17.5998H63.0002C63.2002 17.8998 63.4002 18.1998 63.6002 18.4998C63.8002 18.7998 64.0002 19.1998 64.2002 19.4998C64.4002 19.7998 64.6002 20.1998 64.9002 20.4998C65.1002 20.7998 65.3002 21.1998 65.5002 21.4998H67.5002C67.1002 20.6998 66.6002 19.8998 66.1002 19.1998ZM64.4002 15.1998C64.2002 15.3998 64.0002 15.5998 63.7002 15.6998C63.4002 15.7998 63.1002 15.8998 62.7002 15.8998H60.2002V11.8998H62.7002C63.1002 11.8998 63.4002 11.9998 63.7002 12.0998C64.0002 12.1998 64.2002 12.3998 64.4002 12.5998C64.6002 12.7998 64.7002 12.9998 64.7002 13.1998C64.8002 13.3998 64.8002 13.5998 64.8002 13.7998C64.8002 13.9998 64.8002 14.1998 64.7002 14.3998C64.6002 14.6998 64.5002 14.9998 64.4002 15.1998ZM89.2002 10.2998V21.4998H88.7002L81.1002 13.8998V21.4998H79.4002V10.2998H80.0002L87.6002 17.8998V10.2998H89.2002V10.2998ZM51.6002 10.2998H51.1002L45.7002 21.4998H47.4002L49.0002 17.9998H53.7002L55.3002 21.3998H57.0002L51.6002 10.2998ZM49.7002 16.4998L51.3002 13.0998L52.9002 16.4998H49.7002ZM77.5002 19.8998V21.4998H69.3002V10.2998H77.2002V11.7998H71.0002V15.0998H76.6002V16.6998H71.0002V19.9998H77.5002V19.8998ZM96.6002 10.2998H96.1002L90.7002 21.4998H92.4002L94.0002 17.9998H98.7002L100.3 21.3998H102L96.6002 10.2998ZM94.7002 16.4998L96.3002 13.0998L97.9002 16.4998H94.7002Z" fill="white"/>
<path d="M55.9998 33.1992V30.3992H59.6998V29.6992H55.9998V26.8992H60.1998V26.1992H55.2998V33.7992H60.2998V33.0992H55.9998V33.1992Z" fill="white"/>
<path d="M67.9998 28.7988C67.8998 28.2988 67.5998 27.8988 67.2998 27.5988C66.9998 27.1988 66.4998 26.8988 65.9998 26.6988C65.4998 26.4988 64.7998 26.2988 64.0998 26.2988H62.2998V33.8988H64.3998C64.8998 33.8988 65.3998 33.7988 65.8998 33.5988C66.3998 33.3988 66.7998 33.1988 67.0998 32.7988C67.3998 32.4988 67.6998 32.0988 67.8998 31.5988C68.0998 31.0988 68.1998 30.5988 68.1998 29.9988C68.1998 29.6988 68.0998 29.1988 67.9998 28.7988ZM67.2998 31.3988C67.0998 31.7988 66.8998 32.0988 66.5998 32.3988C66.2998 32.6988 65.9998 32.8988 65.5998 32.9988C65.1998 33.0988 64.7998 33.1988 64.3998 33.1988H62.9998V26.9988H64.2998C64.7998 26.9988 65.1998 27.0988 65.5998 27.1988C65.9998 27.3988 66.2998 27.5988 66.5998 27.8988C66.8998 28.1988 67.0998 28.4988 67.2998 28.8988C67.4998 29.2988 67.4998 29.6988 67.4998 30.0988C67.4998 30.5988 67.3998 30.9988 67.2998 31.3988Z" fill="white"/>
<path d="M70.2002 26.2988V33.8988H70.9002V26.2988H70.2002V26.2988Z" fill="white"/>
<path d="M52.7002 26.2988C52.6002 26.3988 52.5002 26.4988 52.4002 26.6988C52.2002 26.9988 52.0002 27.2988 51.8002 27.5988C51.6002 27.8988 51.3002 28.2988 51.1002 28.5988C50.9002 28.8988 50.6002 29.2988 50.4002 29.5988C50.2002 29.8988 50.0002 30.1988 49.8002 30.4988C49.6002 30.7988 49.5002 30.9988 49.3002 31.1988C49.2002 30.9988 49.0002 30.7988 48.8002 30.4988C48.6002 30.1988 48.4002 29.8988 48.2002 29.5988C48.0002 29.2988 47.7002 28.8988 47.5002 28.5988C47.3002 28.2988 47.0002 27.8988 46.8002 27.5988C46.6002 27.2988 46.3002 26.9988 46.2002 26.6988C46.1002 26.5988 46.0002 26.3988 45.9002 26.2988H45.7002V33.8988H46.4002V28.0988C46.5002 28.1988 46.5002 28.2988 46.7002 28.4988C46.8002 28.6988 47.0002 28.9988 47.2002 29.1988C47.4002 29.4988 47.6002 29.7988 47.8002 30.0988C48.0002 30.3988 48.2002 30.6988 48.4002 30.9988C48.6002 31.2988 48.8002 31.5988 49.0002 31.7988C49.2002 31.9988 49.3002 32.1988 49.4002 32.2988C49.5002 32.1988 49.6002 31.9988 49.8002 31.7988C50.0002 31.5988 50.2002 31.2988 50.4002 30.9988C50.6002 30.6988 50.8002 30.3988 51.0002 30.0988C51.2002 29.7988 51.4002 29.4988 51.6002 29.1988C51.8002 28.8988 52.0002 28.6988 52.1002 28.4988C52.2002 28.2988 52.3002 28.0988 52.4002 28.0988V33.8988H53.1002V26.2988H52.7002V26.2988Z" fill="white"/>
<path d="M77.8998 31.0988L79.2998 33.8988H79.9998L76.2998 26.2988H75.9998L72.2998 33.8988H72.9998L74.3998 31.0988H77.8998V31.0988ZM74.7998 30.3988L76.1998 27.4988L77.5998 30.3988H74.7998Z" fill="white"/>
<path d="M36.9 31.7998L35 33.8998H39L36.9 31.7998Z" fill="white"/>
<path d="M31 26.0996L34.7 33.6996L36.6 31.5996L31 26.0996Z" fill="white"/>
<path d="M21.9004 33.8996H24.9004L23.4004 29.5996L21.9004 33.8996Z" fill="white"/>
<path d="M16.5 25.8994L21.6 33.6994L23.2 29.1994L16.5 25.8994Z" fill="white"/>
<path d="M12.4004 29.5992V33.3992L15.9004 26.1992L12.4004 29.5992Z" fill="white"/>
<path d="M12 33.9V30L8 33.9H12Z" fill="white"/>
<path d="M26.6002 17.0996H30.6002L23.7002 11.0996L26.6002 17.0996Z" fill="white"/>
<path d="M30.7998 17.5H26.7998L28.4998 21L30.7998 17.5Z" fill="white"/>
<path d="M30.7002 16.5998L25.7002 6.2998L23.7002 10.5998L30.7002 16.5998Z" fill="white"/>
<path d="M30.7002 25.2992L38.6002 32.9992L31.2002 17.6992L23.7002 29.0992L25.3002 33.5992L30.7002 25.2992Z" fill="white"/>
<path d="M18.1996 21.2998V21.1998L22.9996 11.2998L15.6996 17.6998L8.09961 33.1998L16.1996 25.2998L23.0996 28.5998L18.1996 21.2998Z" fill="white"/>
<path d="M25.2996 6.09961H21.5996L23.3996 10.0996L25.2996 6.09961Z" fill="white"/>
<path d="M21.1996 6.19922L16.0996 16.7992L23.1996 10.5992L21.1996 6.19922Z" fill="white"/>
</svg>
