<svg width="110" height="40" viewBox="0 0 110 40" fill="none" xmlns="http://www.w3.org/2000/svg">
<path d="M31.3998 18.0996H28.2998V28.5996H31.3998V18.0996Z" fill="white"/>
<path d="M31.3998 13.7998H28.2998V16.6998H31.3998V13.7998Z" fill="white"/>
<path d="M97.5004 18.0996H94.4004V28.5996H97.5004V18.0996Z" fill="white"/>
<path d="M97.5004 13.7998H94.4004V16.6998H97.5004V13.7998Z" fill="white"/>
<path d="M69.9 20.3994C71.9 20.3994 73.3 21.2994 73.2 23.0994V28.5994H76.3V22.9994C76.4 21.7994 75.9 20.6994 75.1 19.7994C74 18.5994 72.2 17.8994 69.9 17.8994C67.5 17.8994 65.8 18.5994 64.7 19.7994C63.9 20.6994 63.5 21.7994 63.5 22.9994V28.6994H66.6V23.1994C66.6 21.2994 68 20.3994 69.9 20.3994Z" fill="white"/>
<path d="M23.5 18.0996L19.8 25.8996L16 18.0996H12.5L17.9 28.5996H21.7L27 18.0996H23.5Z" fill="white"/>
<path d="M43.7998 18.0996L40.0998 25.8996L36.2998 18.0996H32.7998L38.1998 28.5996H41.9998L47.2998 18.0996H43.7998Z" fill="white"/>
<path d="M54.5996 20.1998C56.4996 20.1998 57.4996 20.8998 57.8996 21.5998L50.4996 22.9998C50.5996 22.3998 50.7996 21.8998 51.1996 21.4998C51.9996 20.6998 53.2996 20.1998 54.5996 20.1998ZM52.8996 25.8998C52.3996 25.7998 51.7996 25.5998 51.3996 25.2998L61.4996 23.2998C61.4996 22.7998 61.3996 22.3998 61.2996 21.8998C61.0996 21.1998 59.8996 17.6998 54.2996 17.8998C52.4996 17.8998 50.6996 18.4998 49.2996 19.6998C48.1996 20.6998 47.5996 22.0998 47.5996 23.4998C47.5996 24.9998 48.3996 26.4998 49.6996 27.2998C50.9996 28.2998 52.5996 28.6998 54.8996 28.6998H60.6996V25.9998H55.0996C54.1996 26.0998 53.4996 25.9998 52.8996 25.8998Z" fill="white"/>
<path d="M88.7998 22.8996C88.7998 24.4996 87.9998 26.1996 84.9998 26.1996C83.8998 26.2996 82.7998 25.8996 81.9998 25.0996C81.5998 24.6996 81.3998 24.1996 81.3998 23.5996C81.3998 22.7996 81.6998 21.9996 82.2998 21.4996C83.1998 20.7996 84.2998 20.3996 85.3998 20.4996H88.7998V22.8996V22.8996ZM88.7998 11.0996V17.9996H85.3998C84.2998 17.9996 81.5998 18.1996 79.7998 19.8996C78.7998 20.8996 78.2998 22.1996 78.2998 23.5996C78.2998 24.8996 78.7998 26.0996 79.6998 26.9996C81.0998 28.3996 82.9998 29.0996 84.9998 28.9996C87.2998 28.9996 89.1998 28.3996 90.3998 27.1996C91.4998 26.0996 92.0998 24.4996 91.9998 22.8996V11.0996H88.7998Z" fill="white"/>
</svg>
