<svg width="110" height="40" viewBox="0 0 110 40" fill="none" xmlns="http://www.w3.org/2000/svg">
<path d="M41.4 12.7L40.3 15.9H42.4L41.4 12.7ZM43.4 18.5L42.9 17.1H39.9L39.4 18.5H38L40.7 11H42.2L44.8 18.5H43.4Z" fill="white"/>
<path d="M45.7 10.7998H47.1V12.1998H45.7V10.7998ZM45.6 20.7998C45.4 20.7998 45.3 20.7998 45.1 20.7998C44.9 20.7998 44.7 20.6998 44.5 20.6998V19.5998C44.7 19.5998 44.9 19.6998 45.2 19.6998C45.5 19.7998 45.8 19.5998 45.9 19.2998C45.9 19.1998 45.9 19.1998 45.9 19.0998V13.0998H47.2V19.3998C47.3 20.1998 46.7 20.8998 45.9 20.9998C45.8 20.7998 45.7 20.7998 45.6 20.7998Z" fill="white"/>
<path d="M52.0004 18.5L51.9004 17.8C51.6004 18.4 51.0004 18.7 50.3004 18.7C49.3004 18.8 48.4004 18 48.4004 17C48.4004 16.9 48.4004 16.8 48.4004 16.8V13H49.7004V16.4C49.7004 17.1 50.0004 17.5 50.7004 17.5C51.0004 17.5 51.2004 17.4 51.4004 17.2C51.7004 16.9 51.8004 16.4 51.8004 16V13H53.1004V18.5H52.0004Z" fill="white"/>
<path d="M57.6002 18.5004V15.1004C57.6002 14.4004 57.4002 14.1004 56.7002 14.1004C56.3002 14.1004 55.9002 14.4004 55.7002 14.8004C55.5002 15.3004 55.5002 15.8004 55.5002 16.3004V18.6004H54.2002V13.0004H55.3002L55.4002 13.7004C56.0002 12.8004 57.2002 12.6004 58.1002 13.2004C58.6002 13.6004 59.0002 14.2004 58.9002 14.8004V18.5004H57.6002Z" fill="white"/>
<path d="M62.2996 18.5998C61.4996 18.6998 60.6996 18.0998 60.5996 17.2998C60.5996 17.1998 60.5996 17.0998 60.5996 16.8998V14.0998H59.5996V12.9998H60.5996V11.5998L61.8996 11.2998V12.9998H63.2996V14.0998H61.8996V16.7998C61.8996 17.1998 62.0996 17.3998 62.4996 17.3998C62.7996 17.3998 63.0996 17.3998 63.3996 17.2998V18.3998C62.9996 18.4998 62.5996 18.5998 62.2996 18.5998Z" fill="white"/>
<path d="M67.7002 16.1004L66.3002 16.2004C65.9002 16.2004 65.5002 16.5004 65.5002 16.9004C65.5002 17.3004 65.9002 17.6004 66.3002 17.6004C67.0002 17.7004 67.6002 17.2004 67.7002 16.5004C67.7002 16.4004 67.7002 16.4004 67.7002 16.3004V16.1004ZM68.8002 18.6004C68.3002 18.6004 67.9002 18.3004 67.9002 17.8004C67.5002 18.3004 66.9002 18.7004 66.2002 18.6004C65.2002 18.7004 64.3002 18.0004 64.2002 17.1004C64.2002 17.0004 64.2002 17.0004 64.2002 16.9004C64.2002 15.9004 65.0002 15.2004 66.1002 15.2004L67.8002 15.1004V14.8004C67.8002 14.3004 67.6002 13.9004 66.9002 13.9004C66.3002 13.9004 65.9002 14.2004 65.9002 14.7004H64.6002C64.7002 13.5004 65.7002 12.9004 66.9002 12.9004C67.9002 12.9004 68.7002 13.2004 69.0002 14.0004C69.1002 14.4004 69.2002 14.7004 69.2002 15.1004V17.2004C69.2002 17.5004 69.3002 17.5004 69.5002 17.5004C69.6002 17.5004 69.6002 17.5004 69.7002 17.5004V18.5004C69.3002 18.6004 69.0002 18.6004 68.8002 18.6004Z" fill="white"/>
<path d="M76.9004 18.5005V15.1005C76.9004 14.4005 76.7004 14.0005 76.0004 14.0005C75.3004 14.0005 75.0004 14.8005 75.0004 15.5005V18.5005H73.7004V15.1005C73.7004 14.4005 73.5004 14.0005 72.8004 14.0005C72.1004 14.0005 71.7004 14.8005 71.7004 15.5005V18.5005H70.4004V13.0005H71.5004L71.6004 13.7005C71.9004 13.1005 72.5004 12.8005 73.2004 12.8005C73.9004 12.8005 74.5004 13.1005 74.8004 13.7005C75.2004 13.1005 75.8004 12.8005 76.5004 12.8005C77.4004 12.7005 78.3004 13.5005 78.3004 14.4005C78.3004 14.5005 78.3004 14.6005 78.3004 14.7005V18.4005H76.9004V18.5005Z" fill="white"/>
<path d="M82.5996 14.1998C82.3996 13.9998 82.0996 13.8998 81.7996 13.8998C81.3996 13.8998 81.0996 13.9998 80.8996 14.2998C80.6996 14.4998 80.5996 14.8998 80.5996 15.1998H82.9996C82.8996 14.7998 82.7996 14.4998 82.5996 14.1998ZM84.1996 16.1998H80.4996C80.4996 16.5998 80.5996 16.9998 80.8996 17.2998C81.0996 17.4998 81.3996 17.5998 81.6996 17.5998C81.9996 17.5998 82.2996 17.4998 82.4996 17.2998C82.5996 17.1998 82.6996 16.9998 82.7996 16.7998H84.0996C83.9996 17.1998 83.8996 17.4998 83.5996 17.7998C83.0996 18.2998 82.3996 18.5998 81.6996 18.5998C81.0996 18.5998 80.3996 18.3998 79.9996 17.8998C79.3996 17.2998 79.0996 16.4998 79.0996 15.6998C79.0996 14.8998 79.3996 14.0998 79.8996 13.4998C80.3996 12.9998 80.9996 12.7998 81.6996 12.7998C82.4996 12.7998 83.2996 13.1998 83.6996 13.7998C84.0996 14.3998 84.1996 14.9998 84.1996 15.6998C84.1996 15.7998 84.1996 16.0998 84.1996 16.1998Z" fill="white"/>
<path d="M88.6002 18.5004V15.1004C88.6002 14.4004 88.4002 14.1004 87.7002 14.1004C87.3002 14.1004 86.9002 14.4004 86.7002 14.8004C86.5002 15.3004 86.5002 15.8004 86.5002 16.3004V18.6004H85.2002V13.0004H86.3002L86.4002 13.7004C87.0002 12.8004 88.2002 12.6004 89.1002 13.2004C89.6002 13.6004 90.0002 14.2004 89.9002 14.8004V18.5004H88.6002Z" fill="white"/>
<path d="M93.2996 18.5998C92.4996 18.6998 91.6996 18.0998 91.5996 17.2998C91.5996 17.1998 91.5996 17.0998 91.5996 16.8998V14.0998H90.5996V12.9998H91.5996V11.5998L92.8996 11.2998V12.9998H94.2996V14.0998H92.8996V16.7998C92.8996 17.1998 93.0996 17.3998 93.4996 17.3998C93.7996 17.3998 94.0996 17.3998 94.3996 17.2998V18.3998C94.0996 18.4998 93.6996 18.5998 93.2996 18.5998Z" fill="white"/>
<path d="M41.0996 24.4998C40.7996 24.4998 40.3996 24.6998 40.1996 24.8998C39.8996 25.2998 39.7996 25.7998 39.8996 26.1998C39.8996 26.6998 39.9996 27.0998 40.1996 27.4998C40.3996 27.7998 40.6996 27.8998 41.0996 27.8998C42.0996 27.8998 42.3996 26.8998 42.3996 26.0998C42.3996 25.2998 42.0996 24.4998 41.0996 24.4998ZM42.4996 28.9998L42.3996 28.3998C41.9996 28.8998 41.4996 29.1998 40.7996 29.0998C40.2996 29.0998 39.7996 28.8998 39.4996 28.5998C38.7996 27.9998 38.4996 27.0998 38.4996 26.1998C38.3996 25.2998 38.7996 24.3998 39.4996 23.6998C39.8996 23.3998 40.3996 23.1998 40.7996 23.2998C41.2996 23.2998 41.8996 23.3998 42.1996 23.7998V21.2998H43.4996V28.9998H42.4996Z" fill="white"/>
<path d="M48.0996 24.7998C47.8996 24.5998 47.5996 24.4998 47.2996 24.4998C46.8996 24.4998 46.5996 24.5998 46.3996 24.8998C46.1996 25.0998 46.0996 25.3998 46.0996 25.7998H48.4996C48.3996 25.3998 48.2996 24.9998 48.0996 24.7998ZM49.6996 26.6998H45.9996C45.9996 27.0998 46.0996 27.4998 46.3996 27.7998C46.5996 27.9998 46.8996 28.0998 47.1996 28.0998C47.4996 28.0998 47.7996 27.9998 47.9996 27.7998C48.0996 27.6998 48.1996 27.4998 48.2996 27.2998H49.5996C49.4996 27.6998 49.3996 27.9998 49.0996 28.2998C48.0996 29.2998 46.4996 29.2998 45.4996 28.3998C44.8996 27.7998 44.5996 26.9998 44.5996 26.1998C44.5996 25.3998 44.8996 24.5998 45.3996 23.9998C45.8996 23.4998 46.4996 23.2998 47.1996 23.2998C47.9996 23.2998 48.7996 23.6998 49.1996 24.2998C49.5996 24.8998 49.6996 25.4998 49.6996 26.1998C49.6996 26.2998 49.6996 26.5998 49.6996 26.6998Z" fill="white"/>
<path d="M56.2998 25.7H54.5998V27.8H56.2998C56.8998 27.8 57.5998 27.6 57.5998 26.8C57.6998 26 57.0998 25.7 56.2998 25.7ZM56.2998 22.7H54.5998V24.6H56.2998C56.8998 24.6 57.3998 24.4 57.3998 23.7C57.3998 23 56.8998 22.7 56.2998 22.7ZM58.2998 28.5C57.6998 28.9 56.9998 29.1 56.2998 29H53.2998V21.5H56.2998C56.8998 21.5 57.4998 21.6 57.9998 21.9C58.4998 22.3 58.8998 22.9 58.8998 23.5C58.8998 24.2 58.5998 24.8 57.9998 25.1C58.6998 25.4 59.0998 26.1 59.0998 26.8C59.0998 27.5 58.7998 28.2 58.2998 28.5Z" fill="white"/>
<path d="M63.2998 26.6004L61.8998 26.7004C61.4998 26.7004 61.0998 27.0004 61.0998 27.4004C61.0998 27.8004 61.4998 28.1004 61.8998 28.1004C62.5998 28.2004 63.1998 27.7004 63.2998 27.0004C63.2998 26.9004 63.2998 26.9004 63.2998 26.8004V26.6004ZM64.3998 29.1004C63.8998 29.1004 63.4998 28.8004 63.4998 28.3004C63.0998 28.8004 62.4998 29.2004 61.7998 29.1004C60.4998 29.1004 59.7998 28.3004 59.7998 27.4004C59.7998 26.3004 60.5998 25.7004 61.6998 25.7004L63.2998 25.6004V25.3004C63.2998 24.8004 63.0998 24.4004 62.3998 24.4004C61.7998 24.4004 61.3998 24.7004 61.3998 25.2004H60.0998C60.1998 24.0004 61.1998 23.4004 62.3998 23.4004C63.2998 23.4004 64.1998 23.7004 64.4998 24.5004C64.5998 24.9004 64.6998 25.2004 64.6998 25.6004V27.7004C64.6998 28.0004 64.7998 28.0004 64.9998 28.0004C65.0998 28.0004 65.0998 28.0004 65.1998 28.0004V29.0004C64.8998 29.1004 64.5998 29.1004 64.3998 29.1004Z" fill="white"/>
<path d="M68.9998 24.7001C68.1998 24.7001 67.5998 25.3001 67.5998 26.1001C67.5998 26.2001 67.5998 26.2001 67.5998 26.3001V29.0001H66.2998V23.5001H67.3998L67.4998 24.3001C67.7998 23.7001 68.3998 23.3001 69.0998 23.4001C69.1998 23.4001 69.3998 23.4001 69.4998 23.4001V24.7001C69.2998 24.7001 69.1998 24.7001 68.9998 24.7001Z" fill="white"/>
<path d="M74.4996 28.3004C73.9996 28.9004 73.2996 29.2004 72.5996 29.2004C71.8996 29.2004 71.1996 28.9004 70.6996 28.3004C70.2996 27.7004 70.0996 27.0004 70.0996 26.3004C70.0996 25.6004 70.2996 24.9004 70.6996 24.3004C71.1996 23.7004 71.8996 23.4004 72.5996 23.4004C73.2996 23.4004 73.9996 23.7004 74.4996 24.3004C74.7996 24.6004 74.8996 25.1004 74.8996 25.5004H73.5996C73.5996 25.3004 73.4996 25.1004 73.3996 25.0004C73.1996 24.7004 72.8996 24.6004 72.4996 24.6004C72.1996 24.6004 71.8996 24.7004 71.6996 24.9004C71.3996 25.3004 71.2996 25.8004 71.2996 26.3004C71.1996 26.8004 71.3996 27.3004 71.6996 27.7004C71.8996 27.9004 72.1996 28.1004 72.4996 28.0004C72.7996 28.0004 73.1996 27.9004 73.3996 27.6004C73.4996 27.4004 73.5996 27.3004 73.5996 27.1004H74.8996C74.8996 27.5004 74.6996 27.9004 74.4996 28.3004Z" fill="white"/>
<path d="M79.1002 24.7998C78.9002 24.5998 78.6002 24.4998 78.3002 24.4998C77.9002 24.4998 77.6002 24.5998 77.4002 24.8998C77.2002 25.0998 77.1002 25.3998 77.1002 25.7998H79.5002C79.5002 25.3998 79.4002 24.9998 79.1002 24.7998ZM80.8002 26.6998H77.1002C77.1002 27.0998 77.2002 27.4998 77.5002 27.7998C77.7002 27.9998 78.0002 28.0998 78.3002 28.0998C78.6002 28.0998 78.9002 27.9998 79.1002 27.7998C79.2002 27.6998 79.3002 27.4998 79.4002 27.2998H80.7002C80.6002 27.6998 80.5002 27.9998 80.2002 28.2998C79.7002 28.7998 79.0002 29.0998 78.3002 29.0998C77.7002 29.0998 77.0002 28.8998 76.6002 28.3998C76.0002 27.7998 75.7002 26.9998 75.7002 26.1998C75.7002 25.3998 76.0002 24.5998 76.5002 23.9998C77.0002 23.4998 77.6002 23.2998 78.3002 23.2998C79.1002 23.2998 79.9002 23.6998 80.3002 24.2998C80.7002 24.8998 80.8002 25.4998 80.8002 26.1998C80.8002 26.2998 80.8002 26.5998 80.8002 26.6998Z" fill="white"/>
<path d="M83.2998 29.0998C82.5998 29.1998 81.8998 28.6998 81.7998 27.8998C81.7998 27.7998 81.7998 27.6998 81.7998 27.5998V21.2998H83.0998V27.2998C83.0998 27.5998 83.1998 27.7998 83.5998 27.7998C83.6998 27.7998 83.6998 27.7998 83.7998 27.7998V28.9998C83.6998 29.0998 83.4998 29.0998 83.2998 29.0998Z" fill="white"/>
<path d="M88.1 24.8997C87.6 24.3997 86.9 24.3997 86.4 24.8997C86.1 25.2997 86 25.7997 86 26.2997C86 26.7997 86.1 27.2997 86.4 27.6997C86.9 28.1997 87.6 28.1997 88.1 27.6997C88.4 27.2997 88.5 26.7997 88.5 26.2997C88.5 25.7997 88.4 25.2997 88.1 24.8997ZM89.1 28.2997C88.1 29.3997 86.5 29.4997 85.4 28.4997C85.3 28.3997 85.3 28.3997 85.2 28.2997C84.7 27.6997 84.5 26.9997 84.5 26.2997C84.5 25.5997 84.7 24.7997 85.2 24.2997C86.2 23.1997 87.8 23.0997 88.9 24.0997C89 24.1997 89 24.1997 89.1 24.2997C89.6 24.8997 89.8 25.5997 89.8 26.2997C89.8 26.9997 89.6 27.6997 89.1 28.2997Z" fill="white"/>
<path d="M94.1998 29.0004V25.6004C94.1998 24.9004 93.9998 24.6004 93.2998 24.6004C92.8998 24.6004 92.4998 24.9004 92.2998 25.3004C92.0998 25.8004 92.0998 26.3004 92.0998 26.8004V29.0004H90.7998V23.5004H91.9998L92.0998 24.2004C92.6998 23.3004 93.8998 23.1004 94.6998 23.7004C95.2998 24.1004 95.5998 24.7004 95.5998 25.4004V29.0004H94.1998Z" fill="white"/>
<path d="M100.2 26.6004L98.8002 26.7004C98.4002 26.7004 98.0002 27.0004 98.0002 27.4004C98.0002 27.8004 98.4002 28.1004 98.8002 28.1004C99.5002 28.2004 100.1 27.7004 100.2 27.0004C100.2 26.9004 100.2 26.9004 100.2 26.8004V26.6004ZM101.3 29.1004C100.8 29.1004 100.4 28.8004 100.4 28.3004C100 28.8004 99.4002 29.2004 98.7002 29.1004C97.4002 29.1004 96.7002 28.3004 96.7002 27.4004C96.7002 26.4004 97.5002 25.6004 98.5002 25.7004H98.6002L100.2 25.6004V25.3004C100.2 24.8004 100 24.4004 99.3002 24.4004C98.7002 24.4004 98.3002 24.7004 98.3002 25.2004H97.0002C97.1002 24.0004 98.1002 23.4004 99.3002 23.4004C100.2 23.4004 101.1 23.7004 101.4 24.5004C101.5 24.9004 101.6 25.2004 101.6 25.6004V27.7004C101.6 28.0004 101.7 28.0004 101.9 28.0004C102 28.0004 102 28.0004 102.1 28.0004V29.0004C101.8 29.1004 101.6 29.1004 101.3 29.1004Z" fill="white"/>
<path d="M29.1 7.2002H12.5C10 7.2002 8 9.2002 8 11.7002V28.2002C8 30.7002 10 32.7002 12.5 32.7002H29C31.5 32.7002 33.5 30.7002 33.5 28.2002V11.7002C33.6 9.2002 31.6 7.2002 29.1 7.2002ZM20.8 10.0002C21 10.0002 21.1 10.1002 21.1 10.3002C21.1 10.5002 21 10.6002 20.8 10.6002C20.6 10.6002 20.5 10.5002 20.5 10.3002C20.5 10.1002 20.7 10.0002 20.8 10.0002ZM18.8 11.2002C19 11.2002 19.1 11.2002 19.3 11.3002C19.5 11.0002 19.9 10.9002 20.2 10.9002C20.4 10.9002 20.6 11.0002 20.8 11.1002C21 11.0002 21.2 10.9002 21.4 10.9002C21.7 10.9002 22.1 11.0002 22.3 11.3002C22.5 11.3002 22.6 11.2002 22.8 11.3002C23.4 11.3002 23.9 11.7002 23.9 12.3002C23.9 12.6002 23.8 12.8002 23.6 13.0002L23.3 12.7002C23.4 12.6002 23.5 12.5002 23.5 12.3002C23.5 12.0002 23.2 11.8002 22.8 11.8002C22.7 11.8002 22.6 11.8002 22.5 11.8002C22.5 11.9002 22.5 11.9002 22.5 12.0002C22.5 12.2002 22.4 12.4002 22.3 12.5002L22.1 12.0002C22.1 11.9002 22.2 11.9002 22.2 11.8002C22.2 11.5002 21.9 11.3002 21.5 11.3002C21.4 11.3002 21.2 11.3002 21.1 11.4002V12.0002H20.7V11.4002C20.6 11.3002 20.4 11.3002 20.3 11.3002C19.9 11.3002 19.6 11.5002 19.6 11.8002C19.6 11.9002 19.6 11.9002 19.7 12.0002L19.4 12.3002C19.3 12.2002 19.2 12.0002 19.2 11.8002C19.2 11.7002 19.2 11.7002 19.2 11.6002C19.1 11.6002 19 11.6002 18.9 11.6002C18.5 11.6002 18.2 11.8002 18.2 12.1002C18.2 12.2002 18.3 12.4002 18.4 12.5002L18.1 12.8002C17.9 12.6002 17.8 12.4002 17.8 12.1002C17.8 11.6002 18.3 11.2002 18.8 11.2002ZM18.7 13.2002C18.8 13.2002 18.9 13.3002 19 13.4002C18.9 13.5002 18.8 13.5002 18.7 13.5002C18.6 13.5002 18.5 13.4002 18.4 13.3002C18.3 13.3002 18.2 13.2002 18.1 13.1002C18.1 13.0002 18.1 12.9002 18.2 12.8002C18.3 12.8002 18.4 12.9002 18.5 13.0002C18.5 13.1002 18.5 13.2002 18.4 13.3002C18.5 13.3002 18.6 13.2002 18.7 13.2002ZM20.8 13.5002C21.5 13.5002 22.3 13.7002 22.9 14.0002L22.7 14.4002C21.5 13.8002 20.1 13.8002 18.9 14.4002L18.7 14.0002C19.4 13.6002 20.1 13.5002 20.8 13.5002ZM19.4 12.8002C19.4 12.7002 19.4 12.6002 19.5 12.5002C19.6 12.5002 19.7 12.6002 19.7 12.7002C19.7 12.8002 19.7 12.9002 19.6 13.0002C19.7 12.9002 19.9 12.9002 20 13.0002C20.1 13.1002 20.1 13.1002 20.1 13.2002C20 13.3002 19.9 13.3002 19.8 13.3002C19.7 13.3002 19.6 13.2002 19.6 13.0002C19.6 13.1002 19.6 13.2002 19.5 13.3002C19.4 13.4002 19.3 13.4002 19.2 13.3002C19.2 13.2002 19.2 13.1002 19.3 13.0002C19.4 12.9002 19.5 12.9002 19.6 13.0002C19.5 13.0002 19.4 12.9002 19.4 12.8002ZM20.6 12.6002C20.6 12.5002 20.7 12.4002 20.8 12.3002C21 12.4002 21 12.5002 21 12.7002C21 12.8002 20.9 12.8002 20.8 12.9002C20.9 12.8002 21 12.8002 21.1 12.9002C21.2 13.0002 21.3 13.1002 21.3 13.2002C21.2 13.3002 21.1 13.3002 21 13.2002C20.9 13.1002 20.8 13.0002 20.9 12.9002C20.9 13.0002 20.8 13.1002 20.8 13.2002C20.7 13.3002 20.6 13.3002 20.5 13.2002C20.5 13.1002 20.6 13.0002 20.6 12.9002C20.7 12.8002 20.8 12.8002 20.9 12.9002C20.7 12.8002 20.6 12.7002 20.6 12.6002ZM21.9 12.7002C21.9 12.6002 22 12.5002 22.1 12.5002C22.2 12.6002 22.3 12.8002 22.2 12.9002C22.2 13.0002 22.1 13.0002 22 13.0002C22.1 13.0002 22.2 13.0002 22.3 13.0002C22.4 13.1002 22.4 13.2002 22.4 13.3002C22.3 13.3002 22.2 13.3002 22.1 13.2002C22 13.2002 22 13.1002 22 13.0002C22 13.1002 21.9 13.2002 21.8 13.3002C21.7 13.3002 21.6 13.3002 21.5 13.2002C21.5 13.1002 21.6 13.0002 21.7 12.9002C21.8 12.9002 21.9 12.9002 22 13.0002C21.9 12.9002 21.9 12.8002 21.9 12.7002ZM22.9 13.6002C22.8 13.6002 22.7 13.5002 22.6 13.5002C22.6 13.3002 22.8 13.3002 23 13.3002C23.1 13.3002 23.1 13.4002 23.2 13.4002C23.1 13.3002 23.1 13.1002 23.2 13.0002C23.3 12.9002 23.4 12.9002 23.5 12.9002C23.6 13.0002 23.6 13.1002 23.5 13.2002C23.4 13.3002 23.3 13.4002 23.2 13.4002C23.1 13.5002 23 13.6002 22.9 13.6002ZM13.3 21.9002C13.1 21.9002 13 21.8002 13 21.6002C13 21.4002 13.1 21.3002 13.3 21.3002C13.5 21.3002 13.6 21.4002 13.6 21.6002C13.5 21.7002 13.4 21.9002 13.3 21.9002ZM20.8 29.4002C20.6 29.4002 20.5 29.3002 20.5 29.1002C20.5 28.9002 20.6 28.8002 20.8 28.8002C21 28.8002 21.1 28.9002 21.1 29.1002C21.1 29.3002 21 29.4002 20.8 29.4002ZM24.6 25.3002C23.5 26.5002 22.2 27.6002 20.8 28.5002C19.4 27.6002 18.2 26.6002 17.1 25.4002C15.9 24.3002 14.8 23.0002 13.9 21.6002C14.8 20.2002 15.8 19.0002 17 17.9002C18.1 16.7002 19.4 15.6002 20.8 14.7002C22.2 15.6002 23.4 16.6002 24.5 17.8002C25.7 18.9002 26.8 20.2002 27.7 21.6002C26.8 22.9002 25.8 24.2002 24.6 25.3002ZM28.4 21.9002C28.2 21.9002 28.1 21.8002 28.1 21.6002C28.1 21.4002 28.2 21.3002 28.4 21.3002C28.6 21.3002 28.7 21.4002 28.7 21.6002C28.6 21.7002 28.5 21.9002 28.4 21.9002Z" fill="white"/>
<path d="M14 21.5998L20.8 28.3998L27.6 21.5998L20.8 14.7998L14 21.5998ZM18.6 17.3998V19.0998H17L16.3 19.7998H18.7V21.4998H14.6L18.6 17.3998ZM15.2 22.2998L14.6 21.6998H15.2V22.2998ZM16.6 23.6998L15.9 22.9998V21.6998H16.6V23.6998ZM18 25.0998L17.3 24.3998V21.6998H18V25.0998ZM19.3 26.3998L18.6 25.6998V21.5998H19.3V26.3998ZM20.7 27.7998L20 27.0998V21.5998H20.7V27.7998ZM20.7 21.4998H19.3V19.7998H20.7V21.4998ZM20.7 19.0998H19.3V16.6998L20.7 15.2998V19.0998ZM26.5 20.7998L27.1 21.3998H26.5V20.7998ZM25.1 19.4998L25.8 20.1998V21.4998H25.1V19.4998ZM23.7 18.0998L24.4 18.7998V21.4998H23.7V18.0998ZM22.3 16.6998L23 17.3998V21.4998H22.3V16.6998ZM20.9 15.2998L21.6 15.9998V21.4998H20.9V15.2998ZM20.9 21.6998H22.3V23.3998H20.9V21.6998ZM20.9 24.0998H22.3V26.4998L23 25.7998V24.0998H24.7L25.4 23.3998H23V21.6998H27.1L22.3 26.4998L20.9 27.8998V24.0998Z" fill="white"/>
</svg>
