<svg width="110" height="40" viewBox="0 0 110 40" fill="none" xmlns="http://www.w3.org/2000/svg">
<path d="M15.9 16.2H15.5C14.3 16.2 13.5 15.7 13.5 14.5C13.5 13.3 14.3 12.8 15.5 12.8H15.9V11.1C15.9 8.8 17.5 7.1 19.8 7.1C20.9 7.1 22.3 7.4 22.3 8.8C22.3 10 21.7 10.5 20.5 10.5C19.9 10.5 19.6 10.8 19.6 11.7V12.7H20.6C21.8 12.7 22.6 13.2 22.6 14.4C22.6 15.6 21.8 16.1 20.6 16.1H19.6V23.6C19.6 24.7 18.8 25.5 17.7 25.5C16.6 25.5 15.8 24.6 15.8 23.6L15.9 16.2ZM35.2 14.5C35.2 13.4 36 12.6 37.1 12.6C38.1 12.6 38.7 13.2 39 13.8C39.6 13.1 40.5 12.4 41.6 12.4C42.6 12.4 43.5 13.2 43.5 14.3C43.5 15.6 42.5 15.9 41.2 16.3C39.6 16.8 39 17.2 39 19.1V23.6C39 24.7 38.2 25.5 37.1 25.5C36 25.5 35.2 24.6 35.2 23.6V14.5ZM44.2 16.5C43.9 15.7 43.7 15.1 43.6 14.4C43.6 13.4 44.2 12.6 45.5 12.6C46.4 12.6 47 13.1 47.3 13.9L49.1 19.9L50.8 14.7C51.1 13.7 51.5 12.6 52.8 12.6C54.1 12.6 54.5 13.7 54.8 14.7L56.5 19.9L58.3 13.9C58.5 13.1 59.2 12.6 60.1 12.6C61.3 12.6 62 13.4 62 14.4C62 15.1 61.7 15.6 61.4 16.5L58.8 23.8C58.4 25 57.7 25.6 56.5 25.6C55.2 25.6 54.7 24.9 54.3 23.6L52.8 19.2L51.3 23.6C50.9 24.9 50.4 25.6 49.1 25.6C47.8 25.6 47.2 25 46.8 23.8L44.2 16.5ZM72.4 12.6C71.5 12.6 70.9 13.2 70.7 13.8C69.9 12.8 68.9 12.4 67.5 12.4C64.2 12.4 61.7 15.4 61.7 19.1C61.7 22.9 64.2 25.8 67.5 25.8C68.9 25.8 69.9 25.4 70.7 24.4C71 25 71.5 25.6 72.4 25.6C73.5 25.6 74.3 24.7 74.3 23.7V14.6C74.3 13.4 73.5 12.6 72.4 12.6ZM68 22.2C66.4 22.2 65.4 20.8 65.4 19C65.4 17.3 66.3 15.8 68 15.8C69.6 15.8 70.6 17.2 70.6 19C70.5 20.8 69.6 22.2 68 22.2ZM75.5 14.5C75.5 13.4 76.3 12.6 77.4 12.6C78.4 12.6 79 13.2 79.3 13.8C79.9 13.1 80.8 12.4 81.9 12.4C82.9 12.4 83.8 13.2 83.8 14.3C83.8 15.6 82.8 15.9 81.5 16.3C79.9 16.8 79.3 17.2 79.3 19.1V23.6C79.3 24.7 78.5 25.5 77.4 25.5C76.3 25.5 75.5 24.6 75.5 23.6V14.5ZM93.9 7C92.8 7 92 7.9 92 9V13.4C91.3 12.8 90.5 12.3 88.9 12.3C85.6 12.3 83.1 15.3 83.1 19C83.1 22.8 85.6 25.7 88.9 25.7C90.3 25.7 91.3 25.3 92.1 24.3C92.4 24.9 92.9 25.5 93.8 25.5C94.9 25.5 95.7 24.6 95.7 23.6V9C95.7 7.9 95 7 93.9 7ZM89.4 22.2C87.8 22.2 86.8 20.8 86.8 19C86.8 17.3 87.7 15.8 89.4 15.8C91 15.8 92 17.2 92 19C92 20.8 91.1 22.2 89.4 22.2Z" fill="white"/>
<path d="M80.1998 30.6994C80.1998 29.9994 80.0998 29.0994 80.0998 28.4994C79.8998 29.0994 79.6998 29.6994 79.4998 30.3994L78.5998 32.8994H77.9998L77.1998 30.4994C76.9998 29.7994 76.7998 29.0994 76.5998 28.4994C76.5998 29.0994 76.4998 29.9994 76.4998 30.7994L76.3998 32.9994H75.7998L76.1998 27.8994H76.9998L77.8998 30.3994C78.0998 30.9994 78.2998 31.5994 78.3998 32.0994C78.4998 31.5994 78.6998 30.9994 78.8998 30.3994L79.7998 27.8994H80.5998L80.8998 32.9994H80.1998V30.6994Z" fill="white"/>
<path d="M84.6 30.4998H82.6V32.2998H84.8V32.8998H82V27.7998H84.8V28.3998H82.7V29.9998H84.7V30.4998H84.6Z" fill="white"/>
<path d="M85.7002 27.8998C86.1002 27.7998 86.6002 27.7998 87.1002 27.7998C88.1002 27.7998 88.7002 27.9998 89.2002 28.3998C89.7002 28.7998 89.9002 29.3998 89.9002 30.1998C89.9002 30.9998 89.6002 31.6998 89.2002 32.1998C88.7002 32.6998 87.9002 32.8998 86.9002 32.8998C86.4002 32.8998 86.0002 32.8998 85.7002 32.7998V27.8998ZM86.4002 32.3998C86.6002 32.3998 86.8002 32.3998 87.1002 32.3998C88.5002 32.3998 89.3002 31.5998 89.3002 30.1998C89.3002 28.9998 88.6002 28.1998 87.2002 28.1998C86.9002 28.1998 86.6002 28.1998 86.4002 28.2998C86.4002 28.2998 86.4002 32.3998 86.4002 32.3998Z" fill="white"/>
<path d="M91.4002 27.7998V32.8998H90.7002V27.7998C90.7002 27.7998 91.4002 27.7998 91.4002 27.7998Z" fill="white"/>
<path d="M93.4002 31.2998L92.9002 32.8998H92.2002L94.0002 27.7998H94.8002L96.6002 32.8998H95.9002L95.4002 31.2998C95.4002 31.2998 93.4002 31.2998 93.4002 31.2998ZM95.1002 30.7998L94.6002 29.2998C94.5002 28.9998 94.4002 28.6998 94.3002 28.3998C94.2002 28.6998 94.1002 28.9998 94.0002 29.2998L93.5002 30.7998H95.1002Z" fill="white"/>
<path d="M28.3996 12C24.5996 12 22.0996 15 22.0996 18.8C22.0996 22.6 24.5996 25.6 28.3996 25.6C32.1996 25.6 34.6996 22.6 34.6996 18.8C34.6996 15 32.1996 12 28.3996 12ZM30.7996 19.6L27.6996 21.7C27.4996 21.8 27.2996 21.9 27.0996 21.9C26.7996 21.9 26.4996 21.7 26.2996 21.5C25.9996 21 26.0996 20.4 26.5996 20.1L28.4996 18.8L26.5996 17.5C26.0996 17.2 25.9996 16.6 26.2996 16.1C26.5996 15.6 27.1996 15.5 27.6996 15.8L30.7996 17.9C31.0996 18.1 31.1996 18.4 31.1996 18.7C31.1996 19.1 30.9996 19.4 30.7996 19.6Z" fill="white" fill-opacity="0.4"/>
</svg>
