<svg width="110" height="40" viewBox="0 0 110 40" fill="none" xmlns="http://www.w3.org/2000/svg">
<path d="M38.25 0.25H71.75V39.75H38.25V0.25Z" stroke="white" stroke-width="0.5"/>
<path d="M47.0253 19.8697V19.4019L43.4912 16.6429L47.04 13.884V13.4171L43.0724 16.5118V16.8012L47.0253 19.8697ZM62.8896 19.8697V19.4019L66.4247 16.6429L62.873 13.884V13.4171L66.8258 16.5118V16.8012L62.8896 19.8697ZM49.4107 15.8355V7.05711H51.8568V15.8403L49.4107 15.8355ZM59.3907 9.92697C59.1158 9.77953 58.8311 9.65061 58.5385 9.54111C58.2597 9.44464 57.9808 9.34239 57.7019 9.26618C57.4047 9.18111 57.0975 9.13473 56.7881 9.12823C56.592 9.12167 56.3966 9.15449 56.2137 9.2247C56.1484 9.25361 56.0931 9.30067 56.0545 9.36013C56.0159 9.41959 55.9958 9.48886 55.9965 9.55944C55.995 9.61294 56.0046 9.66619 56.0246 9.71594C56.0446 9.76569 56.0747 9.81091 56.113 9.84884C56.2213 9.93883 56.3431 10.0117 56.474 10.0649C56.6586 10.1437 56.8511 10.2028 57.0483 10.2415C57.2656 10.3013 57.5219 10.3784 57.8233 10.4556C58.2414 10.5701 58.6526 10.7076 59.0551 10.8675C59.3887 10.9997 59.7019 11.1773 59.9856 11.3952C60.2407 11.5931 60.4451 11.8471 60.5825 12.137C60.7323 12.4689 60.8065 12.8291 60.7997 13.1924C60.7997 13.72 60.7018 14.1705 60.4817 14.5226C60.2728 14.8755 59.9804 15.1734 59.6295 15.3908C59.2526 15.6055 58.8443 15.7613 58.4191 15.8529C57.976 15.9483 57.5234 15.9942 57.0699 15.9899C56.6989 15.9917 56.3283 15.9659 55.9613 15.9127C55.5805 15.8604 55.2027 15.7889 54.8293 15.6985C54.4721 15.6021 54.0935 15.5056 53.7589 15.386C53.4268 15.2763 53.1074 15.1324 52.8059 14.9567L53.98 12.8412C54.3066 13.0267 54.6456 13.1901 54.9946 13.3303C55.3218 13.472 55.6614 13.5841 56.0093 13.665C56.3781 13.765 56.7587 13.8169 57.1413 13.8194C57.4348 13.8194 57.6374 13.7808 57.7548 13.7229C57.8084 13.6992 57.8539 13.6606 57.8855 13.6117C57.9171 13.5629 57.9336 13.5059 57.9329 13.448C57.9341 13.385 57.9182 13.3228 57.8869 13.2678C57.8556 13.2129 57.81 13.1672 57.7548 13.1354C57.6096 13.0336 57.4496 12.9539 57.2802 12.8991C57.0797 12.8383 56.8458 12.7611 56.5836 12.7062C56.3214 12.6512 56.0484 12.5682 55.747 12.4698C55.3663 12.3566 54.9956 12.2131 54.6385 12.0405C54.3567 11.9007 54.096 11.7231 53.8635 11.5129C53.6566 11.327 53.4977 11.0952 53.3998 10.8366C53.294 10.5596 53.2464 10.2642 53.2599 9.96845C53.251 9.5209 53.3517 9.07783 53.5534 8.67677C53.7452 8.31036 54.0246 7.9955 54.3674 7.75938C54.7224 7.50463 55.1197 7.313 55.5416 7.19312C55.992 7.06102 56.46 6.99599 56.93 7.00019C57.2834 7.00218 57.636 7.03446 57.9837 7.09666C58.3193 7.158 58.6509 7.23885 58.9768 7.33879C59.2948 7.43525 59.5903 7.53654 59.8692 7.65134L60.6216 7.96485L59.3907 9.92697ZM49.4107 26.5606V17.7533H52.5887C53.2546 17.7392 53.9164 17.859 54.5338 18.1054C55.0592 18.3097 55.5335 18.6237 55.9241 19.0259C56.3148 19.428 56.6125 19.9087 56.7969 20.435C57.1986 21.5773 57.1906 22.8208 56.7744 23.958C56.5739 24.4806 56.2623 24.9549 55.8605 25.349C55.4538 25.7361 54.9751 26.042 54.4506 26.25C53.8606 26.4663 53.2347 26.5717 52.6053 26.5606H49.4107ZM54.5895 22.1367C54.594 21.8252 54.5471 21.515 54.4506 21.2183C54.3666 20.9539 54.2321 20.7076 54.0543 20.4929C53.8759 20.2976 53.6601 20.1389 53.4193 20.026C53.1577 19.9072 52.8703 19.8542 52.5828 19.8717H51.8695V24.4499H52.5828C52.8763 24.4491 53.1666 24.3894 53.436 24.2744C53.681 24.1586 53.8977 23.9917 54.071 23.7853C54.2485 23.5712 54.3815 23.3247 54.4624 23.0599C54.5462 22.7601 54.589 22.4506 54.5895 22.1396V22.1367ZM58.0454 26.5606V17.7533H60.4915V26.5413H58.0454V26.5606ZM43 32.9833V30.8891H43.7524C43.9086 30.8865 44.0639 30.9127 44.2103 30.9662C44.3258 31.0223 44.4326 31.0944 44.5273 31.1804C44.6114 31.281 44.6791 31.3939 44.7279 31.5151C44.7675 31.6493 44.7883 31.7882 44.7896 31.928C44.7922 32.0745 44.7656 32.22 44.7113 32.3563C44.6661 32.4828 44.5925 32.5975 44.496 32.692C44.4024 32.7798 44.295 32.8521 44.178 32.9062C44.0404 32.9621 43.8923 32.9884 43.7436 32.9833H43ZM44.45 31.9222C44.4452 31.8169 44.4321 31.7121 44.4109 31.6087C44.3831 31.5205 44.3352 31.4396 44.271 31.3724C44.2071 31.3104 44.1338 31.2587 44.0538 31.219C43.9606 31.1811 43.861 31.1605 43.7602 31.1582H43.3405V32.664H43.7524C43.8533 32.6629 43.9531 32.6423 44.0459 32.6033C44.1253 32.562 44.1987 32.5104 44.2641 32.4499C44.3194 32.3766 44.366 32.2973 44.4031 32.2135C44.4293 32.1191 44.4444 32.022 44.4481 31.9241L44.45 31.9222ZM45.2191 32.9833V30.8891H45.5586V32.9833H45.2191ZM47.6211 32.7248C47.4619 32.8928 47.2417 32.9917 47.0086 32.9997C46.8724 33.0029 46.7372 32.9766 46.6124 32.9226C46.4914 32.8656 46.3832 32.7853 46.2944 32.6862C46.2 32.5835 46.1263 32.464 46.0772 32.3341C46.022 32.2038 45.9954 32.0634 45.9989 31.9222C45.9978 31.7812 46.0244 31.6413 46.0772 31.5103C46.1233 31.3838 46.1975 31.2692 46.2944 31.1746C46.3878 31.0806 46.495 31.0009 46.6124 30.9383C46.7583 30.8775 46.916 30.8495 47.0742 30.8561C47.2324 30.8628 47.3871 30.904 47.5272 30.9768C47.6627 31.0573 47.7725 31.1736 47.8442 31.3126L47.5879 31.4881C47.536 31.3817 47.4523 31.2936 47.3482 31.2354C47.2528 31.1875 47.1478 31.1612 47.0409 31.1584C46.9339 31.1555 46.8276 31.1762 46.7298 31.219C46.6451 31.261 46.5709 31.3209 46.5126 31.3945C46.4566 31.4676 46.4097 31.5469 46.3727 31.6309C46.3411 31.724 46.3278 31.8222 46.3335 31.9203C46.3381 32.0177 46.3512 32.1145 46.3727 32.2097C46.402 32.2972 46.4497 32.3778 46.5126 32.446C46.5714 32.5136 46.6459 32.5662 46.7298 32.5994C46.8169 32.6402 46.9122 32.6609 47.0086 32.6602C47.1192 32.6608 47.2281 32.6343 47.3257 32.583C47.4356 32.527 47.531 32.4468 47.6045 32.3486V32.1364H47.1701V31.8836H47.9059V32.939H47.627V32.7248H47.6211ZM48.3961 32.9833V30.8891H48.7366V32.9833H48.3961ZM50.8216 31.1582H50.1073V32.9612H49.7678V31.1582H49.0545V30.8688H50.8216V31.1582V31.1582ZM51.5349 30.8688H51.8284L52.665 32.9631H52.3078L52.0906 32.3968H51.2766L51.0594 32.9631H50.7022L51.5349 30.8688ZM52.03 32.1557L51.6895 31.2547L51.3343 32.1557H52.03ZM52.983 32.9804V30.8891H53.3235V32.692H54.476V32.9814L52.983 32.9804ZM57.2313 31.1553H56.5171V32.9583H56.1785V31.1582H55.4652V30.8688H57.2323V31.1582L57.2313 31.1553ZM57.9446 30.8659H58.2381L59.0747 32.9612H58.7185L58.5013 32.3949H57.6873L57.4701 32.9612H57.0904L57.9446 30.8659ZM58.4416 32.1557L58.1011 31.2547L57.745 32.1557H58.4416ZM59.3946 32.9804V30.8891H59.7351V32.692H60.8887V32.9814L59.3946 32.9804ZM62.6675 32.6833V32.9727H61.1998V30.8833H62.6274V31.1727H61.5354V31.7775H62.4884V32.0592H61.5354V32.7132L62.6675 32.6833ZM63.4033 31.491V32.9804H63.0628V30.8891H63.3191L64.5295 32.3949V30.8891H64.869V32.9833H64.5901L63.4033 31.491ZM67 31.1582H66.2867V32.9612H65.9472V31.1582H65.2329V30.8688H67V31.1582Z" fill="white"/>
</svg>
