<svg width="110" height="40" viewBox="0 0 110 40" fill="none" xmlns="http://www.w3.org/2000/svg">
<path d="M59 12.3C59.3 12.3 59.7 12.3 60.1 12.4C60.5 12.4 60.9 12.4 61.3 12.4C61.7 12.4 62.1 12.4 62.5 12.4C62.8 12.4 63.2 12.3 63.6 12.3C63.4 13.5 63.4 14.6 63.3 15.9C63.2 17.2 63.1 18.6 63.1 20.2C63.1 21.1 63.1 22 63.2 22.9C63.3 23.4 63.4 23.8 63.6 24.3C63.9 24.9 64.4 25.4 65.1 25.7C65.9 26.1 66.8 26.2 67.7 26.2C68.6 26.2 69.4 26.1 70.3 25.8C71 25.6 71.6 25.1 72 24.6C72.4 24.1 72.6 23.5 72.7 22.9C72.9 21.8 73 20.6 72.9 19.5C72.9 18.2 72.9 16.9 72.8 15.8C72.7 14.7 72.7 13.6 72.6 12.6C72.8 12.6 73 12.6 73.2 12.7C73.4 12.7 73.7 12.7 73.9 12.7C74.1 12.7 74.4 12.7 74.6 12.7C74.8 12.7 75 12.6 75.2 12.6C75.1 13.6 75.1 14.5 75 15.3C75 16.1 74.9 16.8 74.9 17.4C74.9 17.7 74.9 18.3 74.9 19C74.9 19.7 74.9 20.3 74.9 20.6C74.9 21.7 74.8 22.8 74.5 23.9C74.2 24.7 73.8 25.3 73.2 25.9C72.4 26.6 71.5 27.1 70.6 27.3C69.4 27.6 68.1 27.8 66.8 27.8C65.4 27.8 64 27.6 62.7 27.3C61.7 27 60.8 26.5 60.1 25.8C59.6 25.3 59.3 24.6 59.2 23.9C59 22.7 58.9 21.5 58.9 20.3V18.4C58.9 17 58.9 15.9 58.8 15.1C59.2 13.8 59.1 13 59 12.3ZM78.4 26.4C78.6 26 78.7 25.5 78.9 25C79 24.5 79.2 24 79.3 23.4H79.7C79.9 24.2 80.4 24.9 81.1 25.4C81.9 25.9 82.8 26.1 83.7 26.1C84.5 26.1 85.2 25.9 85.9 25.5C86.4 25.1 86.8 24.5 86.7 23.9C86.7 23.4 86.5 23 86.2 22.7C85.4 22.1 84.5 21.6 83.6 21.3C81.5 20.4 80.1 19.7 79.5 19C78.9 18.4 78.5 17.5 78.5 16.6C78.5 15.3 79.1 14.1 80.2 13.4C81.6 12.5 83.2 12.1 84.8 12.2C85.6 12.2 86.4 12.3 87.1 12.4C87.8 12.6 88.5 12.8 89.1 13.2C88.9 13.6 88.7 14 88.6 14.4C88.5 14.8 88.3 15.2 88.2 15.6H87.9C87.6 14.9 87.1 14.4 86.5 14.1C85.8 13.7 85 13.5 84.2 13.5C83.5 13.5 82.9 13.7 82.3 14C81.8 14.3 81.6 14.8 81.6 15.4C81.6 15.9 81.8 16.3 82.1 16.6C82.8 17.2 83.6 17.6 84.5 17.9C84.8 18 85.2 18.2 85.7 18.4C86.7 18.7 87.6 19.2 88.5 19.7C88.9 20.1 89.3 20.5 89.6 21C89.9 21.5 90 22.1 90 22.6C90 24 89.3 25.4 88.1 26.1C86.6 27.1 84.9 27.5 83.2 27.4C82.3 27.4 81.3 27.3 80.4 27.1C79.7 27 79 26.7 78.4 26.4ZM25 27.1C25.1 26 25.2 24.9 25.2 23.7C25.2 22.5 25.3 21.2 25.3 19.8C25.3 19.3 25.3 18.5 25.3 17.5C25.3 16.5 25.3 15.3 25.2 14H24.6C23.8 14 23 14 22.2 14.1C21.4 14.2 20.7 14.2 20 14.3C20 14.2 20 14 20.1 13.9C20.1 13.7 20.1 13.5 20.1 13.4C20.1 13.2 20.1 13 20.1 12.8C20.1 12.7 20.1 12.6 20.1 12.5C21.6 12.5 22.9 12.6 24 12.6C25.1 12.6 26.2 12.6 27.3 12.6C28.4 12.6 29.4 12.6 30.6 12.6C31.8 12.6 33.1 12.5 34.5 12.5C34.5 12.6 34.5 12.8 34.4 12.9C34.4 13.1 34.4 13.2 34.4 13.4C34.4 13.6 34.4 13.7 34.4 13.9C34.4 14.1 34.4 14.2 34.5 14.4C33.8 14.3 33.1 14.3 32.3 14.2C31.5 14.2 30.7 14.1 29.9 14.1H29.4C29.3 14.7 29.3 15.3 29.3 15.9C29.3 16.5 29.3 17.5 29.3 18.8C29.3 21 29.3 22.8 29.4 24C29.5 25.3 29.5 26.3 29.6 27.3C29.2 27.3 28.8 27.2 28.4 27.2C28 27.2 27.7 27.2 27.3 27.2C26.9 27.2 26.6 27.2 26.2 27.2C25.8 27.1 25.4 27.1 25 27.1ZM53.4 14C51.7 12.7 49.2 12 46.1 12H45.8C42.6 12.1 40.2 12.7 38.3 14.1C36.5 15.4 35.4 17.6 35.5 19.9C35.4 22.1 36.4 24.1 38.2 25.4C39.9 26.7 42.5 27.3 45.8 27.3C48.9 27.3 51.4 26.6 53.3 25.2C55.1 23.9 56.2 21.8 56.1 19.6C56 17.2 55.2 15.3 53.4 14ZM50.1 24.4C49 25.6 47.4 26.2 45.8 26.1C44.2 26.2 42.6 25.5 41.5 24.4C40.5 23.2 39.9 21.7 39.9 19.7C39.9 17.7 40.4 16.1 41.5 15C42.6 13.8 44.2 13.2 45.8 13.3C47.4 13.2 49 13.9 50.1 15C51.1 16.2 51.7 17.7 51.7 19.8C51.7 21.9 51.1 23.3 50.1 24.4Z" fill="white"/>
</svg>
