<svg width="110" height="40" viewBox="0 0 110 40" fill="none" xmlns="http://www.w3.org/2000/svg">
<path d="M51.6996 10.1004C51.1996 9.60039 50.3996 9.40039 49.6996 9.40039H45.7996L44.5996 18.8004H45.8996L46.9996 10.5004H49.4996C49.8996 10.5004 50.2996 10.6004 50.4996 10.8004C50.6996 11.0004 50.6996 11.4004 50.6996 11.7004C50.5996 12.7004 48.7996 13.7004 47.0996 13.9004L47.1996 15.1004H47.2996C49.7996 14.7004 51.9996 13.4004 52.1996 11.7004C52.1996 11.2004 51.9996 10.6004 51.6996 10.1004Z" fill="white"/>
<path d="M57 8.90039L54.2 10.0004L54 11.1004L56.9 10.0004L57 8.90039Z" fill="white"/>
<path d="M54.9996 11.9004C54.2996 11.9004 53.4996 12.0004 52.7996 12.2004L52.6996 13.3004H52.7996C53.4996 13.1004 54.1996 13.0004 54.8996 13.0004C55.3996 12.9004 55.8996 13.1004 56.3996 13.4004C56.4996 13.6004 56.5996 13.8004 56.5996 14.0004L56.3996 14.6004C55.7996 14.5004 55.2996 14.5004 54.6996 14.5004C52.8996 14.5004 51.7996 15.2004 51.6996 16.7004C51.5996 17.2004 51.6996 17.8004 51.9996 18.3004C52.4996 18.8004 53.1996 19.0004 53.9996 18.9004C54.6996 18.9004 55.3996 18.8004 56.0996 18.4004L56.4996 18.9004H57.1996L57.7996 14.2004C57.8996 13.7004 57.7996 13.1004 57.3996 12.7004C56.7996 12.2004 55.8996 11.9004 54.9996 11.9004ZM56.0996 17.3004C55.4996 17.7004 54.7996 17.8004 54.0996 17.8004C53.7996 17.8004 53.3996 17.7004 53.1996 17.5004C52.9996 17.3004 52.9996 17.0004 52.9996 16.7004C53.0996 16.0004 53.5996 15.7004 54.5996 15.7004C55.0996 15.7004 55.6996 15.7004 56.1996 15.8004C56.2996 15.8004 56.0996 17.3004 56.0996 17.3004Z" fill="white"/>
<path d="M62.4005 11.9004C60.2005 11.9004 58.9005 13.0004 58.5005 15.3004C58.3005 16.2004 58.5005 17.2004 59.0005 18.0004C59.6005 18.6004 60.4005 18.9004 61.2005 18.8004C61.7005 18.8004 62.3005 18.7004 62.8005 18.5004V18.7004C62.7005 19.6004 62.0005 20.2004 60.8005 20.2004C60.1005 20.2004 59.4005 20.1004 58.7005 19.9004H58.6005L58.5005 21.0004H58.6005C59.3005 21.2004 60.0005 21.3004 60.8005 21.3004C62.9005 21.3004 64.0005 20.4004 64.2005 18.8004L65.1005 12.2004H65.0005C64.2005 12.1004 63.3005 12.0004 62.4005 11.9004ZM63.2005 17.4004C62.7005 17.6004 62.2005 17.7004 61.6005 17.7004C61.1005 17.7004 60.6005 17.6004 60.3005 17.2004C59.9005 16.7004 59.8005 16.0004 59.9005 15.3004C60.0005 13.7004 60.8005 12.9004 62.2005 12.9004C62.7005 12.9004 63.1005 12.9004 63.6005 13.0004L63.2005 17.4004Z" fill="white"/>
<path d="M65.5 18.8004H66.9L67.8 11.9004H66.4L65.5 18.8004Z" fill="white"/>
<path d="M66.5996 10.6004H67.8996L68.0996 9.40039H66.6996L66.5996 10.6004Z" fill="white"/>
<path d="M72.6002 11.9005C71.7002 11.9005 70.8002 12.2005 70.1002 12.7005L70.0002 11.9005H69.1002L68.2002 18.9005H69.5002L70.2002 13.9005C70.7002 13.4005 71.4002 13.1005 72.2002 13.0005C72.6002 13.0005 72.9002 13.1005 73.2002 13.3005C73.4002 13.6005 73.5002 14.0005 73.4002 14.4005L72.8002 18.8005H74.1002L74.6002 14.4005C74.8002 13.7005 74.6002 13.0005 74.2002 12.4005C73.9002 12.1005 73.3002 11.8005 72.6002 11.9005Z" fill="white"/>
<path d="M78.6002 11.9004C77.9002 11.9004 77.1002 12.0004 76.4002 12.2004H76.3002L76.2002 13.3004H76.3002C77.0002 13.1004 77.7002 13.0004 78.4002 13.0004C78.9002 12.9004 79.4002 13.1004 79.9002 13.4004C80.1002 13.6004 80.1002 13.8004 80.0002 14.0004V14.6004C79.4002 14.5004 78.9002 14.5004 78.3002 14.5004C76.5002 14.5004 75.4002 15.2004 75.3002 16.7004C75.2002 17.2004 75.3002 17.8004 75.6002 18.3004C76.1002 18.8004 76.8002 19.0004 77.6002 18.9004C78.3002 18.9004 79.0002 18.8004 79.7002 18.4004L80.1002 18.9004H80.8002L81.4002 14.2004C81.5002 13.7004 81.4002 13.1004 81.0002 12.7004C80.6002 12.2004 79.8002 12.0004 78.6002 11.9004ZM79.7002 17.3004C79.1002 17.7004 78.4002 17.8004 77.7002 17.8004C77.4002 17.8004 77.0002 17.7004 76.8002 17.5004C76.6002 17.3004 76.5002 16.9004 76.6002 16.6004C76.7002 15.9004 77.2002 15.6004 78.2002 15.6004C78.7002 15.6004 79.3002 15.6004 79.8002 15.7004L79.7002 17.3004Z" fill="white"/>
<path d="M87.7 12.2004C87 12.0004 86.2 11.9004 85.4 11.9004C83.5 11.9004 82.5 12.6004 82.3 13.9004C82.2 14.4004 82.3 15.0004 82.6 15.4004C83 15.8004 83.6 16.0004 84.2 15.9004H85.3C85.6 15.9004 85.8 16.0004 86 16.1004C86.1 16.3004 86.2 16.5004 86.1 16.7004C86 17.3004 85.5 17.6004 84.4 17.6004C83.6 17.6004 82.9 17.5004 82.2 17.2004H82.1L82 18.6004H82.1C82.8 18.8004 83.6 18.9004 84.4 18.9004C86.3 18.9004 87.3 18.2004 87.5 16.9004C87.6 16.4004 87.5 15.8004 87.2 15.4004C86.7 15.0004 86.1 14.8004 85.5 14.8004H84.4C84.2 14.8004 83.9 14.7004 83.7 14.6004C83.6 14.4004 83.5 14.2004 83.6 14.0004C83.7 13.4004 84.2 13.1004 85.3 13.1004C86.1 13.1004 86.8 13.2004 87.5 13.5004H87.6L87.7 12.2004Z" fill="white"/>
<path d="M49.6 20.7998L44.5 30.2998H46.7L50.3 23.3998L51.1 25.8998H49.4L48.4 27.7998H51.5L52.3 30.2998H54.5L51.7 20.7998H49.6Z" fill="white"/>
<path d="M63.6002 23.1998C62.7002 23.1998 61.9002 23.4998 61.2002 23.9998C60.8002 23.3998 60.2002 23.0998 59.5002 23.1998C58.7002 23.1998 58.0002 23.4998 57.4002 23.8998L57.3002 23.1998H55.6002L54.7002 30.2998H56.8002L57.4002 25.7998C57.8002 25.3998 58.3002 25.0998 58.9002 25.0998C59.0002 25.0998 59.2002 25.0998 59.3002 25.1998C59.4002 25.3998 59.5002 25.6998 59.4002 25.8998L58.8002 30.2998H61.0002L61.6002 25.7998C62.0002 25.3998 62.5002 25.0998 63.0002 25.0998C63.2002 25.0998 63.3002 25.0998 63.4002 25.1998C63.5002 25.3998 63.6002 25.6998 63.5002 25.8998L63.0002 30.2998H65.1002L65.6002 26.0998C65.8002 25.2998 65.6002 24.4998 65.2002 23.8998C64.8002 23.3998 64.2002 23.0998 63.6002 23.1998Z" fill="white"/>
<path d="M69.5001 23.2002C68.8001 23.2002 68.0001 23.3002 67.3001 23.5002H67.2001L67.0001 25.3002L67.3001 25.2002C68.0001 25.0002 68.7001 24.9002 69.4001 24.9002C69.8001 24.8002 70.3001 24.9002 70.7001 25.2002C70.8001 25.3002 70.8001 25.4002 70.8001 25.5002V25.7002C70.4001 25.6002 69.9001 25.6002 69.5001 25.6002C67.5001 25.6002 66.4001 26.3002 66.2001 27.8002C66.1001 28.4002 66.2001 29.0002 66.6001 29.4002C67.2001 29.9002 68.0001 30.2002 68.8001 30.1002C69.4001 30.1002 70.0001 29.9002 70.6001 29.7002L71.2001 30.1002H72.3001L72.9001 25.5002C73.0001 24.9002 72.9001 24.4002 72.5001 23.9002C71.8001 23.5002 70.9001 23.2002 69.5001 23.2002ZM68.1001 28.0002C68.1001 27.9002 68.2001 27.5002 69.1001 27.5002C69.5001 27.5002 69.9001 27.5002 70.3001 27.6002L70.2001 28.1002C69.7001 28.4002 69.2001 28.5002 68.6001 28.5002C68.4001 28.5002 68.2001 28.5002 68.0001 28.3002C68.1001 28.2002 68.1001 28.1002 68.1001 28.0002Z" fill="white"/>
<path d="M77.5996 25.0002L77.7996 23.2002H77.4996C76.8996 23.2002 76.2996 23.4002 75.7996 23.8002L75.6996 23.2002H73.9996L73.0996 30.3002H75.1996L75.7996 25.8002C76.1996 25.4002 76.6996 25.1002 77.2996 25.1002L77.5996 25.0002Z" fill="white"/>
<path d="M77.2998 30.3002H79.3998L80.2998 23.2002H78.2998L77.2998 30.3002Z" fill="white"/>
<path d="M78.4998 20.7998L78.2998 22.5998H80.3998L80.6998 20.7998H78.4998Z" fill="white"/>
<path d="M81.7004 20.7998L80.4004 30.2998H82.5004L83.8004 20.7998H81.7004Z" fill="white"/>
<path d="M84.8 20.7998L83.5 30.2998H85.7L86.9 20.7998H84.8Z" fill="white"/>
<path d="M90.0997 23.2002C89.3997 23.2002 88.5997 23.3002 87.8997 23.5002H87.7997L87.4997 25.4002L87.8997 25.3002C88.5997 25.1002 89.2997 25.0002 89.9997 25.0002C90.3997 24.9002 90.8997 25.0002 91.2997 25.3002C91.3997 25.4002 91.3997 25.5002 91.3997 25.6002V25.8002C90.9997 25.7002 90.4997 25.7002 90.0997 25.7002C88.0997 25.7002 86.9997 26.4002 86.7997 27.9002C86.6997 28.5002 86.7997 29.1002 87.1997 29.5002C87.7997 30.0002 88.5997 30.3002 89.3997 30.2002C89.9997 30.2002 90.6997 30.0002 91.1997 29.8002L91.7997 30.2002H92.8997L93.4997 25.6002C93.5997 25.0002 93.4997 24.5002 93.0997 24.0002C92.4997 23.5002 91.5997 23.2002 90.0997 23.2002ZM88.7997 28.0002C88.7997 27.9002 88.8997 27.5002 89.7997 27.5002C90.1997 27.5002 90.5997 27.5002 90.9997 27.6002V28.1002C90.4997 28.4002 89.9997 28.5002 89.4997 28.5002C89.2997 28.5002 89.0997 28.5002 88.8997 28.3002C88.7997 28.2002 88.6997 28.1002 88.7997 28.0002Z" fill="white"/>
<path d="M101.6 23.2C101.7 23.2 101.8 23.3 101.8 23.3C101.9 23.4 101.9 23.4 101.9 23.5C101.9 23.6 102 23.7 102 23.8C102 23.9 102 24 101.9 24.1C101.9 24.2 101.8 24.3 101.8 24.3C101.7 24.4 101.7 24.4 101.6 24.4C101.5 24.4 101.4 24.5 101.3 24.5C101.2 24.5 101.1 24.5 101 24.4C100.9 24.4 100.8 24.3 100.8 24.3C100.7 24.2 100.7 24.2 100.7 24.1C100.7 24 100.6 23.9 100.6 23.8C100.6 23.7 100.6 23.6 100.7 23.5C100.8 23.3 100.9 23.2 101.1 23.1C101.2 23.1 101.3 23 101.4 23C101.4 23.1 101.5 23.1 101.6 23.2ZM101.1 23.3C101 23.3 101 23.4 100.9 23.4C100.8 23.5 100.8 23.5 100.8 23.6C100.8 23.7 100.7 23.7 100.7 23.8C100.7 23.9 100.7 24 100.8 24C100.8 24.1 100.9 24.1 100.9 24.2C101 24.3 101 24.3 101.1 24.3C101.2 24.3 101.2 24.4 101.3 24.4C101.4 24.4 101.5 24.4 101.5 24.3C101.6 24.3 101.6 24.2 101.7 24.2C101.8 24.1 101.8 24.1 101.8 24C101.8 23.9 101.9 23.8 101.9 23.8C101.9 23.7 101.9 23.6 101.8 23.6C101.8 23.5 101.7 23.5 101.7 23.4C101.6 23.3 101.6 23.3 101.5 23.3C101.4 23.3 101.3 23.3 101.3 23.2C101.2 23.2 101.1 23.2 101.1 23.3ZM101.1 24.2V23.4H101.4C101.5 23.4 101.5 23.4 101.6 23.5C101.6 23.5 101.7 23.6 101.7 23.7V23.8C101.7 23.8 101.7 23.8 101.6 23.9L101.5 24H101.4L101.7 24.4H101.6L101.4 24H101.2V24.4L101.1 24.2ZM101.4 23.8C101.4 23.8 101.5 23.8 101.4 23.8C101.5 23.8 101.5 23.8 101.5 23.8V23.7V23.6C101.5 23.6 101.5 23.6 101.5 23.5C101.5 23.4 101.5 23.5 101.4 23.5H101.1V23.8H101.4Z" fill="white"/>
<path d="M37.4 21.7H33.9C32.9 21.7 32.1 21.1 31.7 20.2L31 18.6H24C24.8 17.4 25.4 16.1 25.6 14.6H29.3L25.6 5H30.2L37.4 21.7ZM24.5 13.3C24.5 17.9 20.8 21.5 16.2 21.6C14.8 21.6 13.5 21.3 12.3 20.6V26.1C12.3 27.4 11.3 28.4 10 28.4C10 28.4 10 28.4 9.9 28.4H8V13.3C8 8.7 11.7 5 16.3 5C20.9 5 24.5 8.7 24.5 13.3ZM20.2 13.3C20.2 11.1 18.4 9.4 16.3 9.4C14.2 9.4 12.4 11.2 12.4 13.3C12.4 15.4 14.2 17.2 16.3 17.2C18.4 17.2 20.2 15.4 20.2 13.3Z" fill="white"/>
<path opacity="0.6" d="M8 30.2998V33.7998C8 33.8998 8.1 34.0998 8.3 34.0998H9.3C10.4 34.1998 11.4 33.3998 11.5 32.2998C11.5 32.1998 11.5 32.1998 11.5 32.0998C11.5 30.9998 10.6 30.0998 9.4 30.0998C9.3 30.0998 9.3 30.0998 9.2 30.0998H8.2C8.1 30.0998 8 30.1998 8 30.2998ZM8.6 30.5998H9.3C10.1 30.5998 10.8 31.2998 10.8 32.0998C10.8 32.8998 10.1 33.5998 9.3 33.5998H8.6V30.5998ZM13.7 30.2998V33.7998C13.7 33.9998 13.9 34.0998 14 33.9998C14.1 33.9998 14.2 33.8998 14.2 33.7998V30.2998C14.2 30.0998 14 29.9998 13.9 30.0998C13.8 30.0998 13.7 30.1998 13.7 30.2998ZM22.2 30.2998V33.7998C22.2 33.9998 22.4 34.0998 22.5 33.9998C22.6 33.9998 22.7 33.8998 22.7 33.7998V30.2998C22.7 30.0998 22.5 29.9998 22.4 30.0998C22.3 30.0998 22.2 30.1998 22.2 30.2998ZM26.5 30.5998H27.5C27.6 30.5998 27.8 30.4998 27.8 30.3998C27.8 30.2998 27.7 30.1998 27.6 30.0998H25C24.9 30.0998 24.7 30.1998 24.7 30.3998C24.7 30.4998 24.8 30.5998 24.9 30.6998H25.9V33.8998C25.9 34.0998 26.1 34.1998 26.2 34.0998C26.3 34.0998 26.4 33.9998 26.4 33.8998L26.5 30.5998ZM32.6 33.6998L31.2 30.4998C31.1 30.1998 31 30.0998 30.7 30.0998C30.4 30.0998 30.4 30.1998 30.2 30.4998L29 33.6998C28.9 33.8998 29 34.0998 29.2 34.0998C29.4 34.0998 29.5 33.9998 29.5 33.7998L29.8 32.9998H31.7L32 33.7998C32.1 33.9998 32.2 34.0998 32.4 34.0998C32.6 34.0998 32.8 33.8998 32.6 33.6998ZM30.1 32.5998L30.8 30.7998L31.5 32.5998H30.1ZM34.8 30.3998V33.8998C34.8 33.9998 34.9 34.1998 35.1 34.1998H37.2C37.3 34.1998 37.5 34.0998 37.5 33.8998C37.5 33.7998 37.4 33.5998 37.3 33.5998H35.5V30.3998C35.5 30.1998 35.4 30.0998 35.2 30.0998C34.9 30.0998 34.8 30.1998 34.8 30.3998C34.7 30.3998 34.7 30.2998 34.8 30.3998ZM19.7 31.9998H18.7C18.5 31.9998 18.4 32.1998 18.5 32.2998C18.5 32.3998 18.6 32.4998 18.7 32.4998H19.4V33.3998C19.1 33.5998 18.8 33.5998 18.5 33.5998C17.7 33.5998 17 32.9998 17 32.1998V32.0998C17 31.2998 17.6 30.5998 18.4 30.5998C18.4 30.5998 18.4 30.5998 18.5 30.5998C19.2 30.5998 19.4 30.9998 19.7 30.9998C19.8 30.9998 20 30.8998 20 30.7998C20 30.4998 19.4 30.1998 18.6 30.1998C17.5 30.1998 16.5 30.9998 16.5 32.0998V32.1998C16.5 33.2998 17.4 34.2998 18.5 34.2998C18.5 34.2998 18.5 34.2998 18.6 34.2998C19.4 34.2998 20.1 33.9998 20.1 33.5998V32.4998C20 32.0998 19.8 31.9998 19.7 31.9998Z" fill="white"/>
<path d="M97.5996 25.8H96.5996C96.3996 25.8 96.2996 25.8 96.1996 25.7C96.1996 25.6 96.1996 25.5 96.1996 25.4C96.1996 25.1 96.5996 24.9 97.3996 24.9C98.1996 24.9 98.8996 25 99.5996 25.3L99.8996 25.4L100.2 23.5L99.9996 23.4C99.2996 23.1 98.4996 23 97.6996 23C95.6996 23 94.4996 23.8 94.2996 25.3C94.1996 25.9 94.2996 26.5 94.6996 27C95.0996 27.4 95.6996 27.6 96.2996 27.6H97.4996C97.5996 27.6 97.6996 27.6 97.8996 27.7C97.8996 27.8 97.8996 27.9 97.8996 28C97.8996 28.1 97.7996 28.5 96.9996 28.5C96.1996 28.5 95.3996 28.4 94.6996 28.1L94.3996 28L94.0996 29.9L94.2996 30C95.0996 30.3 95.8996 30.4 96.7996 30.4C98.7996 30.4 99.7996 29.6 99.9996 28.1C100.1 27.5 99.9996 26.9 99.5996 26.4C98.8996 25.9 98.1996 25.7 97.5996 25.8Z" fill="white"/>
</svg>
