<svg width="110" height="40" viewBox="0 0 110 40" fill="none" xmlns="http://www.w3.org/2000/svg">
<path fill-rule="evenodd" clip-rule="evenodd" d="M69.6996 28.2V30.3C69.5996 30.2 69.4996 30.1 69.2996 30C69.0996 29.9 68.8996 29.9 68.6996 29.9C68.3996 29.9 68.0996 30 67.7996 30.1C67.4996 30.3 67.2996 30.5 67.0996 30.8C66.8996 31.2 66.7996 31.6 66.8996 32C66.8996 32.5 66.9996 33.1 67.3996 33.5C67.8996 34 68.5996 34.2 69.2996 33.9C69.4996 33.8 69.6996 33.6 69.7996 33.4L69.8996 33.9H71.1996C71.1996 33.8 71.1996 33.6 71.1996 33.4C71.1996 33.2 71.1996 32.9 71.1996 32.7V28.2H69.6996V28.2ZM69.6996 32.2V32.3V32.4C69.6996 32.5 69.5996 32.7 69.4996 32.7C69.3996 32.8 69.2996 32.8 69.0996 32.8C68.8996 32.8 68.6996 32.7 68.5996 32.6C68.4996 32.4 68.3996 32.2 68.3996 31.9C68.3996 31.7 68.3996 31.4 68.5996 31.2C68.6996 31 68.8996 30.9 69.0996 30.9C69.1996 30.9 69.3996 31 69.4996 31C69.5996 31.1 69.6996 31.2 69.6996 31.4V31.5V32.2ZM75.3996 32.5C75.3996 32.4 75.3996 32.4 75.3996 32.3C75.3996 32.2 75.3996 32.1 75.3996 32C75.3996 31.7 75.3996 31.3 75.2996 31C75.1996 30.7 74.9996 30.4 74.6996 30.3C74.3996 30.1 73.9996 30 73.5996 30C73.1996 30 72.7996 30.1 72.3996 30.3C72.0996 30.5 71.8996 30.8 71.6996 31.1C71.5996 31.4 71.4996 31.7 71.4996 32C71.4996 32.6 71.6996 33.1 72.0996 33.5C72.5996 33.9 73.1996 34.1 73.7996 34C74.0996 34 74.2996 34 74.5996 34C74.8996 34 75.0996 33.9 75.2996 33.8L75.0996 32.8C74.8996 32.9 74.6996 32.9 74.5996 32.9C74.3996 32.9 74.1996 32.9 73.9996 32.9C73.7996 32.9 73.4996 32.9 73.2996 32.8C73.0996 32.7 72.9996 32.6 72.9996 32.4L75.3996 32.5ZM72.8996 31.5C72.8996 31.3 72.9996 31.2 73.0996 31.1C73.1996 31 73.3996 30.9 73.5996 30.9C73.7996 30.9 73.9996 31 74.0996 31.1C74.1996 31.2 74.1996 31.4 74.1996 31.5H72.8996ZM79.9996 32.8C79.8996 32.8 79.7996 32.9 79.6996 32.9C79.5996 32.9 79.4996 32.9 79.3996 32.9C79.1996 32.9 78.8996 32.8 78.6996 32.7C78.4996 32.5 78.3996 32.2 78.3996 32C78.3996 31.7 78.4996 31.5 78.6996 31.3C78.8996 31.1 79.0996 31 79.3996 31C79.4996 31 79.6996 31 79.7996 31C79.8996 31 79.9996 31 79.9996 31.1L80.1996 30C80.0996 29.9 79.8996 29.9 79.6996 29.9C79.4996 29.9 79.3996 29.9 79.1996 29.9C78.6996 29.9 78.2996 30 77.8996 30.2C77.5996 30.4 77.2996 30.6 77.0996 31C76.8996 31.3 76.7996 31.7 76.7996 32.1C76.7996 32.7 76.9996 33.2 77.3996 33.6C77.7996 34 78.3996 34.2 78.9996 34.1C79.1996 34.1 79.3996 34.1 79.5996 34.1C79.7996 34.1 79.8996 34 80.0996 34L79.9996 32.8ZM81.8996 34V30H80.3996V34H81.8996ZM81.1996 29.5C81.3996 29.5 81.5996 29.4 81.7996 29.3C82.0996 29 82.0996 28.5 81.7996 28.2C81.5996 28.1 81.3996 28 81.1996 28C80.9996 28 80.7996 28.1 80.5996 28.2C80.2996 28.5 80.2996 29 80.5996 29.3C80.7996 29.5 80.9996 29.6 81.1996 29.5ZM86.4996 30H84.9996V32.4V32.5V32.6C84.9996 32.7 84.8996 32.8 84.7996 32.8C84.6996 32.9 84.5996 32.9 84.4996 32.9C84.2996 32.9 84.1996 32.8 84.0996 32.7C83.9996 32.5 83.9996 32.3 83.9996 32.1V30H82.4996V32.4C82.4996 32.9 82.5996 33.3 82.8996 33.7C83.1996 34 83.5996 34.2 83.8996 34.1C84.1996 34.1 84.4996 34 84.6996 33.9C84.8996 33.8 84.9996 33.6 85.0996 33.5L85.1996 34H86.3996C86.3996 33.8 86.3996 33.6 86.3996 33.4C86.3996 33.2 86.3996 32.9 86.3996 32.6L86.4996 30ZM89.6996 28.2V30.3C89.5996 30.2 89.4996 30.1 89.2996 30C89.0996 29.9 88.8996 29.9 88.6996 29.9C88.3996 29.9 88.0996 30 87.7996 30.1C87.4996 30.3 87.2996 30.5 87.0996 30.8C86.8996 31.2 86.7996 31.6 86.8996 32C86.8996 32.5 87.0996 33.1 87.3996 33.5C87.6996 33.9 88.0996 34.1 88.5996 34.1C88.7996 34.1 89.0996 34 89.2996 34C89.4996 33.9 89.6996 33.7 89.7996 33.5L89.8996 34H91.1996C91.1996 33.9 91.1996 33.7 91.1996 33.5C91.1996 33.3 91.1996 33 91.1996 32.8V28.3H89.6996V28.2ZM89.6996 32.2V32.3V32.4C89.6996 32.5 89.5996 32.7 89.4996 32.7C89.3996 32.8 89.2996 32.8 89.0996 32.8C88.8996 32.8 88.6996 32.7 88.5996 32.6C88.4996 32.4 88.3996 32.2 88.3996 31.9C88.3996 31.7 88.4996 31.4 88.5996 31.2C88.6996 31 88.8996 30.9 89.0996 30.9C89.1996 30.9 89.3996 31 89.4996 31C89.5996 31.1 89.6996 31.2 89.6996 31.4V31.5V32.2ZM95.2996 31.7C95.2996 31.2 95.1996 30.8 94.8996 30.4C94.4996 30 93.9996 29.8 93.4996 29.9C93.0996 29.9 92.7996 29.9 92.4996 30C92.2996 30.1 92.0996 30.1 91.8996 30.2L92.1996 31.1C92.3996 31 92.4996 30.9 92.6996 30.9C92.8996 30.8 93.0996 30.8 93.2996 30.8C93.4996 30.8 93.6996 30.8 93.7996 30.9C93.8996 30.9 93.8996 31 93.8996 31.1C93.2996 31.1 92.7996 31.2 92.1996 31.5C91.7996 31.7 91.4996 32.2 91.4996 32.7C91.4996 33 91.5996 33.3 91.8996 33.6C92.1996 33.9 92.4996 34 92.8996 34C93.0996 34 93.2996 34 93.4996 33.9C93.6996 33.8 93.8996 33.7 93.9996 33.6V34H95.2996C95.2996 33.9 95.2996 33.7 95.2996 33.6C95.2996 33.4 95.2996 33.2 95.2996 33V31.7ZM93.8996 32.5V32.6V32.7C93.8996 32.8 93.7996 32.9 93.6996 33C93.5996 33.1 93.4996 33.1 93.3996 33.1C93.2996 33.1 93.1996 33.1 93.0996 33C92.9996 32.9 92.9996 32.8 92.9996 32.7C92.9996 32.5 93.0996 32.4 93.1996 32.3C93.3996 32.2 93.6996 32.2 93.8996 32.2V32.5ZM98.4996 28.2V30.3C98.3996 30.2 98.1996 30.1 98.0996 30C97.8996 29.9 97.6996 29.9 97.4996 29.9C97.1996 29.9 96.8996 30 96.5996 30.1C96.2996 30.3 96.0996 30.5 95.9996 30.8C95.7996 31.2 95.6996 31.6 95.6996 32C95.6996 32.5 95.8996 33.1 96.1996 33.5C96.4996 33.9 96.8996 34.1 97.3996 34.1C97.5996 34.1 97.8996 34 98.0996 34C98.2996 33.9 98.4996 33.7 98.5996 33.5L98.6996 34H99.9996C99.9996 33.9 99.9996 33.7 99.9996 33.5C99.9996 33.3 99.9996 33 99.9996 32.8V28.3H98.4996V28.2ZM98.4996 32.2V32.3V32.4C98.4996 32.5 98.3996 32.7 98.2996 32.7C98.1996 32.8 98.0996 32.8 97.8996 32.8C97.6996 32.8 97.4996 32.7 97.3996 32.6C97.2996 32.4 97.1996 32.1 97.1996 31.9C97.1996 31.7 97.2996 31.4 97.3996 31.2C97.4996 31 97.6996 30.9 97.8996 30.9C97.9996 30.9 98.1996 31 98.2996 31C98.3996 31.1 98.4996 31.2 98.4996 31.4V31.5V32.2ZM36.7996 34H37.4996V31.7C37.4996 31.6 37.4996 31.6 37.4996 31.5C37.4996 31.4 37.4996 31.4 37.4996 31.4C37.5996 31.2 37.6996 31 37.7996 30.9C37.9996 30.8 38.1996 30.7 38.3996 30.7C38.6996 30.7 38.8996 30.8 39.0996 31C39.1996 31.3 39.2996 31.5 39.2996 31.8V34H39.9996V31.7C39.9996 31.4 39.8996 31 39.7996 30.7C39.5996 30.3 39.1996 30.1 38.6996 30.1C38.3996 30.1 38.0996 30.2 37.8996 30.3C37.6996 30.4 37.5996 30.6 37.3996 30.8L37.2996 30.2H36.6996V30.7C36.6996 30.9 36.6996 31 36.6996 31.2L36.7996 34ZM42.1996 34H42.8996V31.7C42.8996 31.6 42.8996 31.6 42.8996 31.5C42.8996 31.4 42.8996 31.4 42.8996 31.3C42.9996 31.1 43.0996 31 43.1996 30.8C43.3996 30.7 43.4996 30.6 43.6996 30.6C43.8996 30.6 44.1996 30.7 44.2996 30.9C44.3996 31.1 44.4996 31.4 44.4996 31.6V34H45.1996V31.6C45.1996 31.5 45.1996 31.5 45.1996 31.4C45.1996 31.3 45.1996 31.3 45.1996 31.2C45.2996 31 45.3996 30.9 45.4996 30.8C45.5996 30.7 45.7996 30.6 45.9996 30.6C46.1996 30.6 46.4996 30.7 46.5996 30.9C46.6996 31.2 46.7996 31.4 46.7996 31.7V34H47.4996V31.8C47.4996 31.4 47.4996 31.1 47.3996 30.8C47.2996 30.6 47.0996 30.4 46.8996 30.3C46.6996 30.2 46.4996 30.2 46.3996 30.2C46.1996 30.2 46.0996 30.2 45.8996 30.3C45.7996 30.3 45.5996 30.4 45.4996 30.5C45.3996 30.6 45.2996 30.6 45.2996 30.7C45.1996 30.8 45.1996 30.9 45.0996 31C44.9996 30.8 44.8996 30.6 44.6996 30.5C44.4996 30.4 44.2996 30.3 44.0996 30.3C43.7996 30.3 43.5996 30.4 43.2996 30.5C43.0996 30.6 42.9996 30.8 42.8996 31L42.7996 30.4H42.1996V30.9C42.1996 31.1 42.1996 31.2 42.1996 31.4V34ZM49.9996 34.1C50.2996 34.1 50.5996 34 50.8996 33.9C51.1996 33.8 51.3996 33.5 51.5996 33.2C51.7996 32.9 51.8996 32.5 51.8996 32.1C51.8996 31.6 51.6996 31.1 51.3996 30.7C51.0996 30.3 50.5996 30.1 50.0996 30.2C49.5996 30.2 49.0996 30.4 48.7996 30.7C48.3996 31.1 48.1996 31.6 48.2996 32.2C48.2996 32.7 48.4996 33.2 48.7996 33.6C49.0996 33.9 49.4996 34.1 49.9996 34.1ZM49.9996 33.6C49.6996 33.6 49.3996 33.4 49.1996 33.2C48.9996 32.9 48.8996 32.5 48.8996 32.2C48.8996 32 48.8996 31.7 48.9996 31.5C49.0996 31.3 49.1996 31.1 49.3996 31C49.5996 30.9 49.7996 30.8 50.0996 30.8C50.2996 30.8 50.5996 30.9 50.7996 31C50.9996 31.2 51.0996 31.3 51.1996 31.6C51.2996 31.8 51.2996 32 51.2996 32.3C51.2996 32.7 51.1996 33.1 50.9996 33.4C50.6996 33.4 50.3996 33.6 49.9996 33.6ZM55.0996 28.4V30.7C54.9996 30.5 54.7996 30.4 54.6996 30.3C54.4996 30.2 54.1996 30.1 53.9996 30.1C53.6996 30.1 53.3996 30.2 53.1996 30.3C52.8996 30.5 52.6996 30.7 52.5996 31C52.3996 31.3 52.3996 31.7 52.3996 32.1C52.3996 32.6 52.5996 33.1 52.8996 33.5C53.1996 33.8 53.5996 34 54.0996 34C54.3996 34 54.6996 33.9 54.8996 33.8C55.0996 33.7 55.2996 33.5 55.3996 33.3V34H55.9996C55.9996 33.9 55.9996 33.7 55.9996 33.5C55.9996 33.3 55.9996 33.2 55.9996 33V28.4H55.0996ZM55.0996 32.4C55.0996 32.5 55.0996 32.6 55.0996 32.7C54.9996 33.2 54.5996 33.5 54.0996 33.5C53.7996 33.5 53.4996 33.3 53.2996 33.1C53.0996 32.8 52.9996 32.5 52.9996 32.1C52.9996 31.7 53.0996 31.3 53.2996 31C53.4996 30.7 53.7996 30.6 54.0996 30.6C54.2996 30.6 54.5996 30.7 54.6996 30.8C54.8996 30.9 54.9996 31.1 54.9996 31.4V31.5L55.0996 32.4ZM59.6996 32.3V32.2C59.6996 32.2 59.6996 32.1 59.6996 32C59.6996 31.7 59.6996 31.5 59.5996 31.2C59.4996 30.9 59.2996 30.7 59.0996 30.5C58.7996 30.3 58.4996 30.2 58.1996 30.2C57.8996 30.2 57.4996 30.3 57.1996 30.5C56.8996 30.7 56.6996 30.9 56.5996 31.2C56.3996 31.5 56.3996 31.9 56.3996 32.2C56.3996 32.7 56.5996 33.2 56.8996 33.6C57.2996 34 57.7996 34.1 58.2996 34.1C58.5996 34.1 58.7996 34.1 59.0996 34C59.2996 34 59.3996 33.9 59.5996 33.8L59.4996 33.3C59.3996 33.4 59.1996 33.4 59.0996 33.4C58.8996 33.4 58.6996 33.5 58.4996 33.5C57.7996 33.6 57.2996 33.1 57.1996 32.4C57.1996 32.3 57.1996 32.3 57.1996 32.2L59.6996 32.3ZM56.9996 31.8C56.9996 31.6 57.0996 31.5 57.0996 31.3C57.1996 31.1 57.2996 31 57.3996 30.9C57.5996 30.8 57.7996 30.7 57.9996 30.7C58.1996 30.7 58.3996 30.8 58.5996 30.9C58.6996 31 58.7996 31.2 58.8996 31.3C58.8996 31.5 58.9996 31.6 58.9996 31.8H56.9996ZM60.1996 34H60.8996V28.4H60.1996V34ZM63.2996 34.1C63.5996 34.1 63.8996 34 64.1996 33.9C64.4996 33.7 64.6996 33.5 64.8996 33.2C65.0996 32.8 65.1996 32.5 65.1996 32.1C65.1996 31.6 64.9996 31.1 64.6996 30.7C64.3996 30.3 63.8996 30.1 63.3996 30.1C62.8996 30.1 62.3996 30.3 62.0996 30.6C61.6996 31 61.4996 31.5 61.5996 32.1C61.5996 32.6 61.7996 33.1 62.0996 33.5C62.2996 33.9 62.7996 34.1 63.2996 34.1ZM63.2996 33.6C62.9996 33.6 62.6996 33.4 62.4996 33.2C62.2996 32.9 62.1996 32.5 62.1996 32.2C62.1996 32 62.1996 31.7 62.2996 31.5C62.3996 31.3 62.4996 31.1 62.6996 31C62.8996 30.9 63.0996 30.8 63.3996 30.8C63.5996 30.8 63.8996 30.9 64.0996 31C64.2996 31.2 64.3996 31.3 64.4996 31.6C64.5996 31.8 64.5996 32 64.5996 32.3C64.5996 32.7 64.4996 33.1 64.2996 33.4C63.8996 33.4 63.5996 33.6 63.2996 33.6ZM32.0996 28.7V31.8C32.0996 32.4 32.1996 33.1 32.5996 33.6C32.9996 34 33.4996 34.1 33.9996 34.1C34.4996 34.1 35.0996 33.9 35.3996 33.6C35.7996 33.1 35.9996 32.5 35.9996 31.8V28.7H35.2996V31.9C35.2996 32.4 35.1996 32.8 34.9996 33.2C34.7996 33.5 34.3996 33.6 34.0996 33.6C33.7996 33.6 33.3996 33.5 33.1996 33.2C32.8996 32.8 32.7996 32.4 32.8996 31.9V28.7H32.0996V28.7Z" fill="white"/>
<path fill-rule="evenodd" clip-rule="evenodd" d="M35.6996 14.1996H34.9996L32.0996 23.0996H33.0996L33.8996 20.4996H36.6996L37.5996 23.0996H38.5996L35.6996 14.1996ZM99.6996 14.7996C99.2996 14.3996 98.6996 14.1996 98.1996 14.1996C96.9996 14.1996 96.1996 15.1996 96.1996 16.5996C96.1996 17.4996 96.6996 18.3996 97.4996 18.8996L98.1996 19.4996C98.6996 19.7996 99.0996 20.3996 99.0996 21.0996C99.0996 21.6996 98.6996 22.1996 98.0996 22.2996C97.5996 22.2996 97.1996 22.0996 96.8996 21.6996C96.6996 21.4996 96.4996 21.1996 96.3996 20.9996V22.5996C96.8996 23.0996 97.4996 23.3996 98.1996 23.3996C99.2996 23.3996 100.1 22.3996 100.1 20.9996C100.1 19.9996 99.6996 19.0996 98.8996 18.4996L97.9996 17.7996C97.2996 17.2996 97.0996 16.8996 97.0996 16.2996C97.0996 15.6996 97.4996 15.2996 98.0996 15.2996H98.1996C98.7996 15.2996 99.3996 15.6996 99.7996 16.1996L99.6996 14.7996ZM91.8996 16.1996L92.9996 19.3996H90.9996L91.8996 16.1996ZM92.1996 14.1996H91.4996L88.6996 23.0996H89.6996L90.4996 20.4996H93.2996L94.1996 23.0996H95.1996L92.1996 14.1996ZM82.3996 15.3996H83.5996C84.1996 15.2996 84.6996 15.3996 85.1996 15.6996C86.0996 16.3996 86.6996 17.4996 86.5996 18.5996C86.5996 20.0996 85.8996 21.3996 84.8996 21.7996C84.5996 21.9996 84.0996 21.9996 83.6996 21.9996H82.3996V15.3996ZM81.4996 14.2996V23.1996H83.5996C84.1996 23.2996 84.7996 23.1996 85.3996 22.8996C86.8996 22.0996 87.7996 20.3996 87.6996 18.6996C87.7996 17.1996 87.0996 15.6996 85.9996 14.7996C85.6996 14.5996 85.3996 14.4996 85.0996 14.3996C84.6996 14.2996 84.2996 14.2996 83.8996 14.2996H81.4996ZM79.3996 14.2996H78.4996V21.1996L73.9996 14.2996H73.1996V23.1996H74.0996V16.3996L78.4996 23.1996H79.2996L79.3996 14.2996ZM71.4996 14.2996H67.6996V23.1996H71.5996V21.9996H68.6996V19.1996H71.3996V18.0996H68.6996V15.3996H71.4996V14.2996ZM62.5996 19.1996H63.4996C64.1996 19.1996 64.5996 19.2996 64.7996 19.5996C65.0996 19.8996 65.1996 20.1996 65.1996 20.5996C65.1996 20.9996 64.9996 21.3996 64.6996 21.6996C64.4996 21.8996 64.1996 21.9996 63.4996 21.9996H62.5996V19.1996ZM62.5996 15.3996H63.3996C64.1996 15.3996 64.5996 15.7996 64.5996 16.6996C64.6996 17.1996 64.3996 17.7996 63.8996 17.9996C63.6996 18.0996 63.3996 18.0996 63.1996 18.0996H62.5996V15.3996ZM61.5996 14.2996V23.1996H63.3996H63.7996C64.2996 23.1996 64.6996 23.0996 65.0996 22.7996C65.6996 22.2996 66.0996 21.5996 66.0996 20.7996C66.1996 19.7996 65.4996 18.8996 64.4996 18.5996C65.1996 18.1996 65.5996 17.4996 65.4996 16.6996C65.5996 15.8996 65.1996 15.1996 64.5996 14.6996C64.1996 14.4996 63.7996 14.3996 63.2996 14.3996L61.5996 14.2996ZM56.2996 15.2996C57.7996 15.2996 58.8996 16.7996 58.8996 18.5996C58.8996 20.3996 57.7996 21.9996 56.2996 21.9996C54.7996 21.9996 53.6996 20.5996 53.6996 18.6996C53.6996 16.7996 54.7996 15.2996 56.2996 15.2996ZM56.1996 14.0996C54.0996 14.0996 52.5996 15.9996 52.5996 18.6996C52.5996 21.3996 54.0996 23.1996 56.0996 23.1996C58.0996 23.1996 59.6996 21.2996 59.6996 18.5996C59.6996 15.8996 58.2996 14.0996 56.1996 14.0996ZM51.0996 14.8996C50.3996 14.3996 49.5996 14.1996 48.7996 14.1996C46.7996 14.1996 45.1996 16.1996 45.1996 18.7996C45.1996 20.0996 45.5996 21.2996 46.3996 22.2996C46.9996 22.9996 47.7996 23.3996 48.6996 23.2996C49.5996 23.2996 50.3996 22.9996 51.0996 22.4996V21.0996C50.4996 21.6996 49.5996 22.0996 48.6996 22.0996C47.1996 22.0996 46.0996 20.6996 46.0996 18.7996C46.0996 16.8996 47.1996 15.3996 48.7996 15.3996C49.5996 15.3996 50.3996 15.6996 51.0996 16.2996V14.8996ZM40.9996 14.2996H39.9996V23.1996H43.9996V21.9996H40.9996V14.2996ZM35.2996 16.1996L36.3996 19.3996H34.2996L35.2996 16.1996Z" fill="white"/>
<path fill-rule="evenodd" clip-rule="evenodd" d="M10 14H19.3V25.1H10V14ZM28 11.6L28.3 11L28.1 10.9C25.6 9.5 22.8 8.8 20 8.8C17.1 8.8 14.2 9.5 11.7 11L12 11.5L12.8 11L13.1 11.6L12.3 12.1L12.6 12.6C14.9 11.3 17.4 10.7 20 10.7C22.6 10.7 25.1 11.4 27.4 12.6L27.7 12.2L26.9 11.7L27.3 11.1L28 11.6ZM23.3 9.8L24.3 10L24.1 10.7L23.1 10.5L23.3 9.8ZM19.4 9.5H20.4V10.2H19.4V9.5ZM15.5 10L16.5 9.7L16.7 10.4L15.7 10.7L15.5 10ZM20.7 14H30V25.1H20.7V14ZM30 26.5C30 32 25.5 36.5 20 36.5C14.5 36.5 10 32 10 26.5H30ZM12.2 9.5L11.3 7.5L10 8.1L11.1 10L12.2 9.5ZM14.2 8.6L13.6 6.5L12.3 6.9L13.1 9L14.2 8.6ZM16.2 7.9L15.7 5.8L14.4 6.1L15 8.3L16.2 7.9ZM18.3 7.7L18.1 5.5L16.7 5.7L17.1 7.9L18.3 7.7ZM19.2 3.5H20.5L20.4 7.6H19.3L19.2 3.5ZM22.7 7.8L23 5.6L21.6 5.5L21.4 7.7L22.7 7.8ZM24.8 8.2L25.4 6.1L24.1 5.8L23.7 8L24.8 8.2ZM26.9 9L27.7 6.9L26.4 6.5L25.7 8.6L26.9 9ZM28.9 9.9L30 8L28.8 7.4L27.8 9.4L28.9 9.9Z" fill="white"/>
</svg>
