<svg width="110" height="40" viewBox="0 0 110 40" fill="none" xmlns="http://www.w3.org/2000/svg">
<path d="M73.9996 19.7004C73.9996 19.3004 73.9996 18.9004 73.9996 18.5004C73.8996 17.8004 73.8996 17.2004 73.6996 16.5004C73.2996 14.4004 72.5996 12.4004 71.4996 10.6004C69.7996 7.70041 67.5996 5.40041 64.6996 3.70041C62.0996 2.00041 59.0996 1.20041 55.9996 1.00041C54.9996 0.900406 53.9996 1.00041 52.9996 1.10041C52.1996 1.20041 51.3996 1.30041 50.5996 1.50041C48.4996 2.00041 46.4996 2.90041 44.6996 4.10041C42.1996 5.80041 40.0996 7.90041 38.5996 10.5004C36.9996 13.3004 36.1996 16.3004 36.0996 19.4004C36.0996 20.6004 36.1996 21.9004 36.3996 23.1004C36.6996 24.7004 37.0996 26.3004 37.7996 27.7004C39.1996 30.7004 41.1996 33.2004 43.8996 35.2004C46.3996 37.1004 49.1996 38.2004 52.2996 38.7004C53.0996 38.8004 53.7996 38.9004 54.5996 38.9004C55.6996 38.9004 56.7996 38.9004 57.8996 38.7004C58.9996 38.5004 60.0996 38.3004 61.0996 37.9004C63.6996 37.0004 66.0996 35.6004 68.0996 33.7004C70.3996 31.5004 72.0996 28.9004 73.1996 25.9004C73.5996 24.8004 73.7996 23.7004 73.9996 22.5004C74.0996 22.0004 74.0996 21.6004 74.0996 21.1004C74.0996 20.7004 74.0996 20.2004 74.0996 19.8004C73.9996 19.9004 73.9996 19.8004 73.9996 19.7004ZM51.9996 22.3004C51.4996 23.5004 50.6996 24.5004 49.5996 25.3004C48.7996 25.8004 47.8996 26.2004 46.9996 26.4004C46.2996 26.5004 45.6996 26.6004 44.9996 26.5004C43.2996 26.4004 41.8996 25.7004 40.9996 24.2004C40.6996 23.6004 40.4996 23.0004 40.3996 22.4004C40.2996 21.7004 40.3996 21.0004 40.5996 20.4004C40.8996 18.9004 41.1996 17.4004 41.4996 16.0004C41.5996 15.3004 41.7996 14.5004 41.8996 13.8004C41.8996 13.6004 41.9996 13.5004 42.2996 13.5004C42.7996 13.5004 43.2996 13.5004 43.7996 13.5004C44.2996 13.5004 44.7996 13.5004 45.2996 13.5004H45.3996C45.4996 13.5004 45.5996 13.6004 45.5996 13.7004C45.4996 14.2004 45.3996 14.7004 45.2996 15.2004C44.9996 16.6004 44.6996 18.0004 44.3996 19.4004C44.2996 19.9004 44.1996 20.5004 44.0996 21.0004C43.9996 21.4004 43.9996 21.8004 44.0996 22.3004C44.2996 22.9004 44.6996 23.3004 45.2996 23.4004C46.0996 23.6004 46.8996 23.4004 47.5996 22.9004C48.0996 22.5004 48.3996 22.0004 48.5996 21.4004C48.6996 20.9004 48.7996 20.5004 48.8996 20.0004C49.1996 18.5004 49.4996 17.0004 49.8996 15.5004C49.9996 15.0004 50.0996 14.4004 50.1996 13.9004C50.1996 13.7004 50.2996 13.6004 50.4996 13.6004C51.4996 13.6004 52.5996 13.6004 53.5996 13.6004C53.7996 13.6004 53.8996 13.7004 53.7996 13.9004C53.3996 16.0004 52.8996 18.1004 52.4996 20.2004C52.4996 20.8004 52.2996 21.6004 51.9996 22.3004ZM69.4996 13.7004C68.8996 16.6004 68.2996 19.4004 67.6996 22.3004C67.3996 23.5004 67.1996 24.8004 66.8996 26.0004C66.8996 26.2004 66.7996 26.3004 66.4996 26.3004C65.4996 26.3004 64.4996 26.3004 63.4996 26.3004C63.2996 26.3004 63.1996 26.2004 63.2996 26.0004C63.5996 24.8004 63.7996 23.6004 64.0996 22.4004C64.2996 21.3004 64.5996 20.3004 64.7996 19.2004V19.1004L64.6996 19.2004C63.3996 20.7004 61.9996 22.3004 60.6996 23.8004C60.5996 23.9004 60.5996 23.9004 60.4996 24.0004C60.4996 23.9004 60.3996 23.8004 60.3996 23.8004C59.7996 22.5004 59.1996 21.2004 58.6996 19.9004C58.5996 19.7004 58.4996 19.5004 58.3996 19.3004C58.3996 19.3004 58.3996 19.2004 58.2996 19.2004V19.3004C57.8996 21.4004 57.3996 23.4004 56.9996 25.5004C56.9996 25.7004 56.8996 26.0004 56.8996 26.2004C56.8996 26.4004 56.7996 26.4004 56.5996 26.4004C55.5996 26.4004 54.5996 26.4004 53.5996 26.4004C53.3996 26.4004 53.3996 26.3004 53.3996 26.2004C53.9996 23.3004 54.5996 20.4004 55.1996 17.5004C55.4996 16.3004 55.6996 15.0004 55.9996 13.8004C55.9996 13.6004 56.0996 13.5004 56.2996 13.5004C57.3996 13.5004 58.3996 13.5004 59.4996 13.5004C59.6996 13.5004 59.7996 13.6004 59.8996 13.8004C60.4996 15.3004 61.0996 16.8004 61.6996 18.2004V18.3004C61.6996 18.4004 61.7996 18.4004 61.8996 18.3004C61.8996 18.3004 61.8996 18.3004 61.9996 18.2004C63.2996 16.7004 64.4996 15.2004 65.7996 13.6004C65.8996 13.5004 66.0996 13.4004 66.1996 13.4004C67.2996 13.4004 68.3996 13.4004 69.3996 13.4004C69.3996 13.5004 69.4996 13.5004 69.4996 13.7004Z" fill="white"/>
</svg>
