<svg width="110" height="40" viewBox="0 0 110 40" fill="none" xmlns="http://www.w3.org/2000/svg">
<path opacity="0.4" d="M31.5 23.1992H25V36.2992H31.5V23.1992Z" fill="white"/>
<path opacity="0.6" d="M31.5 3.59961H25V16.6996H31.5V3.59961Z" fill="white"/>
<path d="M25 16.6992V23.1992H38.1V36.2992H44.6V23.1992V16.6992H25Z" fill="white"/>
<path d="M51.2998 16.5996H52.3998V19.9996C52.7998 19.2996 53.5998 18.7996 54.4998 18.8996C56.1998 18.8996 56.7998 19.8996 56.7998 21.2996V25.5996H55.6998V21.1996C55.7998 20.4996 55.1998 19.8996 54.5998 19.8996C54.4998 19.8996 54.4998 19.8996 54.3998 19.8996C53.3998 19.7996 52.4998 20.5996 52.4998 21.5996C52.4998 21.6996 52.4998 21.7996 52.4998 21.8996V25.5996H51.3998V16.5996H51.2998Z" fill="white"/>
<path d="M64.0004 25.5994C63.8004 25.6994 63.5004 25.7994 63.2004 25.7994C62.6004 25.7994 62.3004 25.4994 62.3004 24.7994C61.7004 25.4994 60.9004 25.7994 60.0004 25.7994C58.8004 25.7994 57.9004 25.2994 57.9004 23.9994C57.9004 22.4994 59.0004 22.1994 60.1004 21.9994C61.2004 21.7994 62.3004 21.8994 62.3004 20.9994C62.3004 20.0994 61.5004 19.8994 60.8004 19.8994C59.9004 19.8994 59.2004 20.1994 59.2004 21.0994H58.1004C58.2004 19.4994 59.4004 18.8994 60.9004 18.8994C62.1004 18.8994 63.4004 19.1994 63.4004 20.6994V24.0994C63.4004 24.5994 63.4004 24.7994 63.7004 24.7994C63.8004 24.7994 63.9004 24.7994 64.0004 24.6994V25.5994ZM62.2004 22.2994C61.6004 22.5994 60.9004 22.6994 60.3004 22.6994C59.6004 22.7994 59.0004 23.0994 59.0004 23.8994C59.0004 24.6994 59.6004 24.8994 60.3004 24.8994C61.7004 24.8994 62.3004 23.9994 62.3004 23.3994V22.2994H62.2004Z" fill="white"/>
<path d="M67.6 25.6996H66.5L64 19.0996H65.3L67.1 24.5996L68.9 19.0996H70L67.6 25.6996Z" fill="white"/>
<path d="M76.4002 25.5994C76.2002 25.6994 75.9002 25.7994 75.6002 25.7994C75.0002 25.7994 74.7002 25.4994 74.7002 24.7994C74.1002 25.4994 73.3002 25.7994 72.4002 25.7994C71.2002 25.7994 70.2002 25.2994 70.2002 23.9994C70.2002 22.4994 71.3002 22.1994 72.4002 21.9994C73.5002 21.7994 74.6002 21.8994 74.6002 20.9994C74.6002 20.0994 73.8002 19.8994 73.1002 19.8994C72.2002 19.8994 71.5002 20.1994 71.5002 21.0994H70.4002C70.5002 19.4994 71.7002 18.8994 73.2002 18.8994C74.4002 18.8994 75.7002 19.1994 75.7002 20.6994V24.0994C75.7002 24.5994 75.7002 24.7994 76.0002 24.7994C76.1002 24.7994 76.2002 24.7994 76.3002 24.6994L76.4002 25.5994ZM74.7002 22.2994C74.1002 22.5994 73.4002 22.6994 72.8002 22.6994C72.1002 22.7994 71.5002 23.0994 71.5002 23.8994C71.5002 24.6994 72.1002 24.8994 72.8002 24.8994C74.2002 24.8994 74.8002 23.9994 74.8002 23.3994V22.2994H74.7002Z" fill="white"/>
<path d="M78 23.6C78 24.6 78.9 24.9 79.8 24.9C80.5 24.9 81.4 24.8 81.4 23.9C81.4 23.1 80.3 22.9 79.3 22.7C78.2 22.5 77.2 22.1 77.2 20.9C77.2 19.6 78.5 19 79.7 19C81.1 19 82.3 19.5 82.4 21H81.3C81.2 20.2 80.5 19.9 79.8 19.9C79.1 19.9 78.4 20.1 78.4 20.7C78.4 21.3 79.5 21.6 80.5 21.8C81.5 22 82.6 22.4 82.6 23.7C82.6 25.3 81.2 25.7 79.8 25.7C78.3 25.7 77.1 25.1 77 23.5L78 23.6Z" fill="white"/>
<g opacity="0.6">
<path opacity="0.6" d="M51.2998 29.6997H52.2998V30.6997C52.7998 29.9997 53.5998 29.5997 54.3998 29.5997C55.1998 29.4997 55.8998 29.9997 56.1998 30.6997C56.5998 29.9997 57.3998 29.5997 58.2998 29.5997C59.5998 29.5997 60.4998 30.0997 60.4998 31.4997V36.2997H59.3998V31.9997C59.3998 31.1997 59.1998 30.4997 58.0998 30.4997C57.1998 30.3997 56.4998 31.0997 56.3998 31.9997C56.3998 32.0997 56.3998 32.0997 56.3998 32.1997V36.2997H55.2998V31.9997C55.2998 31.1997 54.9998 30.4997 54.0998 30.4997C53.1998 30.4997 52.3998 31.1997 52.3998 32.0997V36.1997H51.2998V29.6997V29.6997Z" fill="white"/>
<path opacity="0.6" d="M67.6998 34.1C67.4998 35.5 66.2998 36.4 64.8998 36.3C62.7998 36.3 61.7998 34.9 61.7998 32.9C61.6998 31.2 62.8998 29.7 64.6998 29.5C64.7998 29.5 64.7998 29.5 64.8998 29.5C67.1998 29.5 67.8998 31.7 67.8998 33.2H62.9998C62.8998 34.3 63.5998 35.2 64.6998 35.3C64.7998 35.3 64.8998 35.3 65.0998 35.3C65.8998 35.4 66.5998 34.8 66.7998 34H67.6998V34.1ZM66.5998 32.3C66.5998 31.3 65.7998 30.4 64.6998 30.4C63.6998 30.4 62.7998 31.2 62.7998 32.3H66.5998Z" fill="white"/>
<path opacity="0.6" d="M74.7 36.1996H73.6V35.2996C73.2 35.9996 72.4 36.3996 71.5 36.2996C69.5 36.2996 68.5 34.6996 68.5 32.8996C68.5 31.0996 69.5 29.4996 71.5 29.4996C72.3 29.4996 73.1 29.7996 73.6 30.4996V27.0996H74.7V36.1996ZM71.7 35.3996C73.1 35.3996 73.7 34.1996 73.7 32.8996C73.7 31.6996 73.1 30.3996 71.6 30.3996C70.1 30.3996 69.6 31.6996 69.6 32.8996C69.7 34.2996 70.3 35.3996 71.7 35.3996Z" fill="white"/>
<path opacity="0.6" d="M77.4994 28.4992H76.3994V27.1992H77.4994V28.4992ZM76.3994 29.6992H77.4994V36.2992H76.3994V29.6992Z" fill="white"/>
<path opacity="0.6" d="M84.9998 36.2C84.7998 36.3 84.4998 36.4 84.1998 36.4C83.5998 36.4 83.2998 36.1 83.2998 35.4C82.6998 36.1 81.8998 36.4 80.9998 36.4C79.7998 36.4 78.7998 35.9 78.7998 34.6C78.7998 33.1 79.8998 32.8 80.9998 32.6C82.0998 32.4 83.1998 32.5 83.1998 31.6C83.1998 30.7 82.3998 30.5 81.6998 30.5C80.7998 30.5 80.0998 30.8 80.0998 31.7H78.9998C79.0998 30.1 80.2998 29.5 81.7998 29.5C82.9998 29.5 84.2998 29.8 84.2998 31.3V34.7C84.2998 35.2 84.2998 35.4 84.5998 35.4C84.6998 35.4 84.7998 35.4 84.8998 35.3L84.9998 36.2ZM83.1998 32.8C82.5998 33.1 81.8998 33.2 81.1998 33.2C80.4998 33.3 79.8998 33.6 79.8998 34.4C79.8998 35.2 80.4998 35.4 81.1998 35.4C82.5998 35.4 83.1998 34.5 83.1998 33.9V32.8Z" fill="white"/>
</g>
</svg>
