<svg width="110" height="40" viewBox="0 0 110 40" fill="none" xmlns="http://www.w3.org/2000/svg">
<path fill-rule="evenodd" clip-rule="evenodd" d="M49.4998 25.7002C48.2998 25.7002 47.2998 26.9002 47.2998 28.5002C47.2998 30.1002 48.2998 31.3002 49.4998 31.3002C50.6998 31.3002 51.6998 30.1002 51.6998 28.5002C51.6998 26.9002 50.6998 25.7002 49.4998 25.7002Z" fill="white"/>
<path fill-rule="evenodd" clip-rule="evenodd" d="M59.5 1C52.6 1 36 3.8 36 19.4C36 27.8 44.3 38.2 59 38.2C65.7 38.2 65.4 36.6 65.4 34.8C65.4 31.8 63.9 30.1 63.9 26.4C63.9 18.3 73.9 19.4 73.9 10.4C74 5.6 70 1 59.5 1ZM49.5 34.2C46.4 34.1 43.9 31.5 44 28.4C43.9 25.3 46.4 22.7 49.5 22.6C52.6 22.7 55.1 25.3 55 28.4C55 31.5 52.6 34.1 49.5 34.2ZM58.1 17.5C59.2 17.5 60.1 18.4 60.1 19.6C60.1 20.7 59.2 21.6 58 21.6C56.9 21.6 56 20.7 56 19.6C56.1 18.4 57 17.5 58.1 17.5ZM58.2 34C57.1 34 56.1 31.4 56.1 28.3C56.1 25.2 57 22.6 58.2 22.6C59.3 22.6 60.2 25.2 60.2 28.3C60.2 31.4 59.3 34 58.2 34Z" fill="white"/>
</svg>
