<?xml version="1.0" encoding="utf-8"?>
<!-- Generator: Adobe Illustrator 23.0.3, SVG Export Plug-In . SVG Version: 6.00 Build 0)  -->
<svg version="1.1" id="Layer_1" xmlns="http://www.w3.org/2000/svg" xmlns:xlink="http://www.w3.org/1999/xlink" x="0px" y="0px"
	 width="150px" height="150px" viewBox="0 0 150 150" style="enable-background:new 0 0 150 150;" xml:space="preserve">
<style type="text/css">
	.st0{fill:#101115;}
	.st1{fill:#FFFFFF;}
	.st2{fill:#464646;}
</style>
<g>
	<path class="st0" d="M63.9,25.8c8.7-9.1,23.2-9.5,32.3-0.8c1.7,1.7,3.1,3.5,4.3,5.6c3.6-1.6,7.5-2.4,11.4-2.4
		c15.6,0,28.3,12.7,28.3,28.3s-12.7,28.3-28.3,28.3c-1.8,0-3.7-0.2-5.6-0.6c-3.7,6.5-10.5,10.5-17.9,10.5c-3.1,0-6.2-0.7-9-2.1
		c-5,11.9-18.9,17.5-30.8,12.3c-5.9-2.5-10.5-7.4-12.8-13.4c-1.5,0.3-3,0.4-4.4,0.4C19.3,91.9,9.6,82,9.8,69.9
		c0.1-7.7,4.3-14.8,10.9-18.7c-1.4-3.2-2.1-6.6-2.1-10.1c0-13.9,11.3-25.3,25.2-25.3C51.7,15.8,59.1,19.5,63.9,25.8"/>
	<g>
		<path class="st1" d="M26,63.1c-0.1,0.1,0,0.3,0.1,0.3c0.3,0.2,0.4,0.3,0.7,0.4c1.2,0.6,2.5,1,3.9,0.9c2.7,0,4.3-1.4,4.3-3.7V61
			c0-2.2-1.9-2.9-3.7-3.5h-0.3c-1.3-0.4-2.4-0.8-2.4-1.7v-0.1c0-0.7,0.7-1.3,1.7-1.3c1.2,0,2.3,0.3,3.4,0.9c0.1,0.1,0.3,0.1,0.3-0.1
			v-0.1c0.1-0.2,0.5-1.4,0.5-1.5s0-0.3-0.1-0.3c-1.1-0.7-2.5-1-3.8-1h-0.3c-2.4,0-4.2,1.5-4.2,3.6V56c0,2.3,1.9,3,3.7,3.5l0.3,0.1
			c1.3,0.4,2.4,0.7,2.4,1.7v0.1c0,0.9-0.7,1.5-1.9,1.5c-1.2,0-2.4-0.3-3.5-1c-0.2-0.1-0.3-0.2-0.4-0.3c-0.1-0.1-0.3-0.1-0.3,0.1v0.1
			L26,63.1z"/>
		<path class="st1" d="M65,63.1c-0.1,0.1,0,0.3,0.1,0.3c0.3,0.2,0.4,0.3,0.7,0.4c1.2,0.6,2.5,1,3.9,0.9c2.7,0,4.3-1.4,4.3-3.7V61
			c0-2.2-1.9-2.9-3.7-3.5h-0.3c-1.3-0.4-2.4-0.8-2.4-1.7v-0.1c0-0.7,0.7-1.3,1.7-1.3c1.2,0,2.3,0.3,3.4,0.9c0.1,0.1,0.3,0.1,0.3-0.1
			v-0.1c0.1-0.2,0.5-1.4,0.5-1.5s0-0.3-0.1-0.3c-1.1-0.7-2.5-1-3.8-1h-0.3c-2.4,0-4.2,1.5-4.2,3.6V56c0,2.3,1.9,3,3.7,3.5l0.3,0.1
			c1.3,0.4,2.4,0.7,2.4,1.7v0.1c0,0.9-0.7,1.5-1.9,1.5c-1.2,0-2.4-0.3-3.5-1c-0.2-0.1-0.3-0.2-0.4-0.3c-0.1-0.1-0.3-0.1-0.3,0.1v0.1
			L65,63.1z"/>
		<path class="st1" d="M94,56.2c-0.2-0.7-0.5-1.4-1-1.9c-0.5-0.5-1-1-1.7-1.3c-1.6-0.6-3.2-0.6-4.8,0c-0.7,0.3-1.2,0.8-1.7,1.3
			c-0.4,0.5-0.8,1.2-1,1.9c-0.4,1.6-0.4,3.2,0,4.8c0.2,0.7,0.5,1.4,1,1.9c0.4,0.5,1,1,1.7,1.3c1.6,0.6,3.2,0.6,4.8,0
			c0.7-0.3,1.2-0.8,1.7-1.3c0.4-0.5,0.8-1.2,1-1.9c0.2-0.8,0.3-1.6,0.3-2.4C94.3,57.8,94.2,57,94,56.2 M91.7,58.7
			c0.1,1-0.2,2.1-0.7,3c-0.5,0.7-1.3,1.1-2.2,1c-0.9,0.1-1.7-0.3-2.2-1c-1-1.9-1-4.2,0-6c0.4-0.8,1.3-1.2,2.2-1.1
			c0.9-0.1,1.7,0.3,2.2,1C91.6,56.5,91.8,57.5,91.7,58.7"/>
		<path class="st1" d="M112.2,62.4c0-0.1-0.2-0.2-0.3-0.2l0,0c-0.3,0.2-0.7,0.3-1,0.3c-0.4,0.1-0.8,0.1-1.2,0.1
			c-1,0.1-1.8-0.3-2.5-1c-0.7-0.9-1-2-1-3c0-1,0.3-2.1,0.9-3c0.6-0.8,1.6-1.2,2.5-1.1c0.8,0,1.6,0.1,2.3,0.3c0.1,0,0.3-0.1,0.3-0.2
			c0.2-0.5,0.3-1,0.6-1.5c0-0.1,0-0.3-0.2-0.3l0,0c-0.5-0.2-1-0.3-1.5-0.3s-1.1-0.1-1.7-0.1c-0.9,0-1.7,0.2-2.5,0.4
			c-0.7,0.3-1.3,0.8-1.8,1.3c-0.5,0.6-0.9,1.2-1.1,1.9c-0.3,0.8-0.3,1.6-0.3,2.4c-0.1,1.6,0.4,3.2,1.5,4.4c1.1,1.2,2.8,1.8,4.4,1.7
			c1,0,2.2-0.2,3.2-0.6c0.1-0.1,0.1-0.2,0.1-0.3L112.2,62.4z"/>
		<path class="st1" d="M123.6,55.8c-0.2-0.7-0.5-1.3-1-1.7c-0.4-0.4-0.9-0.9-1.5-1.1c-0.7-0.3-1.5-0.4-2.2-0.4
			c-0.9,0-1.7,0.2-2.5,0.4c-0.7,0.3-1.2,0.8-1.7,1.3c-0.4,0.6-0.8,1.2-1,2c-0.2,0.8-0.3,1.6-0.3,2.4c0,0.8,0.1,1.7,0.3,2.4
			c0.2,0.7,0.6,1.4,1.1,1.9c0.5,0.5,1.2,1,1.9,1.2c0.9,0.3,1.8,0.5,2.8,0.4c1.3,0.1,2.6-0.2,3.8-0.7c0.1-0.1,0.2-0.1,0.1-0.3
			l-0.5-1.4c0-0.1-0.1-0.2-0.2-0.1l0,0h-0.1c-1,0.4-2.1,0.6-3.1,0.6c-1,0-1.9-0.3-2.6-0.9c-0.6-0.7-1-1.6-0.9-2.5h7.6
			c0.1,0,0.2-0.1,0.2-0.2l0,0l0,0C123.9,59,124.1,57.4,123.6,55.8 M116.2,57.4c0.1-0.6,0.3-1.2,0.6-1.7c0.4-0.7,1.3-1.1,2.2-1.1
			s1.7,0.3,2.2,1.1c0.3,0.5,0.5,1.1,0.5,1.7H116.2z"/>
		<path class="st1" d="M63.2,55.8c-0.2-0.7-0.5-1.3-1-1.7c-0.4-0.4-0.9-0.9-1.5-1.1c-0.7-0.3-1.5-0.4-2.2-0.4
			c-0.9,0-1.7,0.2-2.5,0.4c-0.7,0.3-1.2,0.8-1.7,1.3c-0.4,0.6-0.8,1.2-1,2C53.1,57,53,57.8,53,58.7c0,0.8,0.1,1.7,0.3,2.4
			c0.2,0.7,0.6,1.4,1.1,1.9c0.5,0.5,1.2,1,1.9,1.2c0.9,0.3,1.8,0.5,2.8,0.4c1.3,0.1,2.6-0.2,3.8-0.7c0.1-0.1,0.2-0.1,0.1-0.3
			l-0.6-1.4c0-0.1-0.1-0.2-0.2-0.1l0,0h-0.1c-1,0.4-2.1,0.6-3.1,0.6c-1,0-1.9-0.3-2.6-0.9c-0.6-0.7-1-1.6-0.9-2.5h7.6
			c0.1,0,0.2-0.1,0.2-0.2l0,0l0,0C63.4,59,63.7,57.5,63.2,55.8 M55.7,57.4c0.1-0.6,0.3-1.2,0.6-1.7c0.4-0.7,1.3-1.1,2.2-1.1
			c0.9,0,1.7,0.3,2.2,1.1c0.3,0.5,0.5,1.1,0.5,1.7H55.7z"/>
		<path class="st1" d="M42.4,57c-0.3,0-0.7-0.1-1.2-0.1c-0.6,0-1.3,0.1-1.9,0.3c-0.5,0.2-1.1,0.4-1.6,0.7c-0.4,0.3-0.9,0.8-1.1,1.2
			c-0.3,0.5-0.4,1.1-0.4,1.7s0.1,1.2,0.3,1.7c0.3,0.4,0.6,0.9,1,1.2c0.4,0.3,1,0.5,1.6,0.7c0.6,0.2,1.3,0.3,2,0.2
			c0.8,0,1.6-0.1,2.3-0.2c0.7-0.1,1.7-0.3,1.9-0.3c0.2,0,0.3-0.1,0.5-0.2c0.1,0,0.2-0.2,0.2-0.3v-7c0.1-1.2-0.3-2.4-1.2-3.3
			c-1-0.8-2.3-1.1-3.5-1c-0.7,0-1.4,0.1-2,0.2c-0.8,0.2-1.7,0.4-2.3,0.9c-0.1,0.1-0.1,0.2-0.1,0.3l0.5,1.5c0,0.1,0.1,0.2,0.2,0.1
			l0,0h0.1c0,0,0.1,0,0.1-0.1c1-0.5,2.1-0.8,3.2-0.8c0.7-0.1,1.3,0.1,1.9,0.4c0.4,0.3,0.6,0.8,0.6,1.8v0.3L42.4,57 M39.4,62.3
			c-0.2-0.1-0.3-0.3-0.4-0.4c-0.4-0.8-0.3-1.8,0.4-2.4c0.6-0.4,1.4-0.6,2.2-0.5c0.7,0,1.4,0.1,2,0.2v3.5c-0.7,0.2-1.4,0.3-2,0.3
			C40.9,62.9,40.1,62.7,39.4,62.3"/>
		<path class="st1" d="M103.3,53.1c0.1-0.1,0-0.2-0.1-0.3l0,0c-0.4-0.1-0.8-0.2-1.2-0.2c-0.7-0.1-1.3,0-1.9,0.3
			c-0.5,0.2-1,0.5-1.2,1v-1c0-0.1-0.1-0.2-0.2-0.2h-2c-0.1,0-0.2,0.1-0.2,0.2v11.3c0,0.1,0.1,0.2,0.2,0.2h2c0.1,0,0.2-0.1,0.2-0.2
			v-5.6c0-0.7,0.1-1.3,0.3-2c0.1-0.4,0.3-0.8,0.7-1.1c0.3-0.3,0.6-0.4,1-0.6c0.3-0.1,0.7-0.2,1-0.2s0.5,0,0.9,0.1
			c0.1,0,0.3-0.1,0.3-0.2l0,0C102.9,54.4,103.2,53.4,103.3,53.1"/>
		<path class="st1" d="M84.7,47.9L84,47.7c-0.3-0.1-0.7-0.1-1-0.1c-1.2-0.1-2.3,0.3-3.2,1.1c-0.8,1-1.4,2.2-1.5,3.5l-0.1,0.5h-1.7
			c-0.1,0-0.3,0.1-0.3,0.2l-0.3,1.6c0,0.1,0.1,0.3,0.2,0.3h1.7l-1.7,9.4c-0.1,0.6-0.3,1.3-0.4,1.9c-0.1,0.4-0.3,0.8-0.5,1.1
			c-0.2,0.3-0.4,0.4-0.7,0.5c-0.3,0.1-0.6,0.1-0.9,0.1c-0.2,0-0.4-0.1-0.6-0.1s-0.3-0.1-0.4-0.2c-0.1,0-0.2,0-0.3,0.1
			c-0.1,0.2-0.5,1.4-0.6,1.5c-0.1,0.1,0,0.3,0.1,0.3c0.3,0.1,0.4,0.2,0.7,0.2c0.3,0.1,0.7,0.1,1.1,0.1c0.6,0,1.3-0.1,1.9-0.3
			c0.5-0.2,1-0.5,1.4-1c0.4-0.5,0.8-1,1-1.7c0.3-0.9,0.5-1.7,0.7-2.5l1.7-9.6h2.4c0.1,0,0.3-0.1,0.3-0.2l0.3-1.6
			c0-0.1-0.1-0.3-0.2-0.3h-2.4c0.1-0.6,0.2-1.1,0.4-1.7c0.1-0.3,0.3-0.6,0.5-0.8c0.2-0.2,0.4-0.3,0.6-0.4c0.3-0.1,0.5-0.1,0.9-0.1
			c0.2,0,0.4,0.1,0.6,0.1c0.1,0,0.3,0.1,0.3,0.1c0.3,0.1,0.3,0,0.3-0.1l0.6-1.6C84.9,48.1,84.7,48,84.7,47.9"/>
		<path class="st1" d="M51,64.2c0,0.1-0.1,0.2-0.2,0.2h-2c-0.1,0-0.2-0.1-0.2-0.2V48.1c0-0.1,0.1-0.2,0.2-0.2h1.9
			c0.1,0,0.2,0.1,0.2,0.2L51,64.2L51,64.2z"/>
	</g>
	<g>
		<path class="st2" d="M38.9,118.7c-0.2,0.2-0.3,0.3-0.4,0.4v-2.3h-2v17.3h2v-6.3c2.9,3.3,6.2,3,8.3,1.7c2.6-1.7,3.7-5.1,2.8-8.3
			C48,116.5,42.1,114.8,38.9,118.7z M42.5,128.5c-2.6,0-4.2-2.3-4.3-5c0-2.8,2.2-5.1,4.8-5.1s4.7,2.2,4.7,5.1
			C47.6,126.3,45.3,128.5,42.5,128.5L42.5,128.5L42.5,128.5L42.5,128.5z"/>
		<path class="st2" d="M109.4,112.9v3.9h4.2v1.8h-4.1c0,0.4-0.1,0.8-0.1,1.1c0,2.1,0.1,4.1,0,6.2c-0.1,2.4,1.1,3,3.4,2.5
			c0.2-0.1,0.3-0.1,0.5-0.2c0.4,1.5,0.2,2-1.3,2.2c-3.1,0.3-4.7-1-4.7-4.2v-7.5l-1.8-0.1v-1.7l1.7-0.1v-3.9h2.2V112.9z"/>
		<path class="st2" d="M68.4,130.1h-2V117h2v3c1.4-2.1,2.9-3.4,5.4-3.3v2.1c-4,0.8-5.3,2.4-5.3,6.5
			C68.4,126.8,68.4,128.4,68.4,130.1z"/>
		<path class="st2" d="M85.9,111.4v7.6c-3.5-3.1-6.6-3.4-9.3-0.9c-2.7,2.4-2.9,7-0.6,9.8c0.9,1.1,2.2,2,3.7,2.3
			c2.5,0.5,4.5-0.5,6.3-2.7v2.4h1.9v-18.6H85.9L85.9,111.4z M81.1,128.6c-2.6-0.1-4.6-2.3-4.6-5.2c0.1-2.9,2-5,4.7-5
			c2.6,0,4.8,2.3,4.7,5.2C85.9,126.4,83.7,128.6,81.1,128.6L81.1,128.6z"/>
		<path class="st2" d="M62.9,120.8c-0.1-2-1.4-3.4-3.3-3.9c-2.3-0.6-4.9-0.3-7,0.8l0.5,1.7c2.3-0.9,3.6-1,5.1-0.9
			c1.7,0.3,3.2,1.8,2.7,3.8l-0.6-0.1c-2.3-0.4-4.4-0.7-6.6,0.3c-2,0.9-3,3.1-2.1,5.2c0.3,0.7,0.8,1.3,1.5,1.7c1.1,0.8,2.4,1,3.7,1
			c1.6-0.1,3.1-0.9,4.2-2l0.1,1.7h1.8c0-0.3,0.1-0.5,0.1-0.8C63,126.5,63.1,123.6,62.9,120.8z M59.1,128.2c-1.7,0.8-3.3,0.9-4.9-0.3
			c-1-0.9-1.1-2.3-0.3-3.3c0.2-0.2,0.3-0.3,0.5-0.4c1.8-0.9,4-1,5.9-0.3c0.3,0.2,0.6,0.4,0.7,0.8C61.3,126.1,60.5,127.7,59.1,128.2
			L59.1,128.2z"/>
		<path class="st2" d="M97.6,116.5c-3.8-0.1-7,3-7.1,6.9c-0.1,3.8,3,7,6.9,7.1c3.8,0.1,7-3,7.1-6.9v-0.1
			C104.4,119.8,101.5,116.6,97.6,116.5C97.6,116.5,97.6,116.5,97.6,116.5L97.6,116.5z M97.6,128.6c-2.7,0-4.9-2.3-4.9-5.2
			c0-3,2.1-5.1,4.9-5c2.8,0,4.9,2.3,4.9,5.1C102.3,126.4,100.2,128.6,97.6,128.6L97.6,128.6z"/>
	</g>
</g>
</svg>
