<?xml version="1.0" encoding="utf-8"?>
<!-- Generator: Adobe Illustrator 23.0.3, SVG Export Plug-In . SVG Version: 6.00 Build 0)  -->
<svg version="1.1" id="Capa_1" xmlns="http://www.w3.org/2000/svg" xmlns:xlink="http://www.w3.org/1999/xlink" x="0px" y="0px"
	 width="150px" height="150px" viewBox="0 0 150 150" style="enable-background:new 0 0 150 150;" xml:space="preserve">
<style type="text/css">
	.st0{fill:none;}
	.st1{fill:#101115;}
	.st2{fill:url(#Shape_1_);}
	.st3{fill:#464646;}
	.st4{fill:url(#Shape_2_);}
</style>
<g>
	<rect x="34.5" y="43.5" class="st0" width="81" height="63"/>
</g>
<g>
	<g id="wordmark_1_" transform="translate(12.000000, 31.000000)">
		<polygon id="Shape_31_" class="st1" points="11.8,71.8 11.8,68.8 -2,68.8 -2,71.8 3.3,71.8 3.3,86.4 6.4,86.4 6.4,71.8 		"/>
		<path id="Shape_30_" class="st1" d="M74.2,78.6h-5.8c0-0.9,0.2-1.3,0.7-2c0.4-0.7,1.3-0.9,2.2-0.9s1.6,0.2,2,0.7
			C73.8,77,74.2,77.8,74.2,78.6 M77.3,79.9c0-1.6-0.2-3.1-1.1-4.4c-1.1-1.6-2.9-2.4-4.9-2.4c-1.8,0-3.1,0.7-4.2,1.6
			c-1.3,1.3-2,3.1-2,5.1c0,2.2,0.7,4,2,5.1c1.1,0.9,2.4,1.6,4.2,1.6c1.8,0,3.3-0.4,4.4-1.8c0.2-0.2,0.2-0.4,0.4-0.7l0,0l-2.4-1.1
			c-0.2,0.2-0.2,0.4-0.4,0.7c-0.4,0.4-1.1,0.7-2,0.7s-1.6-0.4-2-0.9c-0.7-0.7-0.9-1.6-0.9-2.4h8.7C77.3,80.6,77.3,79.9,77.3,79.9"/>
		<path id="Shape_29_" class="st1" d="M18.9,78.6h-5.6c0-0.9,0.2-1.3,0.7-2c0.4-0.7,1.3-0.9,2.2-0.9s1.6,0.2,2,0.7
			C18.4,77,18.9,77.8,18.9,78.6 M22,79.9c0-1.6-0.2-3.1-1.1-4.4C19.8,73.9,18,73,16,73c-1.8,0-3.1,0.7-4.2,1.6
			c-1.1,1.5-1.8,3.3-1.8,5.3c0,2.2,0.7,4,2,5.1c1.1,0.9,2.4,1.6,4.2,1.6s3.3-0.4,4.4-1.8c0.2-0.2,0.2-0.4,0.4-0.7l0,0l-2.7-1.3
			c0,0.2-0.2,0.4-0.4,0.7c-0.4,0.4-1.1,0.7-2,0.7s-1.6-0.4-2-0.9c-0.4-0.4-0.7-1.3-0.7-2.4h8.9C22,80.6,22,79.9,22,79.9"/>
		<path id="Shape_28_" class="st1" d="M115.1,78.6h-5.8c0-0.9,0.2-1.3,0.7-2c0.4-0.7,1.3-0.9,2.2-0.9c0.9,0,1.6,0.2,2,0.7
			C114.9,77,115.1,77.8,115.1,78.6 M118.2,79.9c0-1.6-0.2-3.1-1.1-4.4c-1.1-1.6-2.9-2.4-4.9-2.4c-1.8,0-3.1,0.7-4.2,1.6
			c-1.1,1.6-1.8,3.3-1.8,5.3c0,2.2,0.7,4,2,5.1c1.1,0.9,2.4,1.6,4.2,1.6c1.8,0,3.3-0.4,4.4-1.8c0.2-0.2,0.2-0.4,0.4-0.7l0,0
			l-2.4-1.3c-0.2,0.2-0.2,0.4-0.4,0.7c-0.4,0.4-1.1,0.7-2,0.7s-1.6-0.4-2-0.9c-0.7-0.7-0.9-1.6-0.9-2.4h8.9
			C118.2,80.6,118.2,79.9,118.2,79.9"/>
		<path id="Shape_27_" class="st1" d="M31.8,81.3c0,2-1.3,2.9-3.3,2.9c-0.9,0-1.8-0.7-1.8-1.6c0-1.1,0.9-1.6,2-1.8l3.1-0.2
			L31.8,81.3L31.8,81.3z M36,86.1v-2.2c0,0-0.2,0-0.4,0c-0.4,0-0.7-0.2-0.7-0.9v-4.7c0-0.9,0-1.8-0.4-2.7c-0.7-2-2.7-2.7-4.9-2.7
			c-2.9,0-5.3,1.3-5.3,4.2h3.1c0-1.1,0.9-1.8,2.4-1.8c1.8,0,2.2,0.9,2.2,2v0.9l-4,0.2c-2.4,0.2-4.4,1.8-4.4,4.2c0,2.2,1.6,4,4.7,4
			c1.8,0,3.3-0.9,4-2c0,0.9,0.9,1.8,2.2,1.8C35.3,86.6,35.6,86.4,36,86.1L36,86.1z"/>
		<path id="Shape_26_" class="st1" d="M56.7,86.4v-8.7c0-2.7-1.6-4.4-4.2-4.4c-1.8,0-3.1,0.7-4,2.2c-0.7-1.3-2-2.2-3.8-2.2
			s-2.9,0.9-3.8,2l-0.2-1.8H38v12.9h3.1v-7.1c0-1.6,0.9-3.6,2.7-3.6c1.6,0,2,0.9,2,2.4v8h3.1v-6.9c0-1.6,0.7-3.6,2.7-3.6
			c1.6,0.2,2,1.1,2,2.7v8C53.6,86.4,56.7,86.4,56.7,86.4z"/>
		<path id="Shape_25_" class="st1" d="M86.9,81.3c0,2-1.3,2.9-3.3,2.9c-0.9,0-1.8-0.7-1.8-1.6c0-1.1,0.9-1.6,2-1.8l3.1-0.2
			L86.9,81.3L86.9,81.3z M91.1,86.1v-2.2c0,0-0.2,0-0.4,0c-0.4,0-0.7-0.2-0.7-0.9v-4.7c0-0.9,0-1.8-0.4-2.7c-0.9-2-2.7-2.7-4.9-2.7
			c-2.9,0-5.3,1.3-5.3,4.2h3.1c0-1.1,0.9-1.8,2.4-1.8c1.8,0,2.2,0.9,2.2,2v0.9l-3.8,0.2c-2.4,0.2-4.4,1.6-4.4,4c0,2.2,1.6,4,4.7,4
			c1.8,0,3.3-0.9,4-2c0,0.9,0.9,1.8,2.2,1.8C90.2,86.6,90.4,86.4,91.1,86.1L91.1,86.1z"/>
		<path id="Shape_24_" class="st1" d="M128,76.4v-3.1c-0.4,0-0.7,0-0.9,0c-1.6,0-3.1,0.7-3.8,2.2l-0.2-2h-2.7v12.9h3.1v-6.5
			c0-2.2,1.1-3.8,3.3-3.8C127.3,76.1,127.8,76.4,128,76.4"/>
		<path id="Shape_23_" class="st1" d="M62.2,66.4l-3.1,1.8v14.9c0,2.4,1.3,3.6,3.6,3.6c0.7,0,0.7,0,1.3-0.2v-2.7c-0.2,0-0.2,0-0.4,0
			c-1.1,0-1.3-0.4-1.3-1.3L62.2,66.4L62.2,66.4z M59.3,67.9L59.3,67.9L59.3,67.9L59.3,67.9z"/>
		<path id="Shape_22_" class="st1" d="M101.1,79.9c0,1.8-0.4,4.2-2.9,4.2c-0.9,0-1.8-0.4-2.2-1.1c-0.7-0.9-0.9-2-0.9-3.1
			s0.2-2.2,0.9-3.1c0.4-0.7,1.1-1.1,2.2-1.1C100.7,75.8,101.1,77.9,101.1,79.9L101.1,79.9z M101.1,74.4c-0.4-0.7-1.8-1.1-3.6-1.1
			c-1.3,0-2.4,0.4-3.1,1.1c-1.6,1.3-2.4,3.1-2.4,5.8c0,2.4,0.7,4.4,2.2,5.6c0.9,0.7,2,1.1,3.1,1.1c1.3,0,2.9-0.4,3.8-1.8l0.2,1.3
			h2.7v-20l-3.1,1.8L101.1,74.4L101.1,74.4L101.1,74.4z"/>
	</g>
	<g id="Icon_2_" transform="translate(168.269767, 15.000000)">
		
			<linearGradient id="Shape_1_" gradientUnits="userSpaceOnUse" x1="-1326.7413" y1="591.8652" x2="-1326.7413" y2="592.7488" gradientTransform="matrix(9.9535 0 0 -17 13102.1201 10118.7666)">
			<stop  offset="0" style="stop-color:#464646"/>
			<stop  offset="1" style="stop-color:#101115"/>
		</linearGradient>
		<polygon id="Shape_13_" class="st2" points="-111.3,42.2 -95.9,68.1 -95.9,42.2 		"/>
		<polygon id="Shape_12_" class="st3" points="-95.9,17 -95.9,42.2 -137.4,42.2 		"/>
		
			<linearGradient id="Shape_2_" gradientUnits="userSpaceOnUse" x1="-1308.5974" y1="604.8033" x2="-1308.5974" y2="605.6873" gradientTransform="matrix(4.6922 8.1271 -13.6596 7.8864 14340.0742 5906.8306)">
			<stop  offset="0" style="stop-color:#464646"/>
			<stop  offset="1" style="stop-color:#101115"/>
		</linearGradient>
		<polygon id="Shape_11_" class="st4" points="-77.4,42.2 -49.2,42.2 -69.5,54.5 		"/>
		<polygon id="Shape_10_" class="st3" points="-92.8,68.1 -69.5,54.5 -92.4,17.5 		"/>
	</g>
</g>
</svg>
