<?xml version="1.0" encoding="utf-8"?>
<!-- Generator: Adobe Illustrator 23.0.3, SVG Export Plug-In . SVG Version: 6.00 Build 0)  -->
<svg version="1.1"
	 id="svg2" inkscape:version="0.91 r13725" sodipodi:docname="WordPress logo.svg" xmlns:cc="http://creativecommons.org/ns#" xmlns:dc="http://purl.org/dc/elements/1.1/" xmlns:inkscape="http://www.inkscape.org/namespaces/inkscape" xmlns:rdf="http://www.w3.org/1999/02/22-rdf-syntax-ns#" xmlns:sodipodi="http://sodipodi.sourceforge.net/DTD/sodipodi-0.dtd" xmlns:svg="http://www.w3.org/2000/svg"
	 xmlns="http://www.w3.org/2000/svg" xmlns:xlink="http://www.w3.org/1999/xlink" x="0px" y="0px" width="150px" height="150px"
	 viewBox="0 0 150 150" style="enable-background:new 0 0 150 150;" xml:space="preserve">
<style type="text/css">
	.st0{fill:#464646;}
	.st1{fill:#101115;}
</style>
<title  id="title4212">WordPress logo</title>
<sodipodi:namedview  bordercolor="#666666" borderopacity="1.0" fit-margin-bottom="0" fit-margin-left="0" fit-margin-right="0" fit-margin-top="0" id="base" inkscape:current-layer="layer1" inkscape:cx="231.36448" inkscape:cy="112.57668" inkscape:document-units="px" inkscape:pageopacity="0.0" inkscape:pageshadow="2" inkscape:window-height="705" inkscape:window-maximized="1" inkscape:window-width="1366" inkscape:window-x="-8" inkscape:window-y="-8" inkscape:zoom="0.98994949" pagecolor="#ffffff" showgrid="false">
	</sodipodi:namedview>
<g id="layer1" transform="translate(-94.270021,-72.68702)" inkscape:groupmode="layer" inkscape:label="Capa 1">
	<g id="g4207" transform="matrix(0.55888227,0,0,0.55888227,64.978598,-27.960983)">
		<path id="path4187" inkscape:connector-curvature="0" class="st0" d="M150.2,376.7c2.6-3.1,0.7-7.1-3.5-7.7l-2.4-0.3v4.9v4.9
			l2.3-0.3C148.4,378.1,149.3,377.7,150.2,376.7L150.2,376.7z M178.9,387.2c2.7-1.4,4-4.2,4-8.8c0-3.5-1.6-6.9-3.7-8.1
			c-0.8-0.5-2.9-1-4.7-1.2l-3.2-0.4v9.3c0,8.3,0.1,9.4,0.8,9.9C173.3,388.6,177,388.1,178.9,387.2L178.9,387.2z M134.2,390
			c0-0.7,0.4-1,1.5-1c2.7,0,3.1-1.2,3.1-10.4c0-7.5-0.1-8.2-1-9.1c-0.6-0.6-1.6-1-2.2-1c-0.9,0-1.2-0.3-1.2-1c0-1,0.2-1,8.4-0.8
			c7.6,0.2,8.6,0.3,10.5,1.3c4.8,2.5,4.9,8.9,0.5,11.6c-0.9,0.6-2.1,1-2.6,1c-1.2,0,5.3,6.7,7.7,7.7c2.1,1,5.4,1,6.3-0.1
			c0.6-0.7,0.7-2.9,0.7-9.6c0-8.1-0.1-8.8-0.9-9.4c-0.6-0.4-1.6-0.7-2.4-0.7c-1.1,0-1.4-0.3-1.4-1c0-0.9,0.4-1,7.9-1
			c9,0,12.7,0.7,15.9,2.9c6.2,4.3,6,14.7-0.4,19c-3.5,2.3-6.1,2.7-19.3,2.7h-11.8l-4-5c-2.1-2.8-4.2-5-4.4-5c-0.3,0-0.5,1.3-0.5,2.9
			c0,3.5,0.9,5.1,3.1,5.1c1.1,0,1.5,0.2,1.5,1c0,0.9-0.4,1-7.3,1S134.2,390.9,134.2,390L134.2,390z M123.6,387.7
			c4.9-3.5,4.9-14.4,0-17.8c-2.1-1.6-6.5-1.8-8.9-0.5c-2.6,1.4-4.5,5.4-4.5,9.3c0,4,2,8,4.5,9.4C117,389.4,121.6,389.1,123.6,387.7
			L123.6,387.7z M114.9,391.5c-4.5-1.2-9-5.2-10.2-9c-2-6.4,1.3-12.9,7.9-15.9c3.3-1.5,8.9-1.4,12.4,0.1c2.9,1.3,6.3,4.7,7.5,7.4
			c1,2.4,0.9,7.1-0.2,9.5c-1.1,2.4-4.9,6-7.5,7C122.7,391.7,117.1,392.2,114.9,391.5L114.9,391.5z M72,379.1
			c-5.4-16.7-5.9-17.7-9.3-17.7c-0.9,0-1.3-0.3-1.3-1c0-0.9,0.4-1,8-1s8,0,8,1c0,0.7-0.4,1-1.5,1c-1.3,0-3.1,1.1-3.1,2
			c0,0.2,1.2,4,2.6,8.5c2,6.2,2.7,7.9,3.1,7.4c0.3-0.5,1.9-5,3.5-10.2c4.2-12.6,4.1-12.6,8.3,0.3c1.8,5.5,3.4,10.1,3.5,10.3
			c0.2,0.2,1.5-3.4,3-7.9c3.1-9.2,3-9.9-0.2-10.2c-1.4-0.1-1.9-0.4-1.9-1.1c0-0.9,0.4-0.9,7-0.9c6.7,0,7,0.1,7,1c0,0.8-0.4,1-1.8,1
			c-3.4,0-4,1.3-9.2,16.7c-3.6,10.7-4.9,13.9-5.4,13.8c-0.6-0.1-1.8-3.4-4-10.2c-1.8-5.5-3.4-10.2-3.5-10.4c-0.2-0.2-2,4.4-3.8,10.2
			c-2.6,7.8-3.7,10.5-4.3,10.5C76.4,392,75.2,388.8,72,379.1L72,379.1z"/>
		<path id="path4179" inkscape:connector-curvature="0" class="st1" d="M232.7,377.7c3.7-1.6,3.4-7.2-0.6-8.3
			c-4.2-1.1-4.2-1.1-4.2,4.2v4.8h1.5C230.4,378.4,231.9,378.1,232.7,377.7z M218,390c0-0.7,0.4-1,1.5-1c0.8,0,1.8-0.4,2.2-0.7
			c1-1,1.5-6.3,1.2-12.7c-0.3-5.8-0.9-7.2-3.5-7.2c-1.1,0-1.4-0.2-1.4-1c0-1,0.1-1,8.7-0.8c9.1,0.2,9.9,0.4,12.5,2.8
			c3.5,3.3,1.6,9.9-3.1,10.9l-1.5,0.4l2.3,2.8c4.5,5.2,9,7.2,10.9,4.6c0.7-0.9,0.7-2.7,0.7-9.3c0-7.5-0.1-8.2-1-9.1
			c-0.6-0.6-1.6-1-2.2-1c-0.9,0-1.2-0.3-1.2-1c0-0.9,0.4-1,10.7-1h10.7l0.4,3.5c0.2,2,0.2,3.6,0.1,3.8c-0.7,0.7-1.7-0.4-2-1.8
			c-0.4-2-1.3-2.4-6-2.8l-3.9-0.4v4.1v4.1l2.1-0.3c2.3-0.4,3.4-1.3,3.4-3.1c0-0.8,0.3-1.1,1-1.1c0.9,0,1,0.4,1,5.8s-0.1,5.8-1,5.8
			c-0.7,0-1-0.4-1-1.5c0-1.8-1.6-3.1-3.9-3.1h-1.7v3.2c0,4.6,0.9,5.6,4.9,5.5c4.5,0,5.5-0.5,6.3-2.5c0.5-1.2,0.9-1.8,1.6-1.8
			c0.8,0,0.9,0.3,0.7,1.6c-0.2,0.8-0.3,2.4-0.3,3.5v2h-15.2h-15.2l-3.9-5c-2.1-2.7-4.1-5-4.4-5c-1,0,0,6.9,1.1,7.6
			c0.4,0.3,1.3,0.5,2.1,0.5c1,0,1.4,0.3,1.4,1c0,0.9-0.4,1-7.6,1C218.4,390.9,218,390.9,218,390L218,390z M207.9,373.7
			c3.7-2,3.7-8.7,0-10.6c-0.7-0.4-2.5-0.7-3.9-0.7h-2.5v6.1v6.1h2.5C205.4,374.4,207.2,374.1,207.9,373.7L207.9,373.7z M189.9,390
			c0-0.7,0.4-1,1.5-1c0.9,0,2-0.5,2.7-1.2c1-1,1.2-1.9,1.6-6.2c0.2-2.7,0.3-7.7,0.1-11.2c-0.4-7.3-0.9-8.7-4-9
			c-1.5-0.1-1.9-0.4-1.9-1.1c0-1,0.3-1,10.2-0.8c10.2,0.2,10.2,0.2,12.6,1.6c4.1,2.4,5.4,7,3.2,11.4c-1.7,3.4-5.2,5-10.5,5h-4
			l0.2,4.9c0.2,4.4,0.3,4.9,1.4,5.8c0.7,0.6,1.9,0.9,2.6,0.9c1.1,0,1.5,0.2,1.5,1c0,0.9-0.4,1-8.5,1
			C190.3,390.9,189.9,390.9,189.9,390L189.9,390z M293.8,386.7c0-4.9,0.1-5.2,0.9-5.2c0.7,0,1,0.5,1.3,1.5c0.4,1.9,2.4,4.3,4.3,5.3
			c3.2,1.6,7,0.4,7-2.2c0-1.8-1.4-3-6.1-5.3c-4.1-2.1-5.8-3.4-6.8-5.4c-1.5-3-0.3-7.1,2.7-8.6c2.9-1.4,4.9-1.5,9.5-0.1
			c0.8,0.3,1.1,0.2,1.1-0.5c0-0.5,0.4-0.8,1-0.8c0.9,0,1,0.4,1,4.5c0,4-0.1,4.5-0.9,4.5c-0.6,0-1.1-0.7-1.5-1.8
			c-1.4-3.7-5.8-5.6-8.1-3.3c-2.1,2.1-0.9,3.5,5.1,6.3c5.5,2.6,7.5,4.7,7.5,8.2c0,4.6-2.7,7.3-7.7,7.8c-2.1,0.2-3.2,0-5-0.7
			c-2.4-1.1-3.3-1-3.3,0.2c0,0.4-0.5,0.7-1,0.7C293.9,392,293.8,391.6,293.8,386.7L293.8,386.7z M271.7,386.7c0-4.9,0.1-5.2,1-5.2
			c0.7,0,1,0.4,1,0.8c0,1.6,2.2,4.8,4,5.7c3.5,1.9,7.6,0.7,7.6-2.2c0-1.6-1.5-2.8-6.8-5.5c-5.3-2.7-6.8-4.5-6.8-7.9
			c0-2.6,1.2-4.5,3.6-5.8c2.1-1,6.2-1.1,8.2-0.1c1.5,0.7,1.6,0.7,2-0.2c0.2-0.6,0.7-0.9,1.3-0.9c0.9,0,0.9,0.4,0.9,4.5
			c0,4.1-0.1,4.5-0.9,4.5c-0.7,0-1.1-0.6-1.5-1.8c-0.7-2.3-3.2-4.3-5.2-4.3c-3.5,0-5.1,3.1-2.4,4.9c0.7,0.6,3.2,1.9,5.4,3
			c5.2,2.6,6.3,3.9,6.6,7.3c0.3,3.4-1.1,5.6-4.4,7.3c-2.7,1.4-5.6,1.4-8.5,0.1c-2.2-1-3.1-0.9-3.1,0.3c0,0.4-0.5,0.7-1,0.7
			C271.7,392,271.7,391.6,271.7,386.7L271.7,386.7z"/>
		<path id="path4165" inkscape:connector-curvature="0" class="st1" d="M166.2,294.8c-4.7-13.7-8.4-25.2-8.4-25.6
			c0-0.3,1.2-0.7,2.8-0.8c3.3-0.3,4.9-1.4,3.7-2.6c-0.6-0.7-1.7-0.7-8.9-0.5c-4.5,0.2-8.2,0.2-8.2,0c0-0.8,3.3-4.9,6.6-8.1
			c8.7-8.5,20.2-13.2,32.6-13.2c5.6,0,9.7,0.7,15.5,2.6c4.7,1.6,11.9,5.7,14.7,8.3l1.4,1.3l-2.2,0.7c-2.8,0.8-5.1,3.2-5.8,5.9
			c-0.7,2.9,0.2,5.8,3.5,11.3c5.9,9.9,5.9,13.8,0.3,32.3c-2.1,6.9-3.9,12.6-4,12.8c-0.1,0.1-0.4-0.1-0.5-0.5
			c-0.7-2.1-16.8-49.8-16.8-49.9s0.9-0.2,2.1-0.3c3.5-0.1,4.7-0.6,4.7-2v-1.2h-13.6c-10.7,0-13.7,0.1-13.9,0.7
			c-0.5,1.3,0.4,2.1,2.6,2.4c1.3,0.2,2.6,0.4,3.1,0.4c0.5,0.1,2.1,4,4.4,10.1l3.7,10l-5.1,15.5c-2.8,8.5-5.2,15.5-5.4,15.5
			C174.7,319.7,170.8,308.5,166.2,294.8L166.2,294.8z M209.5,331.1c0-0.1,3.5-10,7.7-21.9c9.4-27,10-29.2,10.1-36.1
			c0-4.6,0.1-5.1,0.7-4.3c1.2,1.6,3.5,8.3,4.4,12.4c0.9,4.4,1,13.3,0.3,17.7c-1.8,9.8-7,19.5-14.1,26
			C214.6,328.5,209.5,332.1,209.5,331.1z M161.3,330.3c-11.1-7.1-18.8-18.6-21.1-31.4c-0.8-4.7-0.7-13.1,0.5-18.2
			c0.9-4.4,2.8-9.6,3.3-9.1c0.2,0.2,22.3,60.6,22.3,61C166.3,333.2,164.5,332.4,161.3,330.3z M180.1,337.2c-5.2-0.7-7.5-1.4-7.1-2.2
			c0.2-0.4,3.3-9.3,6.9-19.9c3.6-10.5,6.8-19.5,7-20c0.3-0.6,0.6-0.5,1,0.7c2.2,5.9,14.1,38.5,14.1,38.8c0,1-11.5,3.2-16.3,3
			C184.6,337.7,182.1,337.5,180.1,337.2z M195.1,341.5c26.1-4.6,45.3-29.8,42.4-55.7c-1.5-13-6.2-22.6-15.6-31.9
			c-9.9-9.7-21.8-14.6-35.6-14.6c-9.5,0-18.4,2.4-26.7,7.4c-5.1,3.1-13,10.6-16.2,15.7c-12.1,18.9-11.4,41.6,2.1,59.4
			C157,337.1,176.5,344.8,195.1,341.5L195.1,341.5z M176.7,344.6c-11.1-2.1-20.8-7.2-28.6-15c-21.1-21-21.6-54.9-1-76.4
			c7.8-8.2,18-13.8,28.9-15.9c5.4-1,15.8-1,21.1,0c19.9,3.7,36.2,18.8,41.8,38.4c7.5,26-4.9,53.2-29.6,64.7
			c-6.8,3.2-12.7,4.5-21.3,4.8C182.8,345.2,179.5,345,176.7,344.6L176.7,344.6z"/>
	</g>
</g>
</svg>
